%
M48
M72
T01C0.0240
T02C0.0315
T03C0.0320
T04C0.0360
T05C0.0400
T06C0.0472
T07C0.0730
%
T01
X11885Y4739
X13385Y4139
X12685Y3439
X17385Y3939
X18285Y3539
X17985Y2739
X20685Y2939
X20685Y5139
X16985Y5639
X15485Y6239
X14285Y6239
X13885Y7139
X13385Y7139
X12385Y7539
X11885Y7939
X11385Y7139
X10485Y6739
X8785Y6739
X8785Y6239
X14085Y7939
X14585Y8439
X15785Y8139
X16385Y7639
X15785Y7139
X14685Y7339
X24785Y7639
T02
X23098Y8139
X23098Y7139
X3279Y5426
X2492Y5426
X2492Y4639
X3279Y4639
X3279Y3851
X2492Y3851
T03
X7385Y3639
X7385Y2639
X7385Y1639
X10385Y1639
X10385Y2639
X10385Y3639
X10385Y4639
X7385Y4639
T04
X8885Y8139
X9885Y8139
X9885Y9139
X8885Y9139
T05
X18605Y8529
X21165Y8529
X21165Y6749
X18605Y6749
X26635Y6764
X26635Y5764
X26635Y7764
X26635Y8764
X26635Y9764
T06
X2885Y2828
X2885Y6450
T07
X5985Y3139
X8885Y3139
X22885Y3139
X25785Y3139
M30
