G75*
G70*
%OFA0B0*%
%FSLAX24Y24*%
%IPPOS*%
%LPD*%
%AMOC8*
5,1,8,0,0,1.08239X$1,22.5*
%
%ADD10R,0.0552X0.0198*%
%ADD11R,0.0277X0.0552*%
%ADD12R,0.0592X0.0710*%
%ADD13R,0.0592X0.0671*%
%ADD14R,0.0316X0.0946*%
%ADD15R,0.0580X0.0659*%
%ADD16R,0.0867X0.0631*%
%ADD17R,0.0867X0.0474*%
%ADD18C,0.0710*%
%ADD19C,0.0820*%
%ADD20R,0.0710X0.0789*%
%ADD21R,0.0297X0.0552*%
%ADD22R,0.0926X0.2245*%
%ADD23R,0.0631X0.0710*%
%ADD24R,0.0552X0.1064*%
%ADD25C,0.0595*%
%ADD26C,0.0789*%
%ADD27C,0.1175*%
%ADD28C,0.0600*%
%ADD29R,0.0316X0.0434*%
%ADD30OC8,0.0640*%
%ADD31OC8,0.0480*%
D10*
X015246Y006932D03*
X015246Y007188D03*
X015246Y007443D03*
X015246Y007699D03*
X015246Y007955D03*
X015246Y008211D03*
X015246Y008467D03*
X017529Y008467D03*
X017529Y008211D03*
X017529Y007955D03*
X017529Y007699D03*
X017529Y007443D03*
X017529Y007188D03*
X017529Y006932D03*
D11*
X013888Y006617D03*
X013388Y006617D03*
X012888Y006617D03*
X012388Y006617D03*
X011888Y006617D03*
X011388Y006617D03*
X010888Y006617D03*
X010888Y008782D03*
X011388Y008782D03*
X011888Y008782D03*
X012388Y008782D03*
X012888Y008782D03*
X013388Y008782D03*
X013888Y008782D03*
D12*
X015514Y005699D03*
X016262Y005699D03*
X016014Y004199D03*
X016762Y004199D03*
X018014Y004199D03*
X018762Y004199D03*
X014762Y004199D03*
X014014Y004199D03*
X012762Y004199D03*
X012014Y004199D03*
X012014Y002199D03*
X012762Y002199D03*
X014014Y002199D03*
X014762Y002199D03*
X016014Y002199D03*
X016762Y002199D03*
D13*
X018053Y002199D03*
X018722Y002199D03*
X021553Y004699D03*
X022222Y004699D03*
X018222Y005699D03*
X017553Y005699D03*
D14*
X020138Y003723D03*
X020638Y003723D03*
X021138Y003723D03*
X021638Y003723D03*
X021638Y001676D03*
X021138Y001676D03*
X020638Y001676D03*
X020138Y001676D03*
D15*
X019541Y005699D03*
X021234Y005699D03*
X006234Y004699D03*
X004541Y004699D03*
D16*
X008021Y005991D03*
X009754Y005991D03*
X009754Y007408D03*
X008021Y007408D03*
D17*
X008021Y006699D03*
X009754Y006699D03*
D18*
X023100Y007199D03*
X023100Y008199D03*
D19*
X021168Y008589D03*
X018608Y008589D03*
X018608Y006809D03*
X021168Y006809D03*
D20*
X023836Y004699D03*
X024939Y004699D03*
D21*
X004014Y001688D03*
X004388Y001688D03*
X004762Y001688D03*
X004762Y002711D03*
X004014Y002711D03*
D22*
X004143Y008199D03*
X002632Y008199D03*
D23*
X005836Y007699D03*
X006939Y007699D03*
D24*
X006537Y006199D03*
X005238Y006199D03*
D25*
X003281Y005487D03*
X002494Y005487D03*
X002494Y004699D03*
X003281Y004699D03*
X003281Y003912D03*
X002494Y003912D03*
D26*
X002888Y002888D03*
X002888Y006510D03*
D27*
X005988Y003199D03*
X008888Y003199D03*
X022888Y003199D03*
X025788Y003199D03*
D28*
X010648Y002699D02*
X010128Y002699D01*
X010128Y001699D02*
X010648Y001699D01*
X007648Y001699D02*
X007128Y001699D01*
X007128Y002699D02*
X007648Y002699D01*
X007648Y003699D02*
X007128Y003699D01*
X007128Y004699D02*
X007648Y004699D01*
X010128Y004699D02*
X010648Y004699D01*
X010648Y003699D02*
X010128Y003699D01*
D29*
X007698Y008699D03*
X007078Y008699D03*
X006198Y008699D03*
X005578Y008699D03*
X005578Y009199D03*
X006198Y009199D03*
X007078Y009199D03*
X007698Y009199D03*
D30*
X008888Y009199D03*
X009888Y009199D03*
X009888Y008199D03*
X008888Y008199D03*
D31*
X008788Y006699D03*
X008788Y006199D03*
X010488Y006199D03*
X010488Y006699D03*
X012788Y007699D03*
X014088Y007999D03*
X014288Y008499D03*
X015788Y008199D03*
X014688Y007399D03*
X014788Y005699D03*
X014088Y005499D03*
X015388Y004499D03*
X017388Y004299D03*
X019388Y004399D03*
X019688Y004799D03*
X020688Y004499D03*
X020688Y005399D03*
X019988Y006199D03*
X015188Y009299D03*
X021088Y002999D03*
X019688Y001999D03*
X017488Y002199D03*
X015388Y002199D03*
X012388Y002799D03*
M02*
