%
M48
M72
T01C0.0240
T02C0.0315
T03C0.0320
T04C0.0400
T05C0.0472
T06C0.0730
%
T01
X6564Y3491
X8864Y2591
X9364Y2591
X11364Y4691
X11364Y5491
X10864Y5491
X11364Y5991
X10764Y6591
X9164Y6691
X9164Y7191
X6464Y6291
X5664Y5391
X12764Y6491
X14464Y6491
X14964Y6491
X16164Y7191
X16164Y7991
X15364Y7991
X16464Y8391
X17664Y9091
X17764Y9891
X16464Y10291
X15764Y9491
X15264Y9291
X13064Y9591
X12064Y8591
X14164Y7991
X18064Y6291
X19064Y6291
X18064Y5491
X17964Y4791
X19064Y4591
X19764Y4991
X21464Y3891
X17864Y2791
X16964Y2091
X15064Y1891
X15764Y1191
X17964Y1091
X19064Y1491
X15064Y3191
X15064Y3791
X16964Y3791
X15864Y4591
X15164Y4591
X13664Y5691
X20064Y8691
X21764Y6991
T02
X23476Y7391
X23476Y6391
X3282Y4729
X2495Y4729
X2495Y3941
X3282Y3941
X3282Y3154
X2495Y3154
T03
X7389Y2691
X7389Y1691
X10389Y1691
X10389Y2691
X10389Y3691
X10389Y4691
X7389Y4691
X7389Y3691
T04
X10984Y8301
X13544Y8301
X13544Y10081
X10984Y10081
X18484Y9956
X21044Y9956
X22014Y9691
X23014Y9691
X24014Y9691
X25014Y9691
X26014Y9691
X21044Y8176
X18484Y8176
T05
X2889Y2130
X2889Y5753
T06
X5864Y3991
X8764Y3991
X22764Y3991
X25664Y3991
M30
