G75*
G70*
%OFA0B0*%
%FSLAX24Y24*%
%IPPOS*%
%LPD*%
%AMOC8*
5,1,8,0,0,1.08239X$1,22.5*
%
%ADD10C,0.0000*%
D10*
X001764Y001191D02*
X001824Y001189D01*
X001885Y001184D01*
X001944Y001175D01*
X002003Y001162D01*
X002062Y001146D01*
X002119Y001126D01*
X002174Y001103D01*
X002229Y001076D01*
X002281Y001047D01*
X002332Y001014D01*
X002381Y000978D01*
X002427Y000940D01*
X002471Y000898D01*
X002513Y000854D01*
X002551Y000808D01*
X002587Y000759D01*
X002620Y000708D01*
X002649Y000656D01*
X002676Y000601D01*
X002699Y000546D01*
X002719Y000489D01*
X002735Y000430D01*
X002748Y000371D01*
X002757Y000312D01*
X002762Y000251D01*
X002764Y000191D01*
X027264Y000191D01*
X027266Y000251D01*
X027271Y000312D01*
X027280Y000371D01*
X027293Y000430D01*
X027309Y000489D01*
X027329Y000546D01*
X027352Y000601D01*
X027379Y000656D01*
X027408Y000708D01*
X027441Y000759D01*
X027477Y000808D01*
X027515Y000854D01*
X027557Y000898D01*
X027601Y000940D01*
X027647Y000978D01*
X027696Y001014D01*
X027747Y001047D01*
X027799Y001076D01*
X027854Y001103D01*
X027909Y001126D01*
X027966Y001146D01*
X028025Y001162D01*
X028084Y001175D01*
X028143Y001184D01*
X028204Y001189D01*
X028264Y001191D01*
X028264Y011191D01*
X028204Y011193D01*
X028143Y011198D01*
X028084Y011207D01*
X028025Y011220D01*
X027966Y011236D01*
X027909Y011256D01*
X027854Y011279D01*
X027799Y011306D01*
X027747Y011335D01*
X027696Y011368D01*
X027647Y011404D01*
X027601Y011442D01*
X027557Y011484D01*
X027515Y011528D01*
X027477Y011574D01*
X027441Y011623D01*
X027408Y011674D01*
X027379Y011726D01*
X027352Y011781D01*
X027329Y011836D01*
X027309Y011893D01*
X027293Y011952D01*
X027280Y012011D01*
X027271Y012070D01*
X027266Y012131D01*
X027264Y012191D01*
X002764Y012191D01*
X002762Y012131D01*
X002757Y012070D01*
X002748Y012011D01*
X002735Y011952D01*
X002719Y011893D01*
X002699Y011836D01*
X002676Y011781D01*
X002649Y011726D01*
X002620Y011674D01*
X002587Y011623D01*
X002551Y011574D01*
X002513Y011528D01*
X002471Y011484D01*
X002427Y011442D01*
X002381Y011404D01*
X002332Y011368D01*
X002281Y011335D01*
X002229Y011306D01*
X002174Y011279D01*
X002119Y011256D01*
X002062Y011236D01*
X002003Y011220D01*
X001944Y011207D01*
X001885Y011198D01*
X001824Y011193D01*
X001764Y011191D01*
X001764Y001191D01*
M02*
