G75*
G70*
%OFA0B0*%
%FSLAX24Y24*%
%IPPOS*%
%LPD*%
%AMOC8*
5,1,8,0,0,1.08239X$1,22.5*
%
%ADD10C,0.0050*%
%ADD11C,0.0070*%
%ADD12C,0.0080*%
%ADD13C,0.0080*%
%ADD14C,0.0060*%
%ADD15C,0.0079*%
D10*
X008494Y005715D02*
X009281Y005715D01*
X009872Y006345D02*
X009872Y006424D01*
X009872Y006975D02*
X009872Y007054D01*
X008524Y007487D02*
X008526Y007505D01*
X008532Y007523D01*
X008541Y007539D01*
X008553Y007552D01*
X008568Y007563D01*
X008585Y007571D01*
X008603Y007575D01*
X008621Y007575D01*
X008639Y007571D01*
X008656Y007563D01*
X008671Y007552D01*
X008683Y007539D01*
X008692Y007523D01*
X008698Y007505D01*
X008700Y007487D01*
X008698Y007469D01*
X008692Y007451D01*
X008683Y007435D01*
X008671Y007422D01*
X008656Y007411D01*
X008639Y007403D01*
X008621Y007399D01*
X008603Y007399D01*
X008585Y007403D01*
X008568Y007411D01*
X008553Y007422D01*
X008541Y007435D01*
X008532Y007451D01*
X008526Y007469D01*
X008524Y007487D01*
X008494Y007684D02*
X009281Y007684D01*
X007903Y007054D02*
X007903Y006975D01*
X007903Y006424D02*
X007903Y006345D01*
X006238Y007299D02*
X006238Y008099D01*
X006194Y008560D02*
X005581Y008560D01*
X005581Y008839D01*
X006194Y008839D01*
X006194Y008560D01*
X006194Y009060D02*
X005581Y009060D01*
X005581Y009339D01*
X006194Y009339D01*
X006194Y009060D01*
X007199Y009060D02*
X007199Y009339D01*
X007576Y009339D01*
X007576Y009060D01*
X007199Y009060D01*
X007199Y008839D02*
X007199Y008560D01*
X007576Y008560D01*
X007576Y008839D01*
X007199Y008839D01*
X015521Y008695D02*
X015521Y006703D01*
X017254Y006703D01*
X017254Y008695D01*
X015521Y008695D01*
X015639Y008566D02*
X015641Y008574D01*
X015646Y008581D01*
X015653Y008585D01*
X015661Y008586D01*
X015669Y008583D01*
X015675Y008578D01*
X015679Y008570D01*
X015679Y008562D01*
X015675Y008554D01*
X015669Y008549D01*
X015661Y008546D01*
X015653Y008547D01*
X015646Y008551D01*
X015641Y008558D01*
X015639Y008566D01*
D11*
X014100Y008477D02*
X014100Y006922D01*
X010675Y006922D01*
X010675Y008477D01*
X014100Y008477D01*
X013529Y008093D02*
X013531Y008120D01*
X013537Y008147D01*
X013546Y008173D01*
X013559Y008197D01*
X013575Y008220D01*
X013594Y008239D01*
X013616Y008256D01*
X013640Y008270D01*
X013665Y008280D01*
X013692Y008287D01*
X013719Y008290D01*
X013747Y008289D01*
X013774Y008284D01*
X013800Y008276D01*
X013824Y008264D01*
X013847Y008248D01*
X013868Y008230D01*
X013885Y008209D01*
X013900Y008185D01*
X013911Y008160D01*
X013919Y008134D01*
X013923Y008107D01*
X013923Y008079D01*
X013919Y008052D01*
X013911Y008026D01*
X013900Y008001D01*
X013885Y007977D01*
X013868Y007956D01*
X013847Y007938D01*
X013825Y007922D01*
X013800Y007910D01*
X013774Y007902D01*
X013747Y007897D01*
X013719Y007896D01*
X013692Y007899D01*
X013665Y007906D01*
X013640Y007916D01*
X013616Y007930D01*
X013594Y007947D01*
X013575Y007966D01*
X013559Y007989D01*
X013546Y008013D01*
X013537Y008039D01*
X013531Y008066D01*
X013529Y008093D01*
D12*
X003828Y002368D02*
X003828Y002030D01*
X004282Y002518D02*
X004493Y002518D01*
X004948Y002368D02*
X004948Y002030D01*
X004482Y004129D02*
X004482Y004306D01*
X004482Y004129D02*
X006293Y004129D01*
X006293Y004306D01*
X005781Y004306D02*
X005781Y005093D01*
X006293Y005093D02*
X006293Y005270D01*
X004482Y005270D01*
X004482Y005093D01*
X004864Y005707D02*
X005021Y005589D01*
X005494Y005589D01*
X005021Y005589D01*
X004864Y005707D02*
X004864Y006672D01*
X005021Y006810D01*
X005494Y006810D01*
X005648Y006706D02*
X005648Y005683D01*
X006242Y005589D02*
X006911Y005589D01*
X006911Y006829D01*
X006242Y006829D01*
X005994Y007227D02*
X005561Y007227D01*
X005403Y007384D01*
X005403Y008014D01*
X005561Y008172D01*
X005994Y008172D01*
X006781Y008172D02*
X007372Y008172D01*
X007372Y007227D01*
X006781Y007227D01*
X004688Y007099D02*
X004688Y009299D01*
X004588Y009399D01*
X002188Y009399D01*
X002088Y009299D01*
X002088Y007099D01*
X002188Y006999D01*
X002288Y006999D01*
X004588Y006999D01*
X004688Y007099D01*
X003138Y008199D02*
X003140Y008212D01*
X003145Y008225D01*
X003154Y008236D01*
X003165Y008243D01*
X003178Y008248D01*
X003191Y008249D01*
X003205Y008246D01*
X003217Y008240D01*
X003227Y008231D01*
X003234Y008219D01*
X003238Y008206D01*
X003238Y008192D01*
X003234Y008179D01*
X003227Y008167D01*
X003217Y008158D01*
X003205Y008152D01*
X003191Y008149D01*
X003178Y008150D01*
X003165Y008155D01*
X003154Y008162D01*
X003145Y008173D01*
X003140Y008186D01*
X003138Y008199D01*
X018688Y008104D02*
X018688Y007299D01*
X019188Y007699D02*
X019190Y007751D01*
X019196Y007803D01*
X019206Y007855D01*
X019219Y007905D01*
X019236Y007955D01*
X019257Y008003D01*
X019282Y008049D01*
X019310Y008093D01*
X019341Y008135D01*
X019375Y008175D01*
X019412Y008212D01*
X019452Y008246D01*
X019494Y008277D01*
X019538Y008305D01*
X019584Y008330D01*
X019632Y008351D01*
X019682Y008368D01*
X019732Y008381D01*
X019784Y008391D01*
X019836Y008397D01*
X019888Y008399D01*
X019940Y008397D01*
X019992Y008391D01*
X020044Y008381D01*
X020094Y008368D01*
X020144Y008351D01*
X020192Y008330D01*
X020238Y008305D01*
X020282Y008277D01*
X020324Y008246D01*
X020364Y008212D01*
X020401Y008175D01*
X020435Y008135D01*
X020466Y008093D01*
X020494Y008049D01*
X020519Y008003D01*
X020540Y007955D01*
X020557Y007905D01*
X020570Y007855D01*
X020580Y007803D01*
X020586Y007751D01*
X020588Y007699D01*
X020586Y007647D01*
X020580Y007595D01*
X020570Y007543D01*
X020557Y007493D01*
X020540Y007443D01*
X020519Y007395D01*
X020494Y007349D01*
X020466Y007305D01*
X020435Y007263D01*
X020401Y007223D01*
X020364Y007186D01*
X020324Y007152D01*
X020282Y007121D01*
X020238Y007093D01*
X020192Y007068D01*
X020144Y007047D01*
X020094Y007030D01*
X020044Y007017D01*
X019992Y007007D01*
X019940Y007001D01*
X019888Y006999D01*
X019836Y007001D01*
X019784Y007007D01*
X019732Y007017D01*
X019682Y007030D01*
X019632Y007047D01*
X019584Y007068D01*
X019538Y007093D01*
X019494Y007121D01*
X019452Y007152D01*
X019412Y007186D01*
X019375Y007223D01*
X019341Y007263D01*
X019310Y007305D01*
X019282Y007349D01*
X019257Y007395D01*
X019236Y007443D01*
X019219Y007493D01*
X019206Y007543D01*
X019196Y007595D01*
X019190Y007647D01*
X019188Y007699D01*
X021088Y008092D02*
X021088Y007299D01*
X020738Y006499D02*
X019038Y006499D01*
X019482Y006270D02*
X021293Y006270D01*
X021293Y006093D01*
X019994Y006093D02*
X019994Y005306D01*
X019482Y005306D02*
X019482Y005129D01*
X021293Y005129D01*
X021293Y005306D01*
X019482Y006093D02*
X019482Y006270D01*
X021979Y007699D02*
X021981Y007793D01*
X021988Y007886D01*
X022000Y007979D01*
X022016Y008071D01*
X022036Y008163D01*
X022061Y008253D01*
X022091Y008342D01*
X022124Y008430D01*
X022162Y008515D01*
X022204Y008599D01*
X022251Y008680D01*
X022301Y008760D01*
X022355Y008836D01*
X022412Y008910D01*
X022474Y008981D01*
X022538Y009049D01*
X022606Y009113D01*
X022677Y009175D01*
X022751Y009232D01*
X022827Y009286D01*
X022907Y009336D01*
X022988Y009383D01*
X023072Y009425D01*
X023157Y009463D01*
X023245Y009496D01*
X023334Y009526D01*
X023424Y009551D01*
X023516Y009571D01*
X023608Y009587D01*
X023701Y009599D01*
X023794Y009606D01*
X023888Y009608D01*
X023982Y009606D01*
X024075Y009599D01*
X024168Y009587D01*
X024260Y009571D01*
X024352Y009551D01*
X024442Y009526D01*
X024531Y009496D01*
X024619Y009463D01*
X024704Y009425D01*
X024788Y009383D01*
X024869Y009336D01*
X024949Y009286D01*
X025025Y009232D01*
X025099Y009175D01*
X025170Y009113D01*
X025238Y009049D01*
X025302Y008981D01*
X025364Y008910D01*
X025421Y008836D01*
X025475Y008760D01*
X025525Y008680D01*
X025572Y008599D01*
X025614Y008515D01*
X025652Y008430D01*
X025685Y008342D01*
X025715Y008253D01*
X025740Y008163D01*
X025760Y008071D01*
X025776Y007979D01*
X025788Y007886D01*
X025795Y007793D01*
X025797Y007699D01*
X025795Y007605D01*
X025788Y007512D01*
X025776Y007419D01*
X025760Y007327D01*
X025740Y007235D01*
X025715Y007145D01*
X025685Y007056D01*
X025652Y006968D01*
X025614Y006883D01*
X025572Y006799D01*
X025525Y006718D01*
X025475Y006638D01*
X025421Y006562D01*
X025364Y006488D01*
X025302Y006417D01*
X025238Y006349D01*
X025170Y006285D01*
X025099Y006223D01*
X025025Y006166D01*
X024949Y006112D01*
X024869Y006062D01*
X024788Y006015D01*
X024704Y005973D01*
X024619Y005935D01*
X024531Y005902D01*
X024442Y005872D01*
X024352Y005847D01*
X024260Y005827D01*
X024168Y005811D01*
X024075Y005799D01*
X023982Y005792D01*
X023888Y005790D01*
X023794Y005792D01*
X023701Y005799D01*
X023608Y005811D01*
X023516Y005827D01*
X023424Y005847D01*
X023334Y005872D01*
X023245Y005902D01*
X023157Y005935D01*
X023072Y005973D01*
X022988Y006015D01*
X022907Y006062D01*
X022827Y006112D01*
X022751Y006166D01*
X022677Y006223D01*
X022606Y006285D01*
X022538Y006349D01*
X022474Y006417D01*
X022412Y006488D01*
X022355Y006562D01*
X022301Y006638D01*
X022251Y006718D01*
X022204Y006799D01*
X022162Y006883D01*
X022124Y006968D01*
X022091Y007056D01*
X022061Y007145D01*
X022036Y007235D01*
X022016Y007327D01*
X022000Y007419D01*
X021988Y007512D01*
X021981Y007605D01*
X021979Y007699D01*
X020738Y008899D02*
X019038Y008899D01*
D13*
X023138Y006699D02*
X023638Y006699D01*
D14*
X010388Y007849D02*
X010238Y007699D01*
X008538Y007699D01*
X008388Y007849D01*
X008388Y008549D01*
X008538Y008699D01*
X008388Y008849D01*
X008388Y009549D01*
X008538Y009699D01*
X010238Y009699D01*
X010388Y009549D01*
X010388Y008849D01*
X010238Y008699D01*
X010388Y008549D01*
X010388Y007849D01*
X009888Y005199D02*
X009138Y005199D01*
X009136Y005169D01*
X009131Y005139D01*
X009122Y005110D01*
X009109Y005083D01*
X009094Y005057D01*
X009075Y005033D01*
X009054Y005012D01*
X009030Y004993D01*
X009004Y004978D01*
X008977Y004965D01*
X008948Y004956D01*
X008918Y004951D01*
X008888Y004949D01*
X008858Y004951D01*
X008828Y004956D01*
X008799Y004965D01*
X008772Y004978D01*
X008746Y004993D01*
X008722Y005012D01*
X008701Y005033D01*
X008682Y005057D01*
X008667Y005083D01*
X008654Y005110D01*
X008645Y005139D01*
X008640Y005169D01*
X008638Y005199D01*
X007888Y005199D01*
X007888Y001199D01*
X009888Y001199D01*
X009888Y005199D01*
D15*
X006006Y008581D02*
X006006Y008817D01*
X006006Y009081D02*
X006006Y009317D01*
M02*
