G75*
G70*
%OFA0B0*%
%FSLAX24Y24*%
%IPPOS*%
%LPD*%
%AMOC8*
5,1,8,0,0,1.08239X$1,22.5*
%
%ADD10C,0.0040*%
%ADD11C,0.0100*%
%ADD12C,0.0120*%
%ADD13C,0.0050*%
D10*
X009805Y005635D02*
X009882Y005558D01*
X009958Y005558D01*
X009805Y005635D02*
X009805Y006018D01*
X010112Y006018D02*
X010112Y005788D01*
X010035Y005711D01*
X009805Y005711D01*
X009651Y005711D02*
X009575Y005711D01*
X009575Y005788D01*
X009651Y005788D01*
X009651Y005711D01*
X010265Y005711D02*
X010419Y005711D01*
X010342Y005711D02*
X010342Y006172D01*
X010419Y006172D01*
X010572Y006172D02*
X010649Y006095D01*
X010649Y005711D01*
X010726Y005942D02*
X010572Y005942D01*
X010879Y005942D02*
X010879Y005865D01*
X011186Y005865D01*
X011186Y005942D02*
X011109Y006018D01*
X010956Y006018D01*
X010879Y005942D01*
X011186Y005942D02*
X011186Y005788D01*
X011109Y005711D01*
X010956Y005711D01*
X011416Y006018D02*
X011570Y005865D01*
X011570Y006018D02*
X011570Y005711D01*
X011723Y005711D02*
X011876Y005711D01*
X011800Y005711D02*
X011800Y006018D01*
X011876Y006018D01*
X011800Y006172D02*
X011800Y006249D01*
X012030Y006172D02*
X012337Y006172D01*
X012337Y005711D01*
X012337Y005942D02*
X012183Y005942D01*
X011416Y006018D02*
X011339Y006018D01*
X012951Y005788D02*
X012951Y005711D01*
X013027Y005711D01*
X013027Y005788D01*
X012951Y005788D01*
X013181Y005711D02*
X013488Y005711D01*
X013641Y005711D02*
X013948Y005711D01*
X013795Y005711D02*
X013795Y006172D01*
X013948Y006018D01*
X014102Y006095D02*
X014408Y005788D01*
X014332Y005711D01*
X014178Y005711D01*
X014102Y005788D01*
X014102Y006095D01*
X014178Y006172D01*
X014332Y006172D01*
X014408Y006095D01*
X014408Y005788D01*
X014562Y005711D02*
X014869Y005711D01*
X014562Y006018D01*
X014562Y006095D01*
X014639Y006172D01*
X014792Y006172D01*
X014869Y006095D01*
X013488Y006018D02*
X013334Y006172D01*
X013334Y005711D01*
X008961Y006018D02*
X008808Y005711D01*
X008654Y006018D01*
X008501Y005942D02*
X008424Y006018D01*
X008270Y006018D01*
X008194Y005942D01*
X008194Y005865D01*
X008501Y005865D01*
X008501Y005788D02*
X008501Y005942D01*
X008501Y005788D02*
X008424Y005711D01*
X008270Y005711D01*
X008040Y005711D02*
X008040Y006018D01*
X008040Y005865D02*
X007887Y006018D01*
X007810Y006018D01*
X007657Y005942D02*
X007580Y006018D01*
X007350Y006018D01*
X007196Y006018D02*
X007120Y006018D01*
X007120Y005711D01*
X007196Y005711D02*
X007043Y005711D01*
X006889Y005788D02*
X006813Y005711D01*
X006659Y005711D01*
X006583Y005788D01*
X006583Y005942D01*
X006659Y006018D01*
X006813Y006018D01*
X006889Y005942D01*
X006889Y005788D01*
X007350Y005788D02*
X007426Y005865D01*
X007580Y005865D01*
X007657Y005942D01*
X007426Y005711D02*
X007350Y005788D01*
X007426Y005711D02*
X007657Y005711D01*
X007120Y006172D02*
X007120Y006249D01*
X006429Y006018D02*
X006199Y006018D01*
X006122Y005942D01*
X006122Y005711D01*
X006429Y005711D02*
X006429Y006018D01*
X005508Y006018D02*
X005355Y006172D01*
X005355Y005711D01*
X005508Y005711D02*
X005201Y005711D01*
D11*
X005114Y005891D02*
X005114Y002091D01*
X008864Y002091D01*
X008864Y003141D01*
X008864Y004841D02*
X008864Y005891D01*
X005114Y005891D01*
X022664Y005891D02*
X022664Y004841D01*
X022664Y005891D02*
X026414Y005891D01*
X026414Y002091D01*
X022664Y002091D01*
X022664Y003141D01*
D12*
X021210Y003698D02*
X021210Y004285D01*
X020917Y003992D02*
X021504Y003992D01*
X010704Y003992D02*
X010117Y003992D01*
D13*
X009764Y006316D02*
X007764Y008816D01*
X007841Y008452D01*
X007960Y008100D01*
X008120Y007763D01*
X008317Y007447D01*
X008549Y007157D01*
X008814Y006895D01*
X009107Y006666D01*
X009425Y006472D01*
X009764Y006316D01*
X009732Y006356D02*
X009677Y006356D01*
X009693Y006405D02*
X009571Y006405D01*
X009654Y006454D02*
X009465Y006454D01*
X009376Y006502D02*
X009615Y006502D01*
X009576Y006551D02*
X009296Y006551D01*
X009216Y006599D02*
X009538Y006599D01*
X009499Y006648D02*
X009137Y006648D01*
X009068Y006696D02*
X009460Y006696D01*
X009421Y006745D02*
X009006Y006745D01*
X008991Y006791D02*
X008767Y006605D01*
X008524Y006446D01*
X008264Y006316D01*
X009764Y008316D01*
X009712Y008030D01*
X009628Y007752D01*
X009512Y007486D01*
X009366Y007234D01*
X009191Y007002D01*
X008991Y006791D01*
X008993Y006793D02*
X008621Y006793D01*
X008585Y006745D02*
X008935Y006745D01*
X008944Y006793D02*
X009382Y006793D01*
X009343Y006842D02*
X008882Y006842D01*
X008820Y006890D02*
X009305Y006890D01*
X009266Y006939D02*
X008769Y006939D01*
X008731Y006939D02*
X009132Y006939D01*
X009178Y006988D02*
X008767Y006988D01*
X008720Y006988D02*
X009227Y006988D01*
X009217Y007036D02*
X008803Y007036D01*
X008840Y007085D02*
X009253Y007085D01*
X009290Y007133D02*
X008876Y007133D01*
X008913Y007182D02*
X009326Y007182D01*
X009363Y007230D02*
X008949Y007230D01*
X008986Y007279D02*
X009391Y007279D01*
X009420Y007327D02*
X009022Y007327D01*
X008994Y007279D02*
X008452Y007279D01*
X008490Y007230D02*
X009033Y007230D01*
X009072Y007182D02*
X008529Y007182D01*
X008573Y007133D02*
X009110Y007133D01*
X009149Y007085D02*
X008622Y007085D01*
X008671Y007036D02*
X009188Y007036D01*
X009085Y006890D02*
X008694Y006890D01*
X008658Y006842D02*
X009039Y006842D01*
X008877Y006696D02*
X008549Y006696D01*
X008512Y006648D02*
X008819Y006648D01*
X008759Y006599D02*
X008476Y006599D01*
X008439Y006551D02*
X008684Y006551D01*
X008610Y006502D02*
X008403Y006502D01*
X008367Y006454D02*
X008536Y006454D01*
X008442Y006405D02*
X008330Y006405D01*
X008344Y006356D02*
X008294Y006356D01*
X007764Y006316D02*
X006264Y008316D01*
X006315Y008030D01*
X006400Y007752D01*
X006516Y007486D01*
X006662Y007234D01*
X006836Y007002D01*
X007037Y006791D01*
X007260Y006605D01*
X007504Y006446D01*
X007764Y006316D01*
X007734Y006356D02*
X007683Y006356D01*
X007697Y006405D02*
X007586Y006405D01*
X007661Y006454D02*
X007492Y006454D01*
X007418Y006502D02*
X007625Y006502D01*
X007588Y006551D02*
X007343Y006551D01*
X007269Y006599D02*
X007552Y006599D01*
X007515Y006648D02*
X007209Y006648D01*
X007150Y006696D02*
X007479Y006696D01*
X007443Y006745D02*
X007092Y006745D01*
X007034Y006793D02*
X007406Y006793D01*
X007370Y006842D02*
X006988Y006842D01*
X006942Y006890D02*
X007333Y006890D01*
X007297Y006939D02*
X006896Y006939D01*
X006856Y006939D02*
X007010Y006939D01*
X007024Y006946D02*
X006764Y006816D01*
X008264Y008816D01*
X008212Y008530D01*
X008128Y008252D01*
X008012Y007986D01*
X007866Y007734D01*
X007691Y007502D01*
X007491Y007291D01*
X007267Y007105D01*
X007024Y006946D01*
X007088Y006988D02*
X006892Y006988D01*
X006850Y006988D02*
X007260Y006988D01*
X007224Y007036D02*
X006811Y007036D01*
X006774Y007085D02*
X007188Y007085D01*
X007236Y007085D02*
X006965Y007085D01*
X007001Y007133D02*
X007301Y007133D01*
X007360Y007182D02*
X007038Y007182D01*
X007074Y007230D02*
X007418Y007230D01*
X007476Y007279D02*
X007111Y007279D01*
X007078Y007230D02*
X006665Y007230D01*
X006636Y007279D02*
X007042Y007279D01*
X007006Y007327D02*
X006608Y007327D01*
X006580Y007376D02*
X006969Y007376D01*
X006933Y007424D02*
X006551Y007424D01*
X006523Y007473D02*
X006896Y007473D01*
X006860Y007522D02*
X006500Y007522D01*
X006527Y007522D02*
X006168Y007522D01*
X006204Y007570D02*
X006549Y007570D01*
X006570Y007619D02*
X006240Y007619D01*
X006277Y007667D02*
X006591Y007667D01*
X006612Y007716D02*
X006313Y007716D01*
X006350Y007764D02*
X006632Y007764D01*
X006628Y007752D02*
X006512Y007486D01*
X006366Y007234D01*
X006191Y007002D01*
X005991Y006791D01*
X005767Y006605D01*
X005524Y006446D01*
X005264Y006316D01*
X006764Y008316D01*
X006712Y008030D01*
X006628Y007752D01*
X006678Y007764D02*
X006396Y007764D01*
X006386Y007813D02*
X006646Y007813D01*
X006642Y007813D02*
X006381Y007813D01*
X006367Y007861D02*
X006605Y007861D01*
X006661Y007861D02*
X006422Y007861D01*
X006459Y007910D02*
X006676Y007910D01*
X006690Y007958D02*
X006495Y007958D01*
X006532Y007958D02*
X006337Y007958D01*
X006352Y007910D02*
X006569Y007910D01*
X006532Y008007D02*
X006705Y008007D01*
X006717Y008056D02*
X006568Y008056D01*
X006604Y008104D02*
X006726Y008104D01*
X006734Y008153D02*
X006641Y008153D01*
X006677Y008201D02*
X006743Y008201D01*
X006752Y008250D02*
X006714Y008250D01*
X006750Y008298D02*
X006761Y008298D01*
X006387Y008153D02*
X006293Y008153D01*
X006285Y008201D02*
X006350Y008201D01*
X006314Y008250D02*
X006276Y008250D01*
X006267Y008298D02*
X006277Y008298D01*
X006302Y008104D02*
X006423Y008104D01*
X006459Y008056D02*
X006311Y008056D01*
X006322Y008007D02*
X006496Y008007D01*
X006416Y007716D02*
X006714Y007716D01*
X006751Y007667D02*
X006437Y007667D01*
X006458Y007619D02*
X006787Y007619D01*
X006824Y007570D02*
X006479Y007570D01*
X006504Y007473D02*
X006131Y007473D01*
X006095Y007424D02*
X006476Y007424D01*
X006448Y007376D02*
X006058Y007376D01*
X006022Y007327D02*
X006420Y007327D01*
X006391Y007279D02*
X005986Y007279D01*
X005949Y007230D02*
X006363Y007230D01*
X006326Y007182D02*
X005913Y007182D01*
X005876Y007133D02*
X006290Y007133D01*
X006253Y007085D02*
X005840Y007085D01*
X005803Y007036D02*
X006217Y007036D01*
X006178Y006988D02*
X005767Y006988D01*
X005731Y006939D02*
X006132Y006939D01*
X006085Y006890D02*
X005694Y006890D01*
X005658Y006842D02*
X006039Y006842D01*
X005993Y006793D02*
X005621Y006793D01*
X005585Y006745D02*
X005935Y006745D01*
X005877Y006696D02*
X005549Y006696D01*
X005512Y006648D02*
X005819Y006648D01*
X005759Y006599D02*
X005476Y006599D01*
X005439Y006551D02*
X005684Y006551D01*
X005610Y006502D02*
X005403Y006502D01*
X005367Y006454D02*
X005536Y006454D01*
X005442Y006405D02*
X005330Y006405D01*
X005344Y006356D02*
X005294Y006356D01*
X006783Y006842D02*
X006815Y006842D01*
X006819Y006890D02*
X006912Y006890D01*
X006928Y007036D02*
X007162Y007036D01*
X007151Y007133D02*
X006738Y007133D01*
X006701Y007182D02*
X007115Y007182D01*
X007147Y007327D02*
X007525Y007327D01*
X007572Y007376D02*
X007183Y007376D01*
X007220Y007424D02*
X007618Y007424D01*
X007664Y007473D02*
X007256Y007473D01*
X007293Y007522D02*
X007706Y007522D01*
X007742Y007570D02*
X007329Y007570D01*
X007365Y007619D02*
X007779Y007619D01*
X007815Y007667D02*
X007402Y007667D01*
X007438Y007716D02*
X007852Y007716D01*
X007883Y007764D02*
X007475Y007764D01*
X007511Y007813D02*
X007911Y007813D01*
X007939Y007861D02*
X007547Y007861D01*
X007584Y007910D02*
X007968Y007910D01*
X007996Y007958D02*
X007620Y007958D01*
X007657Y008007D02*
X008021Y008007D01*
X008004Y008007D02*
X008411Y008007D01*
X008373Y008056D02*
X007981Y008056D01*
X007959Y008104D02*
X008334Y008104D01*
X008295Y008153D02*
X007942Y008153D01*
X007926Y008201D02*
X008256Y008201D01*
X008217Y008250D02*
X007910Y008250D01*
X007893Y008298D02*
X008178Y008298D01*
X008142Y008298D02*
X007875Y008298D01*
X007877Y008347D02*
X008140Y008347D01*
X008157Y008347D02*
X007911Y008347D01*
X007948Y008395D02*
X008171Y008395D01*
X008186Y008444D02*
X007984Y008444D01*
X008021Y008492D02*
X008201Y008492D01*
X008214Y008541D02*
X008057Y008541D01*
X008023Y008492D02*
X007833Y008492D01*
X007844Y008444D02*
X008062Y008444D01*
X008101Y008395D02*
X007860Y008395D01*
X007839Y008250D02*
X008127Y008250D01*
X008106Y008201D02*
X007802Y008201D01*
X007766Y008153D02*
X008085Y008153D01*
X008063Y008104D02*
X007729Y008104D01*
X007693Y008056D02*
X008042Y008056D01*
X008027Y007958D02*
X008450Y007958D01*
X008489Y007910D02*
X008050Y007910D01*
X008073Y007861D02*
X008528Y007861D01*
X008567Y007813D02*
X008096Y007813D01*
X008119Y007764D02*
X008606Y007764D01*
X008644Y007716D02*
X008149Y007716D01*
X008179Y007667D02*
X008683Y007667D01*
X008722Y007619D02*
X008210Y007619D01*
X008240Y007570D02*
X008761Y007570D01*
X008800Y007522D02*
X008270Y007522D01*
X008301Y007473D02*
X008839Y007473D01*
X008877Y007424D02*
X008335Y007424D01*
X008374Y007376D02*
X008916Y007376D01*
X008955Y007327D02*
X008413Y007327D01*
X009058Y007376D02*
X009448Y007376D01*
X009476Y007424D02*
X009095Y007424D01*
X009131Y007473D02*
X009504Y007473D01*
X009516Y007486D02*
X009400Y007752D01*
X009315Y008030D01*
X009264Y008316D01*
X010764Y006316D01*
X010504Y006446D01*
X010260Y006605D01*
X010037Y006791D01*
X009836Y007002D01*
X009662Y007234D01*
X009516Y007486D01*
X009523Y007473D02*
X009896Y007473D01*
X009860Y007522D02*
X009500Y007522D01*
X009527Y007522D02*
X009168Y007522D01*
X009204Y007570D02*
X009549Y007570D01*
X009570Y007619D02*
X009240Y007619D01*
X009277Y007667D02*
X009591Y007667D01*
X009612Y007716D02*
X009313Y007716D01*
X009350Y007764D02*
X009632Y007764D01*
X009678Y007764D02*
X009396Y007764D01*
X009386Y007813D02*
X009646Y007813D01*
X009642Y007813D02*
X009381Y007813D01*
X009367Y007861D02*
X009605Y007861D01*
X009661Y007861D02*
X009422Y007861D01*
X009459Y007910D02*
X009676Y007910D01*
X009690Y007958D02*
X009495Y007958D01*
X009532Y007958D02*
X009337Y007958D01*
X009352Y007910D02*
X009569Y007910D01*
X009532Y008007D02*
X009705Y008007D01*
X009717Y008056D02*
X009568Y008056D01*
X009604Y008104D02*
X009726Y008104D01*
X009734Y008153D02*
X009641Y008153D01*
X009677Y008201D02*
X009743Y008201D01*
X009752Y008250D02*
X009714Y008250D01*
X009750Y008298D02*
X009761Y008298D01*
X009387Y008153D02*
X009293Y008153D01*
X009285Y008201D02*
X009350Y008201D01*
X009314Y008250D02*
X009276Y008250D01*
X009267Y008298D02*
X009277Y008298D01*
X009302Y008104D02*
X009423Y008104D01*
X009459Y008056D02*
X009311Y008056D01*
X009322Y008007D02*
X009496Y008007D01*
X009416Y007716D02*
X009714Y007716D01*
X009751Y007667D02*
X009437Y007667D01*
X009458Y007619D02*
X009787Y007619D01*
X009824Y007570D02*
X009479Y007570D01*
X009551Y007424D02*
X009933Y007424D01*
X009969Y007376D02*
X009580Y007376D01*
X009608Y007327D02*
X010006Y007327D01*
X010042Y007279D02*
X009636Y007279D01*
X009665Y007230D02*
X010078Y007230D01*
X010115Y007182D02*
X009701Y007182D01*
X009738Y007133D02*
X010151Y007133D01*
X010188Y007085D02*
X009774Y007085D01*
X009811Y007036D02*
X010224Y007036D01*
X010260Y006988D02*
X009850Y006988D01*
X009896Y006939D02*
X010297Y006939D01*
X010333Y006890D02*
X009942Y006890D01*
X009988Y006842D02*
X010370Y006842D01*
X010406Y006793D02*
X010034Y006793D01*
X010092Y006745D02*
X010443Y006745D01*
X010479Y006696D02*
X010150Y006696D01*
X010209Y006648D02*
X010515Y006648D01*
X010552Y006599D02*
X010269Y006599D01*
X010343Y006551D02*
X010588Y006551D01*
X010625Y006502D02*
X010418Y006502D01*
X010492Y006454D02*
X010661Y006454D01*
X010697Y006405D02*
X010586Y006405D01*
X010683Y006356D02*
X010734Y006356D01*
X008223Y008589D02*
X008094Y008589D01*
X008130Y008638D02*
X008232Y008638D01*
X008240Y008687D02*
X008166Y008687D01*
X008203Y008735D02*
X008249Y008735D01*
X008258Y008784D02*
X008239Y008784D01*
X007984Y008541D02*
X007822Y008541D01*
X007812Y008589D02*
X007945Y008589D01*
X007907Y008638D02*
X007802Y008638D01*
X007791Y008687D02*
X007868Y008687D01*
X007829Y008735D02*
X007781Y008735D01*
X007790Y008784D02*
X007771Y008784D01*
M02*
