G75*
G70*
%OFA0B0*%
%FSLAX24Y24*%
%IPPOS*%
%LPD*%
%AMOC8*
5,1,8,0,0,1.08239X$1,22.5*
%
%ADD10R,0.0472X0.0118*%
%ADD11R,0.0197X0.0472*%
%ADD12R,0.0512X0.0630*%
%ADD13R,0.0512X0.0591*%
%ADD14R,0.0591X0.0512*%
%ADD15R,0.0236X0.0866*%
%ADD16R,0.0579X0.0500*%
%ADD17R,0.0787X0.0551*%
%ADD18R,0.0787X0.0394*%
%ADD19C,0.0630*%
%ADD20C,0.0740*%
%ADD21R,0.0630X0.0512*%
%ADD22R,0.0472X0.0217*%
%ADD23R,0.0846X0.2165*%
%ADD24R,0.0551X0.0630*%
%ADD25R,0.0472X0.0984*%
%ADD26R,0.0500X0.0579*%
%ADD27C,0.0515*%
%ADD28C,0.0709*%
%ADD29C,0.1095*%
%ADD30C,0.0520*%
%ADD31R,0.0472X0.0551*%
%ADD32C,0.0600*%
%ADD33C,0.0100*%
%ADD34OC8,0.0400*%
%ADD35C,0.0197*%
D10*
X014722Y007924D03*
X014722Y008180D03*
X014722Y008436D03*
X014722Y008691D03*
X014722Y008947D03*
X014722Y009203D03*
X014722Y009459D03*
X017006Y009459D03*
X017006Y009203D03*
X017006Y008947D03*
X017006Y008691D03*
X017006Y008436D03*
X017006Y008180D03*
X017006Y007924D03*
D11*
X014764Y007024D03*
X014264Y007024D03*
X013764Y007024D03*
X013264Y007024D03*
X012764Y007024D03*
X012264Y007024D03*
X011764Y007024D03*
X011764Y004859D03*
X012264Y004859D03*
X012764Y004859D03*
X013264Y004859D03*
X013764Y004859D03*
X014264Y004859D03*
X014764Y004859D03*
D12*
X014513Y003441D03*
X013765Y003441D03*
X012638Y003441D03*
X011890Y003441D03*
X011890Y002191D03*
X012638Y002191D03*
X013765Y002191D03*
X014513Y002191D03*
X015640Y002191D03*
X016388Y002191D03*
X016388Y003441D03*
X015640Y003441D03*
X017515Y003441D03*
X018263Y003441D03*
X009638Y009191D03*
X008890Y009191D03*
X008890Y010191D03*
X009638Y010191D03*
D13*
X020554Y006691D03*
X021223Y006691D03*
X021098Y005441D03*
X020429Y005441D03*
X018223Y002191D03*
X017554Y002191D03*
D14*
X017389Y005857D03*
X017389Y006526D03*
D15*
X019514Y003965D03*
X020014Y003965D03*
X020514Y003965D03*
X021014Y003965D03*
X021014Y001918D03*
X020514Y001918D03*
X020014Y001918D03*
X019514Y001918D03*
D16*
X019014Y005220D03*
X019014Y006913D03*
D17*
X009880Y006483D03*
X008148Y006483D03*
X008148Y007900D03*
X009880Y007900D03*
D18*
X009880Y007191D03*
X008148Y007191D03*
D19*
X023476Y007391D03*
X023476Y006391D03*
D20*
X021044Y008176D03*
X018484Y008176D03*
X018484Y009956D03*
X021044Y009956D03*
X013544Y010081D03*
X010984Y010081D03*
X010984Y008301D03*
X013544Y008301D03*
D21*
X015889Y006566D03*
X015889Y005817D03*
D22*
X005901Y002941D03*
X004877Y002941D03*
X004877Y002566D03*
X004877Y002192D03*
X005901Y002192D03*
D23*
X004520Y008691D03*
X003008Y008691D03*
D24*
X006088Y008191D03*
X007190Y008191D03*
D25*
X007038Y006816D03*
X005739Y006816D03*
D26*
X006235Y005316D03*
X004542Y005316D03*
D27*
X003282Y004729D03*
X002495Y004729D03*
X002495Y003941D03*
X003282Y003941D03*
X003282Y003154D03*
X002495Y003154D03*
D28*
X002889Y002130D03*
X002889Y005753D03*
D29*
X005864Y003991D03*
X008764Y003991D03*
X022764Y003991D03*
X025664Y003991D03*
D30*
X010649Y003691D02*
X010129Y003691D01*
X010129Y004691D02*
X010649Y004691D01*
X007649Y004691D02*
X007129Y004691D01*
X007129Y003691D02*
X007649Y003691D01*
X007649Y002691D02*
X007129Y002691D01*
X007129Y001691D02*
X007649Y001691D01*
X010129Y001691D02*
X010649Y001691D01*
X010649Y002691D02*
X010129Y002691D01*
D31*
X007354Y009191D03*
X006173Y009191D03*
X006173Y010191D03*
X007354Y010191D03*
D32*
X022014Y009991D02*
X022014Y009391D01*
X023014Y009391D02*
X023014Y009991D01*
X024014Y009991D02*
X024014Y009391D01*
X025014Y009391D02*
X025014Y009991D01*
X026014Y009991D02*
X026014Y009391D01*
D33*
X026014Y009691D02*
X025964Y009691D01*
X024964Y010691D01*
X016864Y010691D01*
X016464Y010291D01*
X015264Y009291D02*
X015564Y008991D01*
X016964Y008991D01*
X017006Y008947D01*
X017264Y008691D02*
X017664Y009091D01*
X017264Y008691D02*
X017006Y008691D01*
X017064Y008491D02*
X017006Y008436D01*
X017064Y008491D02*
X018064Y008491D01*
X018264Y008691D01*
X020064Y008691D01*
X021044Y008176D02*
X021064Y008191D01*
X021564Y008191D01*
X021564Y010191D01*
X021864Y010491D01*
X024164Y010491D01*
X024964Y009691D01*
X025014Y009691D01*
X024014Y009691D02*
X023964Y009691D01*
X023964Y004191D01*
X022964Y003191D01*
X018864Y003191D01*
X018864Y003891D01*
X017964Y004791D01*
X018064Y005191D02*
X018064Y005491D01*
X018064Y005191D02*
X016464Y005191D01*
X015864Y004591D01*
X015064Y003791D02*
X014964Y003891D01*
X013864Y003891D01*
X013864Y003491D01*
X013765Y003441D01*
X014564Y002191D02*
X015064Y002691D01*
X015964Y002691D01*
X016464Y002191D01*
X016388Y002191D01*
X016464Y002191D02*
X016864Y002191D01*
X016964Y002091D01*
X017364Y002291D02*
X017554Y002191D01*
X017464Y002191D01*
X017364Y002291D01*
X017864Y002791D01*
X018264Y002191D02*
X018564Y002491D01*
X018664Y002491D01*
X017864Y001691D01*
X015764Y001691D01*
X015564Y001491D01*
X013364Y001491D01*
X012664Y002191D01*
X012638Y002191D01*
X014513Y002191D02*
X014564Y002191D01*
X015064Y001891D02*
X015264Y001891D01*
X015564Y002191D01*
X015640Y002191D01*
X016064Y001491D02*
X019064Y001491D01*
X019464Y001891D01*
X019514Y001918D01*
X019964Y001891D02*
X020014Y001918D01*
X019964Y001891D02*
X019964Y001091D01*
X017964Y001091D01*
X016064Y001491D02*
X015764Y001191D01*
X018223Y002191D02*
X018264Y002191D01*
X018664Y002491D02*
X020264Y002491D01*
X020464Y002291D01*
X020464Y001991D01*
X020514Y001918D01*
X017364Y002291D02*
X016464Y003191D01*
X016464Y003391D01*
X016388Y003441D01*
X016964Y003791D02*
X017264Y003491D01*
X017464Y003491D01*
X017515Y003441D01*
X019064Y003391D02*
X019764Y003391D01*
X019964Y003591D01*
X019964Y003891D01*
X020014Y003965D01*
X020464Y003991D02*
X020514Y003965D01*
X020464Y003991D02*
X020464Y005391D01*
X020429Y005441D01*
X020364Y005391D01*
X019164Y005391D01*
X019064Y005291D01*
X019014Y005220D01*
X018964Y005191D01*
X018064Y005191D01*
X019064Y004591D02*
X019064Y003391D01*
X021014Y003965D02*
X021064Y003891D01*
X021464Y003891D01*
X015889Y005817D02*
X015864Y005891D01*
X015664Y006091D01*
X012264Y006091D01*
X012264Y007024D01*
X012764Y007024D02*
X012764Y006491D01*
X013264Y006991D02*
X013764Y006491D01*
X014464Y006491D01*
X014964Y006491D02*
X015464Y006991D01*
X015964Y006991D01*
X016164Y007191D01*
X016664Y007591D02*
X015264Y007591D01*
X014764Y007091D01*
X014764Y007024D01*
X014564Y007391D02*
X014264Y007091D01*
X014264Y007024D01*
X014564Y007391D02*
X014664Y007391D01*
X014664Y007891D01*
X014722Y007924D01*
X014722Y008180D02*
X014764Y008191D01*
X015164Y008191D01*
X015364Y007991D01*
X015764Y008391D02*
X016164Y007991D01*
X016664Y007591D02*
X016964Y007891D01*
X017006Y007924D01*
X017264Y008191D02*
X017464Y007991D01*
X017464Y006591D01*
X017389Y006526D01*
X017464Y006491D01*
X017664Y006291D01*
X018064Y006291D01*
X019064Y006291D02*
X019064Y006891D01*
X019014Y006913D01*
X017264Y008191D02*
X017064Y008191D01*
X017006Y008180D01*
X016464Y008391D02*
X016064Y008791D01*
X015164Y008791D01*
X015064Y008891D01*
X014764Y008891D01*
X014722Y008947D01*
X014664Y008991D01*
X009864Y008991D01*
X009664Y009191D01*
X009638Y009191D01*
X008890Y009191D02*
X007354Y009191D01*
X007354Y010191D02*
X008890Y010191D01*
X009638Y010191D02*
X009664Y010191D01*
X010664Y009191D01*
X014664Y009191D01*
X014722Y009203D01*
X014722Y008691D02*
X014464Y008691D01*
X014164Y008391D01*
X014164Y007991D01*
X014722Y008436D02*
X014764Y008391D01*
X015764Y008391D01*
X013264Y007024D02*
X013264Y006991D01*
X011664Y005991D02*
X011364Y005991D01*
X011664Y005991D02*
X012764Y004891D01*
X012764Y004859D01*
X012264Y004859D02*
X012264Y004891D01*
X011664Y005491D01*
X011364Y005491D01*
X011264Y005091D02*
X010864Y005491D01*
X011264Y005091D02*
X011564Y005091D01*
X011764Y004891D01*
X011764Y004859D01*
X011364Y004691D02*
X011364Y003491D01*
X011864Y003491D01*
X011890Y003441D01*
X009364Y002591D02*
X008864Y002591D01*
X006564Y003491D02*
X006464Y003491D01*
X005964Y002991D01*
X005901Y002941D01*
X003264Y004691D02*
X002564Y004691D01*
X002495Y004729D01*
X003264Y004691D02*
X003282Y004729D01*
X003364Y004791D01*
X003364Y005491D01*
X003464Y005591D01*
X003464Y008691D01*
X003064Y008691D01*
X003008Y008691D01*
X003064Y008691D02*
X003064Y008991D01*
X004064Y009991D01*
X005164Y009991D01*
X005164Y009091D01*
X006064Y008191D01*
X006088Y008191D01*
X004564Y008691D02*
X004520Y008691D01*
X004564Y008691D02*
X004564Y005391D01*
X004542Y005316D01*
X004564Y005391D02*
X005664Y005391D01*
X008148Y006483D02*
X008164Y006491D01*
X008964Y006491D01*
X009164Y006691D01*
X009880Y006483D02*
X009964Y006491D01*
X010664Y006491D01*
X010764Y006591D01*
X009164Y007191D02*
X008148Y007191D01*
D34*
X009164Y007191D03*
X009164Y006691D03*
X010764Y006591D03*
X011364Y005991D03*
X011364Y005491D03*
X010864Y005491D03*
X011364Y004691D03*
X013664Y005691D03*
X014464Y006491D03*
X014964Y006491D03*
X016164Y007191D03*
X016164Y007991D03*
X015364Y007991D03*
X016464Y008391D03*
X017664Y009091D03*
X017764Y009891D03*
X016464Y010291D03*
X015764Y009491D03*
X015264Y009291D03*
X013064Y009591D03*
X012064Y008591D03*
X014164Y007991D03*
X012764Y006491D03*
X015164Y004591D03*
X015864Y004591D03*
X015064Y003791D03*
X015064Y003191D03*
X016964Y003791D03*
X017964Y004791D03*
X019064Y004591D03*
X019764Y004991D03*
X018064Y005491D03*
X018064Y006291D03*
X019064Y006291D03*
X021764Y006991D03*
X020064Y008691D03*
X021464Y003891D03*
X017864Y002791D03*
X016964Y002091D03*
X015064Y001891D03*
X015764Y001191D03*
X017964Y001091D03*
X019064Y001491D03*
X009364Y002591D03*
X008864Y002591D03*
X006564Y003491D03*
X005664Y005391D03*
X006464Y006291D03*
D35*
X004364Y000691D02*
X022364Y000691D01*
X025664Y003991D01*
X021814Y006141D02*
X021164Y005491D01*
X021098Y005441D01*
X020364Y006191D02*
X020064Y005891D01*
X017464Y005891D01*
X017389Y005857D01*
X017364Y005891D01*
X017164Y006091D01*
X016464Y006091D01*
X016064Y006491D01*
X015964Y006491D01*
X015889Y006566D01*
X014764Y005691D02*
X014764Y004859D01*
X014764Y004791D01*
X014964Y004791D01*
X015164Y004591D01*
X013564Y004191D02*
X012764Y003391D01*
X012638Y003441D01*
X012764Y003191D01*
X011864Y002291D01*
X011890Y002191D01*
X011864Y002191D01*
X010364Y003691D01*
X010389Y003691D01*
X010364Y003691D02*
X009664Y003691D01*
X009664Y004791D01*
X007564Y004791D01*
X007464Y004691D01*
X007389Y004691D01*
X007464Y004791D01*
X007064Y004791D01*
X007064Y006791D01*
X007038Y006816D01*
X007064Y006891D01*
X007164Y006891D01*
X007164Y008191D01*
X007190Y008191D01*
X007264Y008191D01*
X006264Y009191D01*
X006173Y009191D01*
X006164Y009191D01*
X006164Y010191D01*
X006173Y010191D01*
X006264Y010191D01*
X006764Y010691D01*
X012864Y010691D01*
X013464Y010091D01*
X013544Y010081D01*
X013064Y009591D02*
X013164Y009491D01*
X014664Y009491D01*
X014722Y009459D01*
X014764Y009491D01*
X015164Y009891D01*
X017764Y009891D01*
X018164Y009491D02*
X017064Y009491D01*
X017006Y009459D01*
X016964Y009491D01*
X015764Y009491D01*
X018164Y009491D02*
X018264Y009391D01*
X020464Y009391D01*
X020464Y006691D01*
X020554Y006691D01*
X020564Y006691D01*
X020564Y006191D01*
X020364Y006191D01*
X020564Y006191D02*
X021764Y006191D01*
X021814Y006141D01*
X022064Y006391D01*
X023476Y006391D01*
X021764Y006991D02*
X021664Y006991D01*
X021614Y007041D01*
X021264Y006691D01*
X021223Y006691D01*
X021614Y007041D02*
X022164Y007591D01*
X022164Y009691D01*
X022014Y009691D01*
X021044Y009956D02*
X020964Y009891D01*
X020464Y009391D01*
X012064Y008591D02*
X010664Y007191D01*
X009880Y007191D01*
X009864Y007191D01*
X009864Y007791D01*
X009880Y007900D01*
X009864Y007891D01*
X008164Y007891D01*
X008148Y007900D01*
X006164Y006791D02*
X005764Y006791D01*
X005739Y006816D01*
X006164Y006791D02*
X006164Y006291D01*
X006464Y006291D01*
X006164Y006291D02*
X006164Y005391D01*
X006235Y005316D01*
X006164Y005291D01*
X005764Y004891D01*
X004964Y004891D01*
X004964Y002991D01*
X004877Y002941D01*
X004864Y002891D01*
X004864Y002591D01*
X004877Y002566D01*
X004364Y002891D02*
X004364Y000691D01*
X007389Y001691D02*
X007464Y001691D01*
X007464Y002691D01*
X007389Y002691D01*
X006364Y002691D01*
X005964Y002291D01*
X005901Y002192D01*
X007464Y002691D02*
X007464Y003691D01*
X007389Y003691D01*
X007464Y003691D02*
X007464Y003991D01*
X005864Y003991D01*
X007464Y003991D02*
X007464Y004691D01*
X009664Y004791D02*
X009664Y004891D01*
X011764Y006991D01*
X011764Y007024D01*
X013664Y005691D02*
X014764Y005691D01*
X013564Y004191D02*
X018164Y004191D01*
X018164Y003491D01*
X018263Y003441D01*
X018264Y003391D01*
X018864Y002791D01*
X020464Y002791D01*
X020964Y002291D01*
X020964Y001991D01*
X021014Y001918D01*
X019564Y003991D02*
X019514Y003965D01*
X019564Y003991D02*
X019564Y004991D01*
X019764Y004991D01*
X015640Y003441D02*
X015564Y003391D01*
X015364Y003191D01*
X015064Y003191D01*
X014513Y003441D02*
X014464Y003391D01*
X014464Y002891D01*
X013264Y002891D01*
X013214Y002841D01*
X012664Y003391D01*
X012638Y003441D01*
X013214Y002841D02*
X013864Y002191D01*
X013765Y002191D01*
X004364Y002891D02*
X003364Y003891D01*
X003282Y003941D01*
X003264Y003991D01*
X002564Y003991D01*
X002495Y003941D01*
M02*
