%
M48
M72
T01C0.0240
T02C0.0315
T03C0.0320
T04C0.0400
T05C0.0472
T06C0.0730
%
T01
X12464Y5291
X11764Y5791
X10864Y5991
X10264Y6391
X12464Y7591
X11764Y7891
X13764Y7491
X14664Y8591
X16064Y8391
X16364Y8791
X16764Y9191
X16464Y9591
X16064Y9991
X17264Y10391
X17664Y11291
X14664Y10691
X14064Y10091
X14564Y9591
X14964Y9291
X15964Y7891
X18964Y8091
X21764Y6591
X19564Y5991
X20464Y5291
X19564Y5191
X17664Y5491
X17664Y6091
X15764Y5091
X17464Y4691
X15964Y3791
X17464Y3691
X17464Y2891
X15564Y2391
X16264Y1691
X24539Y1916
X25039Y1916
X14664Y6291
X9164Y7991
X7464Y7191
X5864Y7991
X5264Y8591
X7664Y6191
T02
X3282Y5229
X2495Y5229
X2495Y4441
X3282Y4441
X3282Y3654
X2495Y3654
X24476Y7316
X24476Y8316
T03
X10889Y5191
X10889Y4191
X10889Y3191
X10889Y2191
X7889Y2191
X7889Y3191
X7889Y4191
X7889Y5191
T04
X10984Y9301
X13544Y9301
X13544Y11081
X10984Y11081
X18984Y10956
X21544Y10956
X22514Y10691
X23514Y10691
X24514Y10691
X25514Y10691
X26514Y10691
X21544Y9176
X18984Y9176
T05
X2889Y2630
X2889Y6253
T06
X6614Y4691
X9514Y4691
X23514Y4691
X26414Y4691
M30
