G75*
G70*
%OFA0B0*%
%FSLAX24Y24*%
%IPPOS*%
%LPD*%
%AMOC8*
5,1,8,0,0,1.08239X$1,22.5*
%
%ADD10R,0.0552X0.0198*%
%ADD11R,0.0277X0.0552*%
%ADD12R,0.0592X0.0710*%
%ADD13R,0.0592X0.0671*%
%ADD14R,0.0671X0.0592*%
%ADD15R,0.0316X0.0946*%
%ADD16R,0.0659X0.0580*%
%ADD17R,0.0867X0.0631*%
%ADD18R,0.0867X0.0474*%
%ADD19C,0.0710*%
%ADD20C,0.0820*%
%ADD21R,0.0710X0.0592*%
%ADD22R,0.0552X0.0297*%
%ADD23R,0.0926X0.2245*%
%ADD24R,0.0631X0.0710*%
%ADD25R,0.0552X0.1064*%
%ADD26R,0.0580X0.0659*%
%ADD27C,0.0595*%
%ADD28C,0.0789*%
%ADD29C,0.1175*%
%ADD30C,0.0600*%
%ADD31R,0.0552X0.0631*%
%ADD32C,0.0680*%
%ADD33OC8,0.0480*%
D10*
X014722Y007924D03*
X014722Y008180D03*
X014722Y008436D03*
X014722Y008691D03*
X014722Y008947D03*
X014722Y009203D03*
X014722Y009459D03*
X017006Y009459D03*
X017006Y009203D03*
X017006Y008947D03*
X017006Y008691D03*
X017006Y008436D03*
X017006Y008180D03*
X017006Y007924D03*
D11*
X014764Y007024D03*
X014264Y007024D03*
X013764Y007024D03*
X013264Y007024D03*
X012764Y007024D03*
X012264Y007024D03*
X011764Y007024D03*
X011764Y004859D03*
X012264Y004859D03*
X012764Y004859D03*
X013264Y004859D03*
X013764Y004859D03*
X014264Y004859D03*
X014764Y004859D03*
D12*
X014513Y003441D03*
X013765Y003441D03*
X012638Y003441D03*
X011890Y003441D03*
X011890Y002191D03*
X012638Y002191D03*
X013765Y002191D03*
X014513Y002191D03*
X015640Y002191D03*
X016388Y002191D03*
X016388Y003441D03*
X015640Y003441D03*
X017515Y003441D03*
X018263Y003441D03*
X009638Y009191D03*
X008890Y009191D03*
X008890Y010191D03*
X009638Y010191D03*
D13*
X020554Y006691D03*
X021223Y006691D03*
X021098Y005441D03*
X020429Y005441D03*
X018223Y002191D03*
X017554Y002191D03*
D14*
X017389Y005857D03*
X017389Y006526D03*
D15*
X019514Y003965D03*
X020014Y003965D03*
X020514Y003965D03*
X021014Y003965D03*
X021014Y001918D03*
X020514Y001918D03*
X020014Y001918D03*
X019514Y001918D03*
D16*
X019014Y005220D03*
X019014Y006913D03*
D17*
X009880Y006483D03*
X008148Y006483D03*
X008148Y007900D03*
X009880Y007900D03*
D18*
X009880Y007191D03*
X008148Y007191D03*
D19*
X023476Y007391D03*
X023476Y006391D03*
D20*
X021044Y008176D03*
X018484Y008176D03*
X018484Y009956D03*
X021044Y009956D03*
X013544Y010081D03*
X010984Y010081D03*
X010984Y008301D03*
X013544Y008301D03*
D21*
X015889Y006566D03*
X015889Y005817D03*
D22*
X005901Y002941D03*
X004877Y002941D03*
X004877Y002566D03*
X004877Y002192D03*
X005901Y002192D03*
D23*
X004520Y008691D03*
X003008Y008691D03*
D24*
X006088Y008191D03*
X007190Y008191D03*
D25*
X007038Y006816D03*
X005739Y006816D03*
D26*
X006235Y005316D03*
X004542Y005316D03*
D27*
X003282Y004729D03*
X002495Y004729D03*
X002495Y003941D03*
X003282Y003941D03*
X003282Y003154D03*
X002495Y003154D03*
D28*
X002889Y002130D03*
X002889Y005753D03*
D29*
X005864Y003991D03*
X008764Y003991D03*
X022764Y003991D03*
X025664Y003991D03*
D30*
X010649Y003691D02*
X010129Y003691D01*
X010129Y004691D02*
X010649Y004691D01*
X007649Y004691D02*
X007129Y004691D01*
X007129Y003691D02*
X007649Y003691D01*
X007649Y002691D02*
X007129Y002691D01*
X007129Y001691D02*
X007649Y001691D01*
X010129Y001691D02*
X010649Y001691D01*
X010649Y002691D02*
X010129Y002691D01*
D31*
X007354Y009191D03*
X006173Y009191D03*
X006173Y010191D03*
X007354Y010191D03*
D32*
X022014Y009991D02*
X022014Y009391D01*
X023014Y009391D02*
X023014Y009991D01*
X024014Y009991D02*
X024014Y009391D01*
X025014Y009391D02*
X025014Y009991D01*
X026014Y009991D02*
X026014Y009391D01*
D33*
X021764Y006991D03*
X019064Y006291D03*
X018064Y006291D03*
X018064Y005491D03*
X017964Y004791D03*
X019064Y004591D03*
X019764Y004991D03*
X021464Y003891D03*
X017864Y002791D03*
X016964Y002091D03*
X015064Y001891D03*
X015764Y001191D03*
X017964Y001091D03*
X019064Y001491D03*
X015064Y003191D03*
X015064Y003791D03*
X016964Y003791D03*
X015864Y004591D03*
X015164Y004591D03*
X013664Y005691D03*
X014464Y006491D03*
X014964Y006491D03*
X016164Y007191D03*
X016164Y007991D03*
X015364Y007991D03*
X016464Y008391D03*
X017664Y009091D03*
X017764Y009891D03*
X016464Y010291D03*
X015764Y009491D03*
X015264Y009291D03*
X013064Y009591D03*
X012064Y008591D03*
X014164Y007991D03*
X010764Y006591D03*
X011364Y005991D03*
X011364Y005491D03*
X010864Y005491D03*
X011364Y004691D03*
X012764Y006491D03*
X009164Y006691D03*
X009164Y007191D03*
X006464Y006291D03*
X005664Y005391D03*
X006564Y003491D03*
X008864Y002591D03*
X009364Y002591D03*
X020064Y008691D03*
M02*
