G75*
G70*
%OFA0B0*%
%FSLAX24Y24*%
%IPPOS*%
%LPD*%
%AMOC8*
5,1,8,0,0,1.08239X$1,22.5*
%
%ADD10C,0.0710*%
%ADD11C,0.0820*%
%ADD12C,0.0595*%
%ADD13C,0.0789*%
%ADD14C,0.1175*%
%ADD15C,0.0600*%
%ADD16C,0.0680*%
%ADD17OC8,0.0480*%
D10*
X023476Y006391D03*
X023476Y007391D03*
D11*
X021044Y008176D03*
X018484Y008176D03*
X018484Y009956D03*
X021044Y009956D03*
X013544Y010081D03*
X010984Y010081D03*
X010984Y008301D03*
X013544Y008301D03*
D12*
X003282Y004729D03*
X002495Y004729D03*
X002495Y003941D03*
X003282Y003941D03*
X003282Y003154D03*
X002495Y003154D03*
D13*
X002889Y002130D03*
X002889Y005753D03*
D14*
X005864Y003991D03*
X008764Y003991D03*
X022764Y003991D03*
X025664Y003991D03*
D15*
X010649Y003691D02*
X010129Y003691D01*
X010129Y004691D02*
X010649Y004691D01*
X007649Y004691D02*
X007129Y004691D01*
X007129Y003691D02*
X007649Y003691D01*
X007649Y002691D02*
X007129Y002691D01*
X007129Y001691D02*
X007649Y001691D01*
X010129Y001691D02*
X010649Y001691D01*
X010649Y002691D02*
X010129Y002691D01*
D16*
X022014Y009391D02*
X022014Y009991D01*
X023014Y009991D02*
X023014Y009391D01*
X024014Y009391D02*
X024014Y009991D01*
X025014Y009991D02*
X025014Y009391D01*
X026014Y009391D02*
X026014Y009991D01*
D17*
X020064Y008691D03*
X017664Y009091D03*
X016464Y008391D03*
X016164Y007991D03*
X015364Y007991D03*
X014164Y007991D03*
X012064Y008591D03*
X013064Y009591D03*
X015264Y009291D03*
X015764Y009491D03*
X016464Y010291D03*
X017764Y009891D03*
X016164Y007191D03*
X014964Y006491D03*
X014464Y006491D03*
X012764Y006491D03*
X011364Y005991D03*
X011364Y005491D03*
X010864Y005491D03*
X011364Y004691D03*
X013664Y005691D03*
X015164Y004591D03*
X015864Y004591D03*
X015064Y003791D03*
X015064Y003191D03*
X016964Y003791D03*
X017964Y004791D03*
X019064Y004591D03*
X019764Y004991D03*
X018064Y005491D03*
X018064Y006291D03*
X019064Y006291D03*
X021764Y006991D03*
X021464Y003891D03*
X017864Y002791D03*
X016964Y002091D03*
X015064Y001891D03*
X015764Y001191D03*
X017964Y001091D03*
X019064Y001491D03*
X009364Y002591D03*
X008864Y002591D03*
X006564Y003491D03*
X005664Y005391D03*
X006464Y006291D03*
X009164Y006691D03*
X009164Y007191D03*
X010764Y006591D03*
M02*
