G75*
G70*
%OFA0B0*%
%FSLAX24Y24*%
%IPPOS*%
%LPD*%
%AMOC8*
5,1,8,0,0,1.08239X$1,22.5*
%
%ADD10C,0.0040*%
%ADD11C,0.0100*%
%ADD12C,0.0120*%
%ADD13C,0.0050*%
D10*
X013003Y006211D02*
X013310Y006211D01*
X013463Y006288D02*
X013770Y006595D01*
X013770Y006288D01*
X013693Y006211D01*
X013540Y006211D01*
X013463Y006288D01*
X013463Y006595D01*
X013540Y006672D01*
X013693Y006672D01*
X013770Y006595D01*
X013924Y006518D02*
X014077Y006672D01*
X014077Y006211D01*
X013924Y006211D02*
X014230Y006211D01*
X014384Y006211D02*
X014691Y006211D01*
X014844Y006211D02*
X014844Y006288D01*
X014921Y006288D01*
X014921Y006211D01*
X014844Y006211D01*
X014537Y006211D02*
X014537Y006672D01*
X014384Y006518D01*
X013310Y006518D02*
X013310Y006595D01*
X013233Y006672D01*
X013080Y006672D01*
X013003Y006595D01*
X013310Y006518D02*
X013003Y006211D01*
X015535Y006211D02*
X015535Y006672D01*
X015842Y006672D01*
X015995Y006518D02*
X016072Y006518D01*
X016072Y006211D01*
X015995Y006211D02*
X016149Y006211D01*
X016302Y006211D02*
X016302Y006518D01*
X016302Y006365D02*
X016455Y006518D01*
X016532Y006518D01*
X016686Y006442D02*
X016762Y006518D01*
X016916Y006518D01*
X016993Y006442D01*
X016993Y006365D01*
X016686Y006365D01*
X016686Y006288D02*
X016686Y006442D01*
X016686Y006288D02*
X016762Y006211D01*
X016916Y006211D01*
X017223Y006211D02*
X017223Y006595D01*
X017299Y006672D01*
X017453Y006672D02*
X017530Y006672D01*
X017530Y006211D01*
X017606Y006211D02*
X017453Y006211D01*
X017760Y006288D02*
X017836Y006211D01*
X018067Y006211D01*
X018067Y006135D02*
X017990Y006058D01*
X017913Y006058D01*
X018067Y006135D02*
X018067Y006518D01*
X017760Y006518D02*
X017760Y006288D01*
X018220Y006288D02*
X018220Y006211D01*
X018297Y006211D01*
X018297Y006288D01*
X018220Y006288D01*
X018911Y006518D02*
X019064Y006211D01*
X019218Y006518D01*
X019371Y006442D02*
X019448Y006518D01*
X019601Y006518D01*
X019678Y006442D01*
X019678Y006365D01*
X019371Y006365D01*
X019371Y006288D02*
X019371Y006442D01*
X019371Y006288D02*
X019448Y006211D01*
X019601Y006211D01*
X019831Y006211D02*
X019831Y006518D01*
X019831Y006365D02*
X019985Y006518D01*
X020062Y006518D01*
X020215Y006442D02*
X020292Y006518D01*
X020522Y006518D01*
X020675Y006518D02*
X020752Y006518D01*
X020752Y006211D01*
X020675Y006211D02*
X020829Y006211D01*
X020982Y006288D02*
X021059Y006211D01*
X021212Y006211D01*
X021289Y006288D01*
X021289Y006442D01*
X021212Y006518D01*
X021059Y006518D01*
X020982Y006442D01*
X020982Y006288D01*
X020522Y006288D02*
X020445Y006211D01*
X020215Y006211D01*
X020445Y006365D02*
X020522Y006288D01*
X020445Y006365D02*
X020292Y006365D01*
X020215Y006442D01*
X020752Y006672D02*
X020752Y006749D01*
X021443Y006518D02*
X021673Y006518D01*
X021749Y006442D01*
X021749Y006211D01*
X021443Y006211D02*
X021443Y006518D01*
X022363Y006518D02*
X022517Y006672D01*
X022517Y006211D01*
X022670Y006211D02*
X022363Y006211D01*
X017299Y006442D02*
X017146Y006442D01*
X016072Y006672D02*
X016072Y006749D01*
X015688Y006442D02*
X015535Y006442D01*
D11*
X004958Y002791D02*
X001208Y002791D01*
X001208Y006591D01*
X004958Y006591D01*
X004958Y005541D01*
X004958Y003841D02*
X004958Y002791D01*
X018758Y002791D02*
X018758Y003841D01*
X018758Y002791D02*
X022508Y002791D01*
X022508Y006591D01*
X018758Y006591D01*
X018758Y005541D01*
D12*
X017505Y004692D02*
X016918Y004692D01*
X006705Y004692D02*
X006118Y004692D01*
X006411Y004985D02*
X006411Y004398D01*
D13*
X017108Y006816D02*
X018608Y008816D01*
X018556Y008530D01*
X018472Y008252D01*
X018356Y007986D01*
X018210Y007734D01*
X018035Y007502D01*
X017835Y007291D01*
X017612Y007105D01*
X017368Y006946D01*
X017108Y006816D01*
X017127Y006842D02*
X017159Y006842D01*
X017163Y006890D02*
X017256Y006890D01*
X017200Y006939D02*
X017354Y006939D01*
X017432Y006988D02*
X017236Y006988D01*
X017273Y007036D02*
X017506Y007036D01*
X017580Y007085D02*
X017309Y007085D01*
X017345Y007133D02*
X017645Y007133D01*
X017704Y007182D02*
X017382Y007182D01*
X017418Y007230D02*
X017762Y007230D01*
X017820Y007279D02*
X017455Y007279D01*
X017491Y007327D02*
X017869Y007327D01*
X017916Y007376D02*
X017527Y007376D01*
X017564Y007424D02*
X017962Y007424D01*
X018008Y007473D02*
X017600Y007473D01*
X017637Y007522D02*
X018050Y007522D01*
X018086Y007570D02*
X017673Y007570D01*
X017709Y007619D02*
X018123Y007619D01*
X018159Y007667D02*
X017746Y007667D01*
X017782Y007716D02*
X018196Y007716D01*
X018227Y007764D02*
X017819Y007764D01*
X017855Y007813D02*
X018255Y007813D01*
X018284Y007861D02*
X017892Y007861D01*
X017928Y007910D02*
X018312Y007910D01*
X018340Y007958D02*
X017964Y007958D01*
X018001Y008007D02*
X018365Y008007D01*
X018351Y008007D02*
X018715Y008007D01*
X018679Y008056D02*
X018329Y008056D01*
X018308Y008104D02*
X018642Y008104D01*
X018606Y008153D02*
X018287Y008153D01*
X018266Y008201D02*
X018569Y008201D01*
X018533Y008250D02*
X018245Y008250D01*
X018244Y008252D02*
X018360Y007986D01*
X018506Y007734D01*
X018681Y007502D01*
X018881Y007291D01*
X019104Y007105D01*
X019348Y006946D01*
X019608Y006816D01*
X018108Y008816D01*
X018159Y008530D01*
X018244Y008252D01*
X018230Y008298D02*
X018497Y008298D01*
X018486Y008298D02*
X018219Y008298D01*
X018215Y008347D02*
X018460Y008347D01*
X018501Y008347D02*
X018256Y008347D01*
X018292Y008395D02*
X018515Y008395D01*
X018530Y008444D02*
X018328Y008444D01*
X018351Y008492D02*
X018171Y008492D01*
X018186Y008444D02*
X018387Y008444D01*
X018365Y008492D02*
X018545Y008492D01*
X018558Y008541D02*
X018401Y008541D01*
X018438Y008589D02*
X018567Y008589D01*
X018576Y008638D02*
X018474Y008638D01*
X018510Y008687D02*
X018584Y008687D01*
X018593Y008735D02*
X018547Y008735D01*
X018583Y008784D02*
X018602Y008784D01*
X018242Y008638D02*
X018140Y008638D01*
X018149Y008589D02*
X018278Y008589D01*
X018315Y008541D02*
X018157Y008541D01*
X018131Y008687D02*
X018205Y008687D01*
X018169Y008735D02*
X018122Y008735D01*
X018114Y008784D02*
X018133Y008784D01*
X018200Y008395D02*
X018424Y008395D01*
X018471Y008250D02*
X018183Y008250D01*
X018146Y008201D02*
X018450Y008201D01*
X018429Y008153D02*
X018110Y008153D01*
X018074Y008104D02*
X018407Y008104D01*
X018386Y008056D02*
X018037Y008056D01*
X018376Y007958D02*
X018751Y007958D01*
X018788Y007910D02*
X018404Y007910D01*
X018432Y007861D02*
X018824Y007861D01*
X018861Y007813D02*
X018460Y007813D01*
X018489Y007764D02*
X018897Y007764D01*
X018866Y007764D02*
X019408Y007764D01*
X019370Y007716D02*
X018827Y007716D01*
X018788Y007667D02*
X019331Y007667D01*
X019322Y007657D02*
X019555Y007947D01*
X019752Y008263D01*
X019911Y008600D01*
X020031Y008952D01*
X020108Y009316D01*
X018108Y006816D01*
X018446Y006972D01*
X018764Y007166D01*
X019058Y007395D01*
X019322Y007657D01*
X019284Y007619D02*
X018750Y007619D01*
X018711Y007570D02*
X019235Y007570D01*
X019186Y007522D02*
X018672Y007522D01*
X018666Y007522D02*
X019079Y007522D01*
X019043Y007570D02*
X018629Y007570D01*
X018593Y007619D02*
X019006Y007619D01*
X018970Y007667D02*
X018556Y007667D01*
X018520Y007716D02*
X018933Y007716D01*
X018905Y007813D02*
X019447Y007813D01*
X019486Y007861D02*
X018944Y007861D01*
X018983Y007910D02*
X019525Y007910D01*
X019562Y007958D02*
X019021Y007958D01*
X019060Y008007D02*
X019592Y008007D01*
X019622Y008056D02*
X019099Y008056D01*
X019138Y008104D02*
X019653Y008104D01*
X019683Y008153D02*
X019177Y008153D01*
X019216Y008201D02*
X019713Y008201D01*
X019744Y008250D02*
X019254Y008250D01*
X019293Y008298D02*
X019769Y008298D01*
X019792Y008347D02*
X019332Y008347D01*
X019371Y008395D02*
X019815Y008395D01*
X019838Y008444D02*
X019410Y008444D01*
X019449Y008492D02*
X019861Y008492D01*
X019857Y008492D02*
X020226Y008492D01*
X020262Y008444D02*
X019884Y008444D01*
X019860Y008486D02*
X020006Y008234D01*
X020181Y008002D01*
X020381Y007791D01*
X020604Y007605D01*
X020848Y007446D01*
X021108Y007316D01*
X019608Y009316D01*
X019659Y009030D01*
X019744Y008752D01*
X019860Y008486D01*
X019884Y008541D02*
X019487Y008541D01*
X019526Y008589D02*
X019907Y008589D01*
X019924Y008638D02*
X019565Y008638D01*
X019604Y008687D02*
X019941Y008687D01*
X019957Y008735D02*
X019643Y008735D01*
X019682Y008784D02*
X019974Y008784D01*
X020008Y008784D02*
X019734Y008784D01*
X019720Y008832D02*
X019990Y008832D01*
X019971Y008832D02*
X019719Y008832D01*
X019705Y008881D02*
X019935Y008881D01*
X019898Y008929D02*
X019690Y008929D01*
X019675Y008978D02*
X019862Y008978D01*
X019837Y008978D02*
X020036Y008978D01*
X020046Y009026D02*
X019876Y009026D01*
X019825Y009026D02*
X019661Y009026D01*
X019651Y009075D02*
X019789Y009075D01*
X019753Y009123D02*
X019643Y009123D01*
X019634Y009172D02*
X019716Y009172D01*
X019680Y009221D02*
X019625Y009221D01*
X019616Y009269D02*
X019643Y009269D01*
X019953Y009123D02*
X020067Y009123D01*
X020057Y009075D02*
X019915Y009075D01*
X019992Y009172D02*
X020077Y009172D01*
X020087Y009221D02*
X020031Y009221D01*
X020070Y009269D02*
X020098Y009269D01*
X020023Y008929D02*
X019798Y008929D01*
X019759Y008881D02*
X020006Y008881D01*
X020044Y008735D02*
X019751Y008735D01*
X019772Y008687D02*
X020080Y008687D01*
X020117Y008638D02*
X019793Y008638D01*
X019815Y008589D02*
X020153Y008589D01*
X020190Y008541D02*
X019836Y008541D01*
X019912Y008395D02*
X020299Y008395D01*
X020335Y008347D02*
X019941Y008347D01*
X019969Y008298D02*
X020372Y008298D01*
X020408Y008250D02*
X019997Y008250D01*
X020031Y008201D02*
X020444Y008201D01*
X020481Y008153D02*
X020067Y008153D01*
X020104Y008104D02*
X020517Y008104D01*
X020554Y008056D02*
X020140Y008056D01*
X020177Y008007D02*
X020590Y008007D01*
X020626Y007958D02*
X020222Y007958D01*
X020268Y007910D02*
X020663Y007910D01*
X020699Y007861D02*
X020314Y007861D01*
X020360Y007813D02*
X020736Y007813D01*
X020772Y007764D02*
X020413Y007764D01*
X020471Y007716D02*
X020808Y007716D01*
X020782Y007716D02*
X021196Y007716D01*
X021210Y007734D02*
X021035Y007502D01*
X020835Y007291D01*
X020612Y007105D01*
X020368Y006946D01*
X020108Y006816D01*
X021608Y008816D01*
X021556Y008530D01*
X021472Y008252D01*
X021356Y007986D01*
X021210Y007734D01*
X021227Y007764D02*
X020819Y007764D01*
X020855Y007813D02*
X021255Y007813D01*
X021284Y007861D02*
X020892Y007861D01*
X020928Y007910D02*
X021312Y007910D01*
X021340Y007958D02*
X020964Y007958D01*
X021001Y008007D02*
X021365Y008007D01*
X021351Y008007D02*
X021715Y008007D01*
X021679Y008056D02*
X021329Y008056D01*
X021308Y008104D02*
X021642Y008104D01*
X021606Y008153D02*
X021287Y008153D01*
X021266Y008201D02*
X021569Y008201D01*
X021533Y008250D02*
X021245Y008250D01*
X021244Y008252D02*
X021360Y007986D01*
X021506Y007734D01*
X021681Y007502D01*
X021881Y007291D01*
X022104Y007105D01*
X022348Y006946D01*
X022608Y006816D01*
X021108Y008816D01*
X021159Y008530D01*
X021244Y008252D01*
X021230Y008298D02*
X021497Y008298D01*
X021486Y008298D02*
X021219Y008298D01*
X021215Y008347D02*
X021460Y008347D01*
X021501Y008347D02*
X021256Y008347D01*
X021292Y008395D02*
X021515Y008395D01*
X021530Y008444D02*
X021328Y008444D01*
X021351Y008492D02*
X021171Y008492D01*
X021186Y008444D02*
X021387Y008444D01*
X021365Y008492D02*
X021545Y008492D01*
X021558Y008541D02*
X021401Y008541D01*
X021438Y008589D02*
X021567Y008589D01*
X021576Y008638D02*
X021474Y008638D01*
X021510Y008687D02*
X021584Y008687D01*
X021593Y008735D02*
X021547Y008735D01*
X021583Y008784D02*
X021602Y008784D01*
X021315Y008541D02*
X021157Y008541D01*
X021149Y008589D02*
X021278Y008589D01*
X021242Y008638D02*
X021140Y008638D01*
X021131Y008687D02*
X021205Y008687D01*
X021169Y008735D02*
X021122Y008735D01*
X021114Y008784D02*
X021133Y008784D01*
X021200Y008395D02*
X021424Y008395D01*
X021471Y008250D02*
X021183Y008250D01*
X021146Y008201D02*
X021450Y008201D01*
X021429Y008153D02*
X021110Y008153D01*
X021074Y008104D02*
X021407Y008104D01*
X021386Y008056D02*
X021037Y008056D01*
X021376Y007958D02*
X021751Y007958D01*
X021788Y007910D02*
X021404Y007910D01*
X021432Y007861D02*
X021824Y007861D01*
X021861Y007813D02*
X021460Y007813D01*
X021489Y007764D02*
X021897Y007764D01*
X021933Y007716D02*
X021520Y007716D01*
X021556Y007667D02*
X021970Y007667D01*
X022006Y007619D02*
X021593Y007619D01*
X021629Y007570D02*
X022043Y007570D01*
X022079Y007522D02*
X021666Y007522D01*
X021708Y007473D02*
X022116Y007473D01*
X022152Y007424D02*
X021754Y007424D01*
X021800Y007376D02*
X022188Y007376D01*
X022225Y007327D02*
X021846Y007327D01*
X021895Y007279D02*
X022261Y007279D01*
X022298Y007230D02*
X021954Y007230D01*
X022012Y007182D02*
X022334Y007182D01*
X022370Y007133D02*
X022070Y007133D01*
X022135Y007085D02*
X022407Y007085D01*
X022443Y007036D02*
X022210Y007036D01*
X022284Y006988D02*
X022480Y006988D01*
X022516Y006939D02*
X022362Y006939D01*
X022459Y006890D02*
X022552Y006890D01*
X022557Y006842D02*
X022589Y006842D01*
X021100Y007327D02*
X021086Y007327D01*
X021063Y007376D02*
X020989Y007376D01*
X020962Y007424D02*
X020564Y007424D01*
X020527Y007376D02*
X020916Y007376D01*
X020891Y007424D02*
X021027Y007424D01*
X021008Y007473D02*
X020600Y007473D01*
X020637Y007522D02*
X021050Y007522D01*
X021086Y007570D02*
X020673Y007570D01*
X020658Y007570D02*
X020918Y007570D01*
X020954Y007522D02*
X020732Y007522D01*
X020806Y007473D02*
X020991Y007473D01*
X020869Y007327D02*
X020491Y007327D01*
X020455Y007279D02*
X020820Y007279D01*
X020762Y007230D02*
X020418Y007230D01*
X020382Y007182D02*
X020704Y007182D01*
X020645Y007133D02*
X020345Y007133D01*
X020309Y007085D02*
X020580Y007085D01*
X020506Y007036D02*
X020273Y007036D01*
X020236Y006988D02*
X020432Y006988D01*
X020354Y006939D02*
X020200Y006939D01*
X020163Y006890D02*
X020256Y006890D01*
X020159Y006842D02*
X020127Y006842D01*
X019589Y006842D02*
X019557Y006842D01*
X019552Y006890D02*
X019459Y006890D01*
X019516Y006939D02*
X019362Y006939D01*
X019284Y006988D02*
X019480Y006988D01*
X019443Y007036D02*
X019210Y007036D01*
X019135Y007085D02*
X019407Y007085D01*
X019370Y007133D02*
X019070Y007133D01*
X019012Y007182D02*
X019334Y007182D01*
X019298Y007230D02*
X018954Y007230D01*
X018909Y007279D02*
X018478Y007279D01*
X018517Y007327D02*
X018971Y007327D01*
X019033Y007376D02*
X018555Y007376D01*
X018594Y007424D02*
X019087Y007424D01*
X019116Y007473D02*
X018708Y007473D01*
X018754Y007424D02*
X019152Y007424D01*
X019137Y007473D02*
X018633Y007473D01*
X018800Y007376D02*
X019188Y007376D01*
X019225Y007327D02*
X018846Y007327D01*
X018895Y007279D02*
X019261Y007279D01*
X018847Y007230D02*
X018439Y007230D01*
X018400Y007182D02*
X018785Y007182D01*
X018711Y007133D02*
X018361Y007133D01*
X018322Y007085D02*
X018631Y007085D01*
X018552Y007036D02*
X018284Y007036D01*
X018245Y006988D02*
X018472Y006988D01*
X018375Y006939D02*
X018206Y006939D01*
X018167Y006890D02*
X018269Y006890D01*
X018163Y006842D02*
X018128Y006842D01*
X020529Y007667D02*
X020845Y007667D01*
X020881Y007619D02*
X020588Y007619D01*
X020709Y007619D02*
X021123Y007619D01*
X021159Y007667D02*
X020746Y007667D01*
M02*
