%
M48
M72
T01C0.0240
T02C0.0315
T03C0.0320
T04C0.0360
T05C0.0400
T06C0.0472
T07C0.0730
%
T01
X12388Y2799
X15388Y2199
X17488Y2199
X19688Y1999
X21088Y2999
X19388Y4399
X19688Y4799
X20688Y4499
X20688Y5399
X19988Y6199
X15388Y4499
X17388Y4299
X14088Y5499
X14788Y5699
X14688Y7399
X14088Y7999
X14288Y8499
X15788Y8199
X15188Y9299
X12788Y7699
X10488Y6699
X10488Y6199
X8788Y6199
X8788Y6699
T02
X3281Y5487
X2494Y5487
X2494Y4699
X3281Y4699
X3281Y3912
X2494Y3912
X23100Y7199
X23100Y8199
T03
X10388Y4699
X10388Y3699
X10388Y2699
X10388Y1699
X7388Y1699
X7388Y2699
X7388Y3699
X7388Y4699
T04
X8888Y8199
X9888Y8199
X9888Y9199
X8888Y9199
T05
X18608Y8589
X21168Y8589
X21168Y6809
X18608Y6809
T06
X2888Y2888
X2888Y6510
T07
X5988Y3199
X8888Y3199
X22888Y3199
X25788Y3199
M30
