G75*
G70*
%OFA0B0*%
%FSLAX24Y24*%
%IPPOS*%
%LPD*%
%AMOC8*
5,1,8,0,0,1.08239X$1,22.5*
%
%ADD10C,0.0630*%
%ADD11C,0.0740*%
%ADD12C,0.0515*%
%ADD13C,0.0709*%
%ADD14C,0.1095*%
%ADD15C,0.0520*%
%ADD16C,0.0600*%
%ADD17C,0.0100*%
%ADD18OC8,0.0400*%
%ADD19C,0.0197*%
D10*
X003895Y007316D03*
X003895Y008316D03*
D11*
X006828Y009176D03*
X009388Y009176D03*
X009388Y010956D03*
X006828Y010956D03*
X014828Y011081D03*
X017388Y011081D03*
X017388Y009301D03*
X014828Y009301D03*
D12*
X025089Y005229D03*
X025877Y005229D03*
X025877Y004441D03*
X025089Y004441D03*
X025089Y003654D03*
X025877Y003654D03*
D13*
X025483Y002630D03*
X025483Y006253D03*
D14*
X021758Y004691D03*
X018858Y004691D03*
X004858Y004691D03*
X001958Y004691D03*
D15*
X017223Y004191D02*
X017743Y004191D01*
X017743Y003191D02*
X017223Y003191D01*
X017223Y002191D02*
X017743Y002191D01*
X020223Y002191D02*
X020743Y002191D01*
X020743Y003191D02*
X020223Y003191D01*
X020223Y004191D02*
X020743Y004191D01*
X020743Y005191D02*
X020223Y005191D01*
X017743Y005191D02*
X017223Y005191D01*
D16*
X005858Y010391D02*
X005858Y010991D01*
X004858Y010991D02*
X004858Y010391D01*
X003858Y010391D02*
X003858Y010991D01*
X002858Y010991D02*
X002858Y010391D01*
X001858Y010391D02*
X001858Y010991D01*
D17*
X001488Y000641D02*
X025227Y000641D01*
X025257Y000751D01*
X025257Y000751D01*
X025448Y001082D01*
X025718Y001352D01*
X026048Y001543D01*
X026048Y001543D01*
X026158Y001572D01*
X026158Y003387D01*
X026096Y003326D01*
X025954Y003267D01*
X025800Y003267D01*
X025657Y003326D01*
X025548Y003435D01*
X025489Y003577D01*
X025489Y003731D01*
X025548Y003874D01*
X025657Y003983D01*
X025800Y004042D01*
X025954Y004042D01*
X026096Y003983D01*
X026158Y003921D01*
X026158Y004175D01*
X026096Y004113D01*
X025954Y004054D01*
X025800Y004054D01*
X025657Y004113D01*
X025548Y004222D01*
X025489Y004364D01*
X025489Y004519D01*
X025548Y004661D01*
X025657Y004770D01*
X025800Y004829D01*
X025954Y004829D01*
X026096Y004770D01*
X026158Y004708D01*
X026158Y004962D01*
X026096Y004900D01*
X025954Y004841D01*
X025800Y004841D01*
X025657Y004900D01*
X025548Y005009D01*
X025489Y005152D01*
X025489Y005306D01*
X025548Y005448D01*
X025657Y005557D01*
X025800Y005616D01*
X025954Y005616D01*
X026096Y005557D01*
X026158Y005495D01*
X026158Y010811D01*
X026048Y010840D01*
X025718Y011031D01*
X025718Y011031D01*
X025448Y011301D01*
X025448Y011301D01*
X025257Y011632D01*
X025227Y011741D01*
X001488Y011741D01*
X001459Y011632D01*
X001459Y011632D01*
X001268Y011301D01*
X000998Y011031D01*
X000668Y010840D01*
X000668Y010840D01*
X000558Y010811D01*
X000558Y001572D01*
X000668Y001543D01*
X000998Y001352D01*
X001268Y001082D01*
X001268Y001082D01*
X001459Y000751D01*
X001488Y000641D01*
X001477Y000684D02*
X025239Y000684D01*
X025275Y000783D02*
X001441Y000783D01*
X001459Y000751D02*
X001459Y000751D01*
X001384Y000881D02*
X025332Y000881D01*
X025389Y000980D02*
X001327Y000980D01*
X001270Y001078D02*
X025446Y001078D01*
X025448Y001082D02*
X025448Y001082D01*
X025543Y001177D02*
X001173Y001177D01*
X001074Y001275D02*
X025641Y001275D01*
X025718Y001352D02*
X025718Y001352D01*
X025756Y001374D02*
X012257Y001374D01*
X012245Y001361D02*
X011971Y001361D01*
X011778Y001555D01*
X011778Y001828D01*
X011971Y002021D01*
X012183Y002021D01*
X012478Y002316D01*
X012478Y002528D01*
X012671Y002721D01*
X012945Y002721D01*
X013138Y002528D01*
X013138Y002255D01*
X012945Y002061D01*
X012732Y002061D01*
X012438Y001767D01*
X012438Y001555D01*
X012245Y001361D01*
X012356Y001473D02*
X025927Y001473D01*
X026155Y001571D02*
X012438Y001571D01*
X012438Y001670D02*
X026158Y001670D01*
X026158Y001768D02*
X012439Y001768D01*
X012538Y001867D02*
X016996Y001867D01*
X017002Y001861D02*
X016892Y001971D01*
X016878Y002004D01*
X014969Y001981D01*
X014968Y001980D01*
X014896Y001980D01*
X014821Y001979D01*
X014820Y001980D01*
X014819Y001980D01*
X014769Y002030D01*
X014715Y002083D01*
X014715Y002085D01*
X011614Y005185D01*
X011614Y005335D01*
X011614Y008535D01*
X011706Y008627D01*
X011678Y008655D01*
X011678Y008861D01*
X011471Y008861D01*
X011278Y009055D01*
X011278Y009321D01*
X010511Y010088D01*
X010500Y010089D01*
X010459Y010140D01*
X010414Y010185D01*
X010414Y010197D01*
X010407Y010206D01*
X010414Y010270D01*
X010414Y010335D01*
X010422Y010343D01*
X010498Y011034D01*
X010378Y011155D01*
X010378Y011428D01*
X010571Y011621D01*
X010845Y011621D01*
X011038Y011428D01*
X011038Y011155D01*
X010853Y010970D01*
X010808Y010558D01*
X010971Y010721D01*
X011245Y010721D01*
X011438Y010528D01*
X011438Y010316D01*
X011832Y009921D01*
X011978Y009921D01*
X011978Y010128D01*
X012171Y010321D01*
X012358Y010321D01*
X012711Y010725D01*
X012711Y010728D01*
X012760Y010780D01*
X012807Y010835D01*
X012810Y010835D01*
X012812Y010837D01*
X012883Y010840D01*
X012956Y010844D01*
X012958Y010843D01*
X013410Y010860D01*
X013571Y011021D01*
X013845Y011021D01*
X014038Y010828D01*
X014038Y010555D01*
X013845Y010361D01*
X013571Y010361D01*
X013432Y010501D01*
X012978Y010483D01*
X012765Y010240D01*
X012791Y010240D01*
X014015Y010265D01*
X014171Y010421D01*
X014445Y010421D01*
X014638Y010228D01*
X014638Y009955D01*
X014445Y009761D01*
X014171Y009761D01*
X014027Y009906D01*
X013962Y009904D01*
X014138Y009728D01*
X014138Y009455D01*
X013945Y009261D01*
X013738Y009261D01*
X013738Y009155D01*
X013561Y008978D01*
X013537Y008887D01*
X013571Y008921D01*
X013845Y008921D01*
X014038Y008728D01*
X014038Y008455D01*
X013869Y008286D01*
X013774Y006755D01*
X013774Y006685D01*
X013769Y006681D01*
X013769Y006674D01*
X013717Y006629D01*
X013710Y006621D01*
X013764Y006621D01*
X014336Y007253D01*
X014347Y007286D01*
X014278Y007355D01*
X014278Y007628D01*
X014471Y007821D01*
X014745Y007821D01*
X014938Y007628D01*
X014938Y007355D01*
X014745Y007161D01*
X014685Y007161D01*
X014675Y007134D01*
X014677Y007094D01*
X014652Y007066D01*
X014640Y007031D01*
X014604Y007013D01*
X014038Y006388D01*
X014038Y006155D01*
X013845Y005961D01*
X013647Y005961D01*
X016266Y003342D01*
X016869Y003356D01*
X016892Y003412D01*
X017002Y003522D01*
X017145Y003581D01*
X017820Y003581D01*
X017964Y003522D01*
X018074Y003412D01*
X018133Y003269D01*
X018133Y003114D01*
X018074Y002971D01*
X017964Y002861D01*
X017820Y002801D01*
X017145Y002801D01*
X017002Y002861D01*
X016892Y002971D01*
X016881Y002997D01*
X016270Y002982D01*
X016268Y002980D01*
X016196Y002980D01*
X016124Y002978D01*
X016122Y002980D01*
X016119Y002980D01*
X016068Y003031D01*
X016016Y003081D01*
X016016Y003084D01*
X013014Y006085D01*
X013014Y006235D01*
X013014Y006435D01*
X013119Y006540D01*
X013418Y006839D01*
X013511Y008322D01*
X013378Y008455D01*
X013378Y008621D01*
X012738Y007981D01*
X012738Y007755D01*
X012731Y007748D01*
X012827Y005339D01*
X012938Y005228D01*
X012938Y004955D01*
X012745Y004761D01*
X012547Y004761D01*
X014967Y002341D01*
X016872Y002364D01*
X016892Y002412D01*
X017002Y002522D01*
X017145Y002581D01*
X017820Y002581D01*
X017964Y002522D01*
X018074Y002412D01*
X018133Y002269D01*
X018133Y002114D01*
X018074Y001971D01*
X017964Y001861D01*
X017820Y001801D01*
X017145Y001801D01*
X017002Y001861D01*
X016898Y001965D02*
X012636Y001965D01*
X012947Y002064D02*
X014735Y002064D01*
X014637Y002162D02*
X013045Y002162D01*
X013138Y002261D02*
X014538Y002261D01*
X014440Y002359D02*
X013138Y002359D01*
X013138Y002458D02*
X014341Y002458D01*
X014243Y002557D02*
X013109Y002557D01*
X013011Y002655D02*
X014144Y002655D01*
X014046Y002754D02*
X011237Y002754D01*
X011238Y002755D02*
X011045Y002561D01*
X010771Y002561D01*
X010578Y002755D01*
X010578Y003028D01*
X010728Y003178D01*
X010728Y003405D01*
X010625Y003508D01*
X008469Y003481D01*
X008468Y003480D01*
X008394Y003480D01*
X008321Y003479D01*
X008321Y003480D01*
X008319Y003480D01*
X008267Y003532D01*
X008215Y003583D01*
X008215Y003585D01*
X004302Y007497D01*
X004340Y007405D01*
X004340Y007228D01*
X004273Y007064D01*
X004147Y006939D01*
X003984Y006872D01*
X003807Y006872D01*
X003643Y006939D01*
X003518Y007064D01*
X003450Y007228D01*
X003450Y007405D01*
X003518Y007569D01*
X003643Y007694D01*
X003807Y007761D01*
X003984Y007761D01*
X004076Y007723D01*
X003928Y007872D01*
X003807Y007872D01*
X003643Y007939D01*
X003518Y008064D01*
X003450Y008228D01*
X003450Y008405D01*
X003518Y008569D01*
X003643Y008694D01*
X003807Y008761D01*
X003984Y008761D01*
X004147Y008694D01*
X004273Y008569D01*
X004340Y008405D01*
X004340Y008228D01*
X004273Y008064D01*
X004258Y008050D01*
X008467Y003841D01*
X010618Y003868D01*
X010771Y004021D01*
X011045Y004021D01*
X011238Y003828D01*
X011238Y003555D01*
X011088Y003405D01*
X011088Y003178D01*
X011238Y003028D01*
X011238Y002755D01*
X011238Y002852D02*
X013947Y002852D01*
X013849Y002951D02*
X011238Y002951D01*
X011217Y003049D02*
X013750Y003049D01*
X013651Y003148D02*
X011118Y003148D01*
X011088Y003246D02*
X013553Y003246D01*
X013454Y003345D02*
X011088Y003345D01*
X011126Y003443D02*
X013356Y003443D01*
X013257Y003542D02*
X012625Y003542D01*
X012545Y003461D02*
X012271Y003461D01*
X012078Y003655D01*
X012078Y003867D01*
X011238Y004707D01*
X011238Y004555D01*
X011045Y004361D01*
X010771Y004361D01*
X010578Y004555D01*
X010578Y004724D01*
X010131Y005080D01*
X010119Y005080D01*
X010074Y005126D01*
X010023Y005166D01*
X010022Y005177D01*
X010014Y005185D01*
X010014Y005250D01*
X010006Y005314D01*
X010014Y005323D01*
X010014Y005594D01*
X010008Y005601D01*
X010014Y005668D01*
X010014Y005735D01*
X010020Y005741D01*
X010021Y005750D01*
X010072Y005793D01*
X010119Y005840D01*
X010128Y005840D01*
X010378Y006050D01*
X010378Y006228D01*
X010571Y006421D01*
X010693Y006421D01*
X009466Y007761D01*
X009271Y007761D01*
X009078Y007955D01*
X009078Y008228D01*
X009271Y008421D01*
X009545Y008421D01*
X009738Y008228D01*
X009738Y007998D01*
X011124Y006484D01*
X011174Y006435D01*
X011174Y006430D01*
X011177Y006427D01*
X011174Y006356D01*
X011174Y005871D01*
X011182Y005809D01*
X011174Y005798D01*
X011174Y005785D01*
X011129Y005741D01*
X011038Y005623D01*
X011038Y005416D01*
X012332Y004121D01*
X012545Y004121D01*
X012738Y003928D01*
X012738Y003655D01*
X012545Y003461D01*
X012724Y003641D02*
X013159Y003641D01*
X013060Y003739D02*
X012738Y003739D01*
X012738Y003838D02*
X012962Y003838D01*
X012863Y003936D02*
X012730Y003936D01*
X012765Y004035D02*
X012631Y004035D01*
X012666Y004133D02*
X012321Y004133D01*
X012222Y004232D02*
X012567Y004232D01*
X012469Y004330D02*
X012124Y004330D01*
X012025Y004429D02*
X012370Y004429D01*
X012272Y004527D02*
X011926Y004527D01*
X011828Y004626D02*
X012173Y004626D01*
X012075Y004724D02*
X011729Y004724D01*
X011631Y004823D02*
X011976Y004823D01*
X011878Y004922D02*
X011532Y004922D01*
X011434Y005020D02*
X011779Y005020D01*
X011681Y005119D02*
X011335Y005119D01*
X011237Y005217D02*
X011614Y005217D01*
X011614Y005316D02*
X011138Y005316D01*
X011040Y005414D02*
X011614Y005414D01*
X011614Y005513D02*
X011038Y005513D01*
X011038Y005611D02*
X011614Y005611D01*
X011614Y005710D02*
X011105Y005710D01*
X011182Y005808D02*
X011614Y005808D01*
X011614Y005907D02*
X011174Y005907D01*
X011174Y006006D02*
X011614Y006006D01*
X011614Y006104D02*
X011174Y006104D01*
X011174Y006203D02*
X011614Y006203D01*
X011614Y006301D02*
X011174Y006301D01*
X011176Y006400D02*
X011614Y006400D01*
X011614Y006498D02*
X011111Y006498D01*
X011021Y006597D02*
X011614Y006597D01*
X011614Y006695D02*
X010931Y006695D01*
X010840Y006794D02*
X011614Y006794D01*
X011614Y006892D02*
X010750Y006892D01*
X010660Y006991D02*
X011614Y006991D01*
X011614Y007090D02*
X010570Y007090D01*
X010479Y007188D02*
X011614Y007188D01*
X011614Y007287D02*
X010389Y007287D01*
X010299Y007385D02*
X011614Y007385D01*
X011614Y007484D02*
X010209Y007484D01*
X010118Y007582D02*
X011614Y007582D01*
X011614Y007681D02*
X010028Y007681D01*
X009938Y007779D02*
X011614Y007779D01*
X011614Y007878D02*
X009848Y007878D01*
X009757Y007976D02*
X011614Y007976D01*
X011614Y008075D02*
X009738Y008075D01*
X009738Y008174D02*
X011614Y008174D01*
X011614Y008272D02*
X009694Y008272D01*
X009595Y008371D02*
X011614Y008371D01*
X011614Y008469D02*
X006022Y008469D01*
X006022Y008371D02*
X009220Y008371D01*
X009122Y008272D02*
X006022Y008272D01*
X006022Y008174D02*
X009078Y008174D01*
X009078Y008075D02*
X006022Y008075D01*
X006022Y007976D02*
X009078Y007976D01*
X009155Y007878D02*
X006022Y007878D01*
X006022Y007779D02*
X009253Y007779D01*
X009540Y007681D02*
X006022Y007681D01*
X006022Y007582D02*
X009630Y007582D01*
X009721Y007484D02*
X006022Y007484D01*
X006022Y007385D02*
X009811Y007385D01*
X009901Y007287D02*
X006121Y007287D01*
X006022Y007368D02*
X006566Y006921D01*
X006745Y006921D01*
X006938Y006728D01*
X006938Y006585D01*
X007901Y005621D01*
X008045Y005621D01*
X008238Y005428D01*
X008238Y005155D01*
X008045Y004961D01*
X007771Y004961D01*
X007578Y005155D01*
X007578Y005298D01*
X006615Y006261D01*
X006471Y006261D01*
X006278Y006455D01*
X006278Y006567D01*
X005712Y007032D01*
X005699Y007032D01*
X005640Y007091D01*
X005576Y007143D01*
X005574Y007156D01*
X005565Y007165D01*
X005565Y007249D01*
X005557Y007332D01*
X005565Y007342D01*
X005565Y010076D01*
X005493Y010148D01*
X005428Y010306D01*
X005428Y011077D01*
X005493Y011235D01*
X005614Y011356D01*
X005772Y011421D01*
X005943Y011421D01*
X006101Y011356D01*
X006222Y011235D01*
X006288Y011077D01*
X006288Y010306D01*
X006222Y010148D01*
X006101Y010027D01*
X006022Y009994D01*
X006022Y007368D01*
X006241Y007188D02*
X009991Y007188D01*
X010081Y007090D02*
X006361Y007090D01*
X006481Y006991D02*
X010172Y006991D01*
X010262Y006892D02*
X006774Y006892D01*
X006872Y006794D02*
X010352Y006794D01*
X010443Y006695D02*
X006938Y006695D01*
X006938Y006597D02*
X010533Y006597D01*
X010623Y006498D02*
X007024Y006498D01*
X007123Y006400D02*
X010549Y006400D01*
X010451Y006301D02*
X008965Y006301D01*
X008945Y006321D02*
X009138Y006128D01*
X009138Y005855D01*
X008988Y005705D01*
X008988Y005478D01*
X009138Y005328D01*
X009138Y005055D01*
X008945Y004861D01*
X008671Y004861D01*
X008478Y005055D01*
X008478Y005328D01*
X008628Y005478D01*
X008628Y005705D01*
X008478Y005855D01*
X008478Y006128D01*
X008671Y006321D01*
X008945Y006321D01*
X009063Y006203D02*
X010378Y006203D01*
X010378Y006104D02*
X009138Y006104D01*
X009138Y006006D02*
X010326Y006006D01*
X010208Y005907D02*
X009138Y005907D01*
X009092Y005808D02*
X010088Y005808D01*
X010014Y005710D02*
X008993Y005710D01*
X008988Y005611D02*
X010009Y005611D01*
X010014Y005513D02*
X008988Y005513D01*
X009052Y005414D02*
X010014Y005414D01*
X010008Y005316D02*
X009138Y005316D01*
X009138Y005217D02*
X010014Y005217D01*
X010081Y005119D02*
X009138Y005119D01*
X009103Y005020D02*
X010206Y005020D01*
X010330Y004922D02*
X009005Y004922D01*
X008611Y004922D02*
X007387Y004922D01*
X007288Y005020D02*
X007713Y005020D01*
X007614Y005119D02*
X007190Y005119D01*
X007091Y005217D02*
X007578Y005217D01*
X007561Y005316D02*
X006992Y005316D01*
X006894Y005414D02*
X007462Y005414D01*
X007364Y005513D02*
X006795Y005513D01*
X006697Y005611D02*
X007265Y005611D01*
X007166Y005710D02*
X006598Y005710D01*
X006500Y005808D02*
X007068Y005808D01*
X006969Y005907D02*
X006401Y005907D01*
X006303Y006006D02*
X006871Y006006D01*
X006772Y006104D02*
X006204Y006104D01*
X006106Y006203D02*
X006674Y006203D01*
X006432Y006301D02*
X006007Y006301D01*
X005909Y006400D02*
X006333Y006400D01*
X006278Y006498D02*
X005810Y006498D01*
X005711Y006597D02*
X006241Y006597D01*
X006121Y006695D02*
X005613Y006695D01*
X005514Y006794D02*
X006001Y006794D01*
X005881Y006892D02*
X005416Y006892D01*
X005317Y006991D02*
X005761Y006991D01*
X005641Y007090D02*
X005219Y007090D01*
X005120Y007188D02*
X005565Y007188D01*
X005562Y007287D02*
X005022Y007287D01*
X004923Y007385D02*
X005565Y007385D01*
X005565Y007484D02*
X004825Y007484D01*
X004726Y007582D02*
X005565Y007582D01*
X005565Y007681D02*
X004627Y007681D01*
X004529Y007779D02*
X005565Y007779D01*
X005565Y007878D02*
X004430Y007878D01*
X004332Y007976D02*
X005565Y007976D01*
X005565Y008075D02*
X004277Y008075D01*
X004318Y008174D02*
X005565Y008174D01*
X005565Y008272D02*
X004340Y008272D01*
X004340Y008371D02*
X005565Y008371D01*
X005565Y008469D02*
X004314Y008469D01*
X004273Y008568D02*
X005565Y008568D01*
X005565Y008666D02*
X004175Y008666D01*
X003616Y008666D02*
X000558Y008666D01*
X000558Y008568D02*
X003518Y008568D01*
X003477Y008469D02*
X000558Y008469D01*
X000558Y008371D02*
X003450Y008371D01*
X003450Y008272D02*
X000558Y008272D01*
X000558Y008174D02*
X003473Y008174D01*
X003514Y008075D02*
X000558Y008075D01*
X000558Y007976D02*
X003606Y007976D01*
X003791Y007878D02*
X000558Y007878D01*
X000558Y007779D02*
X004020Y007779D01*
X003630Y007681D02*
X000558Y007681D01*
X000558Y007582D02*
X003532Y007582D01*
X003483Y007484D02*
X000558Y007484D01*
X000558Y007385D02*
X003450Y007385D01*
X003450Y007287D02*
X000558Y007287D01*
X000558Y007188D02*
X003467Y007188D01*
X003508Y007090D02*
X000558Y007090D01*
X000558Y006991D02*
X003591Y006991D01*
X003756Y006892D02*
X000558Y006892D01*
X000558Y006794D02*
X005005Y006794D01*
X004999Y006691D02*
X005058Y006633D01*
X005058Y005342D01*
X005242Y005266D01*
X005432Y005075D01*
X005535Y004826D01*
X005535Y004557D01*
X005432Y004308D01*
X005242Y004117D01*
X005058Y004041D01*
X005058Y002750D01*
X004999Y002691D01*
X004916Y002691D01*
X001249Y002691D01*
X001166Y002691D01*
X001108Y002750D01*
X001108Y006550D01*
X001108Y006633D01*
X001166Y006691D01*
X004916Y006691D01*
X004999Y006691D01*
X005104Y006695D02*
X000558Y006695D01*
X000558Y006597D02*
X001108Y006597D01*
X001108Y006498D02*
X000558Y006498D01*
X000558Y006400D02*
X001108Y006400D01*
X001108Y006301D02*
X000558Y006301D01*
X000558Y006203D02*
X001108Y006203D01*
X001108Y006104D02*
X000558Y006104D01*
X000558Y006006D02*
X001108Y006006D01*
X001108Y005907D02*
X000558Y005907D01*
X000558Y005808D02*
X001108Y005808D01*
X001108Y005710D02*
X000558Y005710D01*
X000558Y005611D02*
X001108Y005611D01*
X001108Y005513D02*
X000558Y005513D01*
X000558Y005414D02*
X001108Y005414D01*
X001108Y005316D02*
X000558Y005316D01*
X000558Y005217D02*
X001108Y005217D01*
X001108Y005119D02*
X000558Y005119D01*
X000558Y005020D02*
X001108Y005020D01*
X001108Y004922D02*
X000558Y004922D01*
X000558Y004823D02*
X001108Y004823D01*
X001108Y004724D02*
X000558Y004724D01*
X000558Y004626D02*
X001108Y004626D01*
X001108Y004527D02*
X000558Y004527D01*
X000558Y004429D02*
X001108Y004429D01*
X001108Y004330D02*
X000558Y004330D01*
X000558Y004232D02*
X001108Y004232D01*
X001108Y004133D02*
X000558Y004133D01*
X000558Y004035D02*
X001108Y004035D01*
X001108Y003936D02*
X000558Y003936D01*
X000558Y003838D02*
X001108Y003838D01*
X001108Y003739D02*
X000558Y003739D01*
X000558Y003641D02*
X001108Y003641D01*
X001108Y003542D02*
X000558Y003542D01*
X000558Y003443D02*
X001108Y003443D01*
X001108Y003345D02*
X000558Y003345D01*
X000558Y003246D02*
X001108Y003246D01*
X001108Y003148D02*
X000558Y003148D01*
X000558Y003049D02*
X001108Y003049D01*
X001108Y002951D02*
X000558Y002951D01*
X000558Y002852D02*
X001108Y002852D01*
X001108Y002754D02*
X000558Y002754D01*
X000558Y002655D02*
X010678Y002655D01*
X010579Y002754D02*
X005058Y002754D01*
X005058Y002852D02*
X010578Y002852D01*
X010578Y002951D02*
X005058Y002951D01*
X005058Y003049D02*
X010599Y003049D01*
X010698Y003148D02*
X005058Y003148D01*
X005058Y003246D02*
X010728Y003246D01*
X010728Y003345D02*
X005058Y003345D01*
X005058Y003443D02*
X010689Y003443D01*
X010908Y003691D02*
X008394Y003660D01*
X003794Y008260D01*
X003895Y008316D01*
X004308Y007484D02*
X004316Y007484D01*
X004340Y007385D02*
X004414Y007385D01*
X004340Y007287D02*
X004513Y007287D01*
X004611Y007188D02*
X004324Y007188D01*
X004283Y007090D02*
X004710Y007090D01*
X004808Y006991D02*
X004199Y006991D01*
X004034Y006892D02*
X004907Y006892D01*
X005058Y006597D02*
X005202Y006597D01*
X005301Y006498D02*
X005058Y006498D01*
X005058Y006400D02*
X005399Y006400D01*
X005498Y006301D02*
X005058Y006301D01*
X005058Y006203D02*
X005597Y006203D01*
X005695Y006104D02*
X005058Y006104D01*
X005058Y006006D02*
X005794Y006006D01*
X005892Y005907D02*
X005058Y005907D01*
X005058Y005808D02*
X005991Y005808D01*
X006089Y005710D02*
X005058Y005710D01*
X005058Y005611D02*
X006188Y005611D01*
X006286Y005513D02*
X005058Y005513D01*
X005058Y005414D02*
X006385Y005414D01*
X006483Y005316D02*
X005121Y005316D01*
X005290Y005217D02*
X006582Y005217D01*
X006681Y005119D02*
X005389Y005119D01*
X005455Y005020D02*
X006779Y005020D01*
X006878Y004922D02*
X005496Y004922D01*
X005535Y004823D02*
X006976Y004823D01*
X007075Y004724D02*
X005535Y004724D01*
X005535Y004626D02*
X007173Y004626D01*
X007272Y004527D02*
X005523Y004527D01*
X005482Y004429D02*
X007370Y004429D01*
X007469Y004330D02*
X005442Y004330D01*
X005356Y004232D02*
X007567Y004232D01*
X007666Y004133D02*
X005258Y004133D01*
X005058Y004035D02*
X007765Y004035D01*
X007863Y003936D02*
X005058Y003936D01*
X005058Y003838D02*
X007962Y003838D01*
X008060Y003739D02*
X005058Y003739D01*
X005058Y003641D02*
X008159Y003641D01*
X008257Y003542D02*
X005058Y003542D01*
X004858Y003542D02*
X001308Y003542D01*
X001308Y003641D02*
X004858Y003641D01*
X004858Y003739D02*
X001308Y003739D01*
X001308Y003838D02*
X004858Y003838D01*
X004858Y003936D02*
X001308Y003936D01*
X001308Y004035D02*
X001773Y004035D01*
X001823Y004014D02*
X001574Y004117D01*
X001384Y004308D01*
X001308Y004490D01*
X001308Y002891D01*
X004858Y002891D01*
X004858Y004014D01*
X004723Y004014D01*
X004474Y004117D01*
X004284Y004308D01*
X004180Y004557D01*
X004180Y004826D01*
X004284Y005075D01*
X004474Y005266D01*
X004723Y005369D01*
X004858Y005369D01*
X004858Y006491D01*
X001308Y006491D01*
X001308Y004893D01*
X001384Y005075D01*
X001574Y005266D01*
X001823Y005369D01*
X002093Y005369D01*
X002342Y005266D01*
X002532Y005075D01*
X002635Y004826D01*
X002635Y004557D01*
X002532Y004308D01*
X002342Y004117D01*
X002093Y004014D01*
X001823Y004014D01*
X001558Y004133D02*
X001308Y004133D01*
X001308Y004232D02*
X001459Y004232D01*
X001374Y004330D02*
X001308Y004330D01*
X001308Y004429D02*
X001333Y004429D01*
X002143Y004035D02*
X004673Y004035D01*
X004458Y004133D02*
X002358Y004133D01*
X002456Y004232D02*
X004359Y004232D01*
X004274Y004330D02*
X002542Y004330D01*
X002582Y004429D02*
X004233Y004429D01*
X004193Y004527D02*
X002623Y004527D01*
X002635Y004626D02*
X004180Y004626D01*
X004180Y004724D02*
X002635Y004724D01*
X002635Y004823D02*
X004180Y004823D01*
X004220Y004922D02*
X002596Y004922D01*
X002555Y005020D02*
X004261Y005020D01*
X004327Y005119D02*
X002489Y005119D01*
X002390Y005217D02*
X004425Y005217D01*
X004595Y005316D02*
X002221Y005316D01*
X001695Y005316D02*
X001308Y005316D01*
X001308Y005414D02*
X004858Y005414D01*
X004858Y005513D02*
X001308Y005513D01*
X001308Y005611D02*
X004858Y005611D01*
X004858Y005710D02*
X001308Y005710D01*
X001308Y005808D02*
X004858Y005808D01*
X004858Y005907D02*
X001308Y005907D01*
X001308Y006006D02*
X004858Y006006D01*
X004858Y006104D02*
X001308Y006104D01*
X001308Y006203D02*
X004858Y006203D01*
X004858Y006301D02*
X001308Y006301D01*
X001308Y006400D02*
X004858Y006400D01*
X007221Y006301D02*
X008651Y006301D01*
X008552Y006203D02*
X007320Y006203D01*
X007418Y006104D02*
X008478Y006104D01*
X008478Y006006D02*
X007517Y006006D01*
X007615Y005907D02*
X008478Y005907D01*
X008524Y005808D02*
X007714Y005808D01*
X007812Y005710D02*
X008623Y005710D01*
X008628Y005611D02*
X008055Y005611D01*
X008153Y005513D02*
X008628Y005513D01*
X008564Y005414D02*
X008238Y005414D01*
X008238Y005316D02*
X008478Y005316D01*
X008478Y005217D02*
X008238Y005217D01*
X008202Y005119D02*
X008478Y005119D01*
X008513Y005020D02*
X008103Y005020D01*
X007485Y004823D02*
X010454Y004823D01*
X010577Y004724D02*
X007584Y004724D01*
X007682Y004626D02*
X010578Y004626D01*
X010605Y004527D02*
X007781Y004527D01*
X007879Y004429D02*
X010704Y004429D01*
X010908Y004691D02*
X010194Y005260D01*
X010194Y005660D01*
X010708Y006091D01*
X010994Y005860D02*
X010994Y006360D01*
X009408Y008091D01*
X009487Y008676D02*
X009288Y008676D01*
X009105Y008753D01*
X008964Y008893D01*
X008888Y009077D01*
X008888Y009276D01*
X008964Y009460D01*
X009105Y009600D01*
X009288Y009676D01*
X009487Y009676D01*
X009671Y009600D01*
X009812Y009460D01*
X009888Y009276D01*
X009888Y009077D01*
X009812Y008893D01*
X009671Y008753D01*
X009487Y008676D01*
X009683Y008765D02*
X011678Y008765D01*
X011678Y008666D02*
X006022Y008666D01*
X006022Y008568D02*
X011647Y008568D01*
X011794Y008460D02*
X011894Y008560D01*
X012008Y008791D01*
X012304Y008962D02*
X012341Y008962D01*
X012323Y008943D02*
X012714Y009335D01*
X012714Y009435D01*
X013014Y009735D01*
X013119Y009840D01*
X013550Y009840D01*
X013578Y009854D01*
X013598Y009848D01*
X013648Y009898D01*
X012870Y009882D01*
X012468Y009479D01*
X012467Y009471D01*
X012416Y009427D01*
X012368Y009380D01*
X012360Y009380D01*
X012353Y009375D01*
X012286Y009380D01*
X012219Y009380D01*
X012213Y009386D01*
X012172Y009389D01*
X012045Y009261D01*
X011938Y009261D01*
X011938Y009121D01*
X012145Y009121D01*
X012323Y008943D01*
X012440Y009060D02*
X012206Y009060D01*
X011938Y009159D02*
X012538Y009159D01*
X012637Y009257D02*
X011938Y009257D01*
X012139Y009356D02*
X012714Y009356D01*
X012734Y009455D02*
X012448Y009455D01*
X012541Y009553D02*
X012832Y009553D01*
X012931Y009652D02*
X012640Y009652D01*
X012738Y009750D02*
X013029Y009750D01*
X013194Y009660D02*
X013594Y009660D01*
X013808Y009591D01*
X014039Y009356D02*
X014328Y009356D01*
X014328Y009401D02*
X014404Y009585D01*
X014545Y009725D01*
X014728Y009801D01*
X014927Y009801D01*
X015111Y009725D01*
X015252Y009585D01*
X015328Y009401D01*
X015328Y009202D01*
X015252Y009018D01*
X015111Y008878D01*
X014927Y008801D01*
X014728Y008801D01*
X014545Y008878D01*
X014404Y009018D01*
X014328Y009202D01*
X014328Y009401D01*
X014350Y009455D02*
X014138Y009455D01*
X014138Y009553D02*
X014391Y009553D01*
X014471Y009652D02*
X014138Y009652D01*
X014116Y009750D02*
X014605Y009750D01*
X014532Y009849D02*
X026158Y009849D01*
X026158Y009947D02*
X014630Y009947D01*
X014638Y010046D02*
X026158Y010046D01*
X026158Y010144D02*
X014638Y010144D01*
X014623Y010243D02*
X026158Y010243D01*
X026158Y010341D02*
X014525Y010341D01*
X014728Y010581D02*
X014927Y010581D01*
X015111Y010658D01*
X015252Y010798D01*
X015328Y010982D01*
X015328Y011181D01*
X015252Y011365D01*
X015111Y011505D01*
X014927Y011581D01*
X014728Y011581D01*
X014545Y011505D01*
X014404Y011365D01*
X014328Y011181D01*
X014328Y010982D01*
X014404Y010798D01*
X014545Y010658D01*
X014728Y010581D01*
X014594Y010637D02*
X014038Y010637D01*
X014038Y010736D02*
X014467Y010736D01*
X014389Y010834D02*
X014032Y010834D01*
X013933Y010933D02*
X014348Y010933D01*
X014328Y011031D02*
X010914Y011031D01*
X010849Y010933D02*
X013482Y010933D01*
X013708Y010691D02*
X012894Y010660D01*
X012308Y009991D01*
X011978Y009947D02*
X011807Y009947D01*
X011708Y010046D02*
X011978Y010046D01*
X011994Y010144D02*
X011610Y010144D01*
X011511Y010243D02*
X012093Y010243D01*
X012375Y010341D02*
X011438Y010341D01*
X011438Y010440D02*
X012462Y010440D01*
X012548Y010539D02*
X011427Y010539D01*
X011329Y010637D02*
X012634Y010637D01*
X012718Y010736D02*
X010827Y010736D01*
X010838Y010834D02*
X012807Y010834D01*
X012940Y010440D02*
X013493Y010440D01*
X013923Y010440D02*
X026158Y010440D01*
X026158Y010539D02*
X014022Y010539D01*
X014091Y010341D02*
X012854Y010341D01*
X012933Y010243D02*
X012768Y010243D01*
X012794Y010060D02*
X012294Y009560D01*
X011908Y009591D01*
X011108Y010391D01*
X010887Y010637D02*
X010817Y010637D01*
X010454Y010637D02*
X009776Y010637D01*
X009812Y010673D02*
X009671Y010533D01*
X009487Y010456D01*
X009288Y010456D01*
X009105Y010533D01*
X008964Y010673D01*
X008888Y010857D01*
X008888Y011056D01*
X008964Y011240D01*
X009105Y011380D01*
X009288Y011456D01*
X009487Y011456D01*
X009671Y011380D01*
X009812Y011240D01*
X009888Y011056D01*
X009888Y010857D01*
X009812Y010673D01*
X009838Y010736D02*
X010465Y010736D01*
X010476Y010834D02*
X009878Y010834D01*
X009888Y010933D02*
X010487Y010933D01*
X010498Y011031D02*
X009888Y011031D01*
X009857Y011130D02*
X010403Y011130D01*
X010378Y011228D02*
X009816Y011228D01*
X009725Y011327D02*
X010378Y011327D01*
X010378Y011425D02*
X009562Y011425D01*
X009214Y011425D02*
X007002Y011425D01*
X006927Y011456D02*
X007111Y011380D01*
X007252Y011240D01*
X007328Y011056D01*
X007328Y010857D01*
X007252Y010673D01*
X007111Y010533D01*
X006927Y010456D01*
X006728Y010456D01*
X006545Y010533D01*
X006404Y010673D01*
X006328Y010857D01*
X006328Y011056D01*
X006404Y011240D01*
X006545Y011380D01*
X006728Y011456D01*
X006927Y011456D01*
X007165Y011327D02*
X009051Y011327D01*
X008959Y011228D02*
X007256Y011228D01*
X007297Y011130D02*
X008919Y011130D01*
X008888Y011031D02*
X007328Y011031D01*
X007328Y010933D02*
X008888Y010933D01*
X008897Y010834D02*
X007318Y010834D01*
X007278Y010736D02*
X008938Y010736D01*
X009000Y010637D02*
X007216Y010637D01*
X007117Y010539D02*
X009099Y010539D01*
X009677Y010539D02*
X010443Y010539D01*
X010433Y010440D02*
X006288Y010440D01*
X006288Y010539D02*
X006539Y010539D01*
X006440Y010637D02*
X006288Y010637D01*
X006288Y010736D02*
X006378Y010736D01*
X006337Y010834D02*
X006288Y010834D01*
X006288Y010933D02*
X006328Y010933D01*
X006328Y011031D02*
X006288Y011031D01*
X006266Y011130D02*
X006359Y011130D01*
X006399Y011228D02*
X006225Y011228D01*
X006131Y011327D02*
X006491Y011327D01*
X006654Y011425D02*
X001340Y011425D01*
X001283Y011327D02*
X001585Y011327D01*
X001614Y011356D02*
X001493Y011235D01*
X001428Y011077D01*
X001428Y010306D01*
X001493Y010148D01*
X001614Y010027D01*
X001772Y009961D01*
X001943Y009961D01*
X002101Y010027D01*
X002222Y010148D01*
X002288Y010306D01*
X002288Y011077D01*
X002222Y011235D01*
X002101Y011356D01*
X001943Y011421D01*
X001772Y011421D01*
X001614Y011356D01*
X001491Y011228D02*
X001195Y011228D01*
X001268Y011301D02*
X001268Y011301D01*
X001097Y011130D02*
X001450Y011130D01*
X001428Y011031D02*
X000998Y011031D01*
X000998Y011031D01*
X000828Y010933D02*
X001428Y010933D01*
X001428Y010834D02*
X000644Y010834D01*
X000558Y010736D02*
X001428Y010736D01*
X001428Y010637D02*
X000558Y010637D01*
X000558Y010539D02*
X001428Y010539D01*
X001428Y010440D02*
X000558Y010440D01*
X000558Y010341D02*
X001428Y010341D01*
X001454Y010243D02*
X000558Y010243D01*
X000558Y010144D02*
X001497Y010144D01*
X001595Y010046D02*
X000558Y010046D01*
X000558Y009947D02*
X005565Y009947D01*
X005565Y009849D02*
X000558Y009849D01*
X000558Y009750D02*
X005565Y009750D01*
X005565Y009652D02*
X000558Y009652D01*
X000558Y009553D02*
X005565Y009553D01*
X005565Y009455D02*
X000558Y009455D01*
X000558Y009356D02*
X005565Y009356D01*
X005565Y009257D02*
X000558Y009257D01*
X000558Y009159D02*
X005565Y009159D01*
X005565Y009060D02*
X000558Y009060D01*
X000558Y008962D02*
X005565Y008962D01*
X005565Y008863D02*
X000558Y008863D01*
X000558Y008765D02*
X005565Y008765D01*
X006022Y008765D02*
X006533Y008765D01*
X006545Y008753D02*
X006404Y008893D01*
X006328Y009077D01*
X006328Y009276D01*
X006404Y009460D01*
X006545Y009600D01*
X006728Y009676D01*
X006927Y009676D01*
X007111Y009600D01*
X007252Y009460D01*
X007328Y009276D01*
X007328Y009077D01*
X007252Y008893D01*
X007111Y008753D01*
X006927Y008676D01*
X006728Y008676D01*
X006545Y008753D01*
X006434Y008863D02*
X006022Y008863D01*
X006022Y008962D02*
X006376Y008962D01*
X006335Y009060D02*
X006022Y009060D01*
X006022Y009159D02*
X006328Y009159D01*
X006328Y009257D02*
X006022Y009257D01*
X006022Y009356D02*
X006361Y009356D01*
X006402Y009455D02*
X006022Y009455D01*
X006022Y009553D02*
X006497Y009553D01*
X006669Y009652D02*
X006022Y009652D01*
X006022Y009750D02*
X010849Y009750D01*
X010948Y009652D02*
X009547Y009652D01*
X009718Y009553D02*
X011046Y009553D01*
X011145Y009455D02*
X009814Y009455D01*
X009855Y009356D02*
X011243Y009356D01*
X011278Y009257D02*
X009888Y009257D01*
X009888Y009159D02*
X011278Y009159D01*
X011278Y009060D02*
X009881Y009060D01*
X009840Y008962D02*
X011371Y008962D01*
X011469Y008863D02*
X009782Y008863D01*
X009093Y008765D02*
X007123Y008765D01*
X007222Y008863D02*
X008994Y008863D01*
X008936Y008962D02*
X007280Y008962D01*
X007321Y009060D02*
X008895Y009060D01*
X008888Y009159D02*
X007328Y009159D01*
X007328Y009257D02*
X008888Y009257D01*
X008921Y009356D02*
X007295Y009356D01*
X007254Y009455D02*
X008962Y009455D01*
X009057Y009553D02*
X007158Y009553D01*
X006987Y009652D02*
X009229Y009652D01*
X010455Y010144D02*
X006219Y010144D01*
X006262Y010243D02*
X010411Y010243D01*
X010421Y010341D02*
X006288Y010341D01*
X006120Y010046D02*
X010553Y010046D01*
X010652Y009947D02*
X006022Y009947D01*
X006022Y009849D02*
X010750Y009849D01*
X011047Y010061D02*
X011578Y009530D01*
X011578Y009667D01*
X011183Y010061D01*
X011047Y010061D01*
X011062Y010046D02*
X011199Y010046D01*
X011161Y009947D02*
X011298Y009947D01*
X011259Y009849D02*
X011396Y009849D01*
X011358Y009750D02*
X011495Y009750D01*
X011457Y009652D02*
X011578Y009652D01*
X011578Y009553D02*
X011555Y009553D01*
X011494Y009360D02*
X010594Y010260D01*
X010708Y011291D01*
X011038Y011327D02*
X014388Y011327D01*
X014348Y011228D02*
X011038Y011228D01*
X011013Y011130D02*
X014328Y011130D01*
X014465Y011425D02*
X011038Y011425D01*
X010942Y011524D02*
X014590Y011524D01*
X015066Y011524D02*
X017150Y011524D01*
X017105Y011505D02*
X017288Y011581D01*
X017487Y011581D01*
X017671Y011505D01*
X017812Y011365D01*
X017888Y011181D01*
X017888Y010982D01*
X017812Y010798D01*
X017671Y010658D01*
X017487Y010581D01*
X017288Y010581D01*
X017105Y010658D01*
X016964Y010798D01*
X016888Y010982D01*
X016888Y011181D01*
X016964Y011365D01*
X017105Y011505D01*
X017025Y011425D02*
X015191Y011425D01*
X015267Y011327D02*
X016948Y011327D01*
X016908Y011228D02*
X015308Y011228D01*
X015328Y011130D02*
X016888Y011130D01*
X016888Y011031D02*
X015328Y011031D01*
X015307Y010933D02*
X016908Y010933D01*
X016949Y010834D02*
X015267Y010834D01*
X015189Y010736D02*
X017027Y010736D01*
X017154Y010637D02*
X015062Y010637D01*
X014308Y010091D02*
X012794Y010060D01*
X012837Y009849D02*
X013567Y009849D01*
X013594Y009849D02*
X013599Y009849D01*
X014017Y009849D02*
X014084Y009849D01*
X013194Y009660D02*
X012894Y009360D01*
X012894Y009260D01*
X012194Y008560D01*
X012308Y008391D01*
X011978Y008390D02*
X011978Y008255D01*
X012141Y008091D01*
X012078Y008028D01*
X012078Y007755D01*
X012271Y007561D01*
X012281Y007561D01*
X012370Y005320D01*
X012278Y005228D01*
X012278Y005030D01*
X011974Y005335D01*
X011974Y008385D01*
X011978Y008390D01*
X011978Y008371D02*
X011974Y008371D01*
X011978Y008272D02*
X011974Y008272D01*
X011974Y008174D02*
X012059Y008174D01*
X012125Y008075D02*
X011974Y008075D01*
X011974Y007976D02*
X012078Y007976D01*
X012078Y007878D02*
X011974Y007878D01*
X011974Y007779D02*
X012078Y007779D01*
X012152Y007681D02*
X011974Y007681D01*
X011974Y007582D02*
X012250Y007582D01*
X012284Y007484D02*
X011974Y007484D01*
X011974Y007385D02*
X012288Y007385D01*
X012292Y007287D02*
X011974Y007287D01*
X011974Y007188D02*
X012296Y007188D01*
X012300Y007090D02*
X011974Y007090D01*
X011974Y006991D02*
X012304Y006991D01*
X012308Y006892D02*
X011974Y006892D01*
X011974Y006794D02*
X012312Y006794D01*
X012315Y006695D02*
X011974Y006695D01*
X011974Y006597D02*
X012319Y006597D01*
X012323Y006498D02*
X011974Y006498D01*
X011974Y006400D02*
X012327Y006400D01*
X012331Y006301D02*
X011974Y006301D01*
X011974Y006203D02*
X012335Y006203D01*
X012339Y006104D02*
X011974Y006104D01*
X011974Y006006D02*
X012343Y006006D01*
X012347Y005907D02*
X011974Y005907D01*
X011974Y005808D02*
X012351Y005808D01*
X012355Y005710D02*
X011974Y005710D01*
X011974Y005611D02*
X012359Y005611D01*
X012363Y005513D02*
X011974Y005513D01*
X011974Y005414D02*
X012366Y005414D01*
X012366Y005316D02*
X011992Y005316D01*
X012091Y005217D02*
X012278Y005217D01*
X012278Y005119D02*
X012190Y005119D01*
X011794Y005260D02*
X014894Y002160D01*
X017483Y002191D01*
X018028Y002458D02*
X019938Y002458D01*
X019892Y002412D02*
X020002Y002522D01*
X020145Y002581D01*
X020820Y002581D01*
X020964Y002522D01*
X021074Y002412D01*
X021133Y002269D01*
X021133Y002114D01*
X021074Y001971D01*
X020964Y001861D01*
X020820Y001801D01*
X020145Y001801D01*
X020002Y001861D01*
X019892Y001971D01*
X019833Y002114D01*
X019833Y002269D01*
X019892Y002412D01*
X019870Y002359D02*
X018095Y002359D01*
X018133Y002261D02*
X019833Y002261D01*
X019833Y002162D02*
X018133Y002162D01*
X018112Y002064D02*
X019854Y002064D01*
X019898Y001965D02*
X018068Y001965D01*
X017970Y001867D02*
X019996Y001867D01*
X020970Y001867D02*
X026158Y001867D01*
X026158Y001965D02*
X021068Y001965D01*
X021112Y002064D02*
X026158Y002064D01*
X026158Y002162D02*
X025618Y002162D01*
X025579Y002146D02*
X025387Y002146D01*
X025209Y002220D01*
X025072Y002356D01*
X024999Y002534D01*
X024999Y002727D01*
X025072Y002905D01*
X025209Y003041D01*
X025387Y003115D01*
X025579Y003115D01*
X025757Y003041D01*
X025893Y002905D01*
X025967Y002727D01*
X025967Y002534D01*
X025893Y002356D01*
X025757Y002220D01*
X025579Y002146D01*
X025347Y002162D02*
X021133Y002162D01*
X021133Y002261D02*
X025168Y002261D01*
X025071Y002359D02*
X021095Y002359D01*
X021028Y002458D02*
X025030Y002458D01*
X024999Y002557D02*
X020881Y002557D01*
X020994Y002891D02*
X021074Y002971D01*
X021133Y003114D01*
X021133Y003269D01*
X021074Y003412D01*
X020964Y003522D01*
X020820Y003581D01*
X020145Y003581D01*
X020002Y003522D01*
X019892Y003412D01*
X019833Y003269D01*
X019833Y003114D01*
X019892Y002971D01*
X019971Y002891D01*
X018858Y002891D01*
X018858Y004014D01*
X018993Y004014D01*
X019242Y004117D01*
X019432Y004308D01*
X019535Y004557D01*
X019535Y004826D01*
X019432Y005075D01*
X019242Y005266D01*
X018993Y005369D01*
X018858Y005369D01*
X018858Y006491D01*
X020541Y006491D01*
X020378Y006328D01*
X020378Y006055D01*
X020449Y005984D01*
X020394Y005581D01*
X020145Y005581D01*
X020002Y005522D01*
X019892Y005412D01*
X019833Y005269D01*
X019833Y005114D01*
X019892Y004971D01*
X020002Y004861D01*
X020145Y004801D01*
X020820Y004801D01*
X020964Y004861D01*
X021074Y004971D01*
X021133Y005114D01*
X021133Y005269D01*
X021074Y005412D01*
X020964Y005522D01*
X020853Y005568D01*
X020901Y005918D01*
X021038Y006055D01*
X021038Y006328D01*
X020874Y006491D01*
X022408Y006491D01*
X022408Y004893D01*
X022332Y005075D01*
X022142Y005266D01*
X021893Y005369D01*
X021623Y005369D01*
X021374Y005266D01*
X021184Y005075D01*
X021080Y004826D01*
X021080Y004557D01*
X021184Y004308D01*
X021374Y004117D01*
X021623Y004014D01*
X021893Y004014D01*
X022142Y004117D01*
X022332Y004308D01*
X022408Y004490D01*
X022408Y002891D01*
X020994Y002891D01*
X021054Y002951D02*
X022408Y002951D01*
X022408Y003049D02*
X021106Y003049D01*
X021133Y003148D02*
X022408Y003148D01*
X022408Y003246D02*
X021133Y003246D01*
X021101Y003345D02*
X022408Y003345D01*
X022408Y003443D02*
X021042Y003443D01*
X020916Y003542D02*
X022408Y003542D01*
X022408Y003641D02*
X018858Y003641D01*
X018858Y003739D02*
X022408Y003739D01*
X022408Y003838D02*
X020908Y003838D01*
X020964Y003861D02*
X020820Y003801D01*
X020145Y003801D01*
X020002Y003861D01*
X019892Y003971D01*
X019833Y004114D01*
X019833Y004269D01*
X019892Y004412D01*
X020002Y004522D01*
X020145Y004581D01*
X020820Y004581D01*
X020964Y004522D01*
X021074Y004412D01*
X021133Y004269D01*
X021133Y004114D01*
X021074Y003971D01*
X020964Y003861D01*
X021039Y003936D02*
X022408Y003936D01*
X022408Y004035D02*
X021943Y004035D01*
X022158Y004133D02*
X022408Y004133D01*
X022408Y004232D02*
X022256Y004232D01*
X022342Y004330D02*
X022408Y004330D01*
X022408Y004429D02*
X022382Y004429D01*
X022608Y004429D02*
X024702Y004429D01*
X024702Y004364D02*
X024761Y004222D01*
X024870Y004113D01*
X025012Y004054D01*
X025166Y004054D01*
X025309Y004113D01*
X025418Y004222D01*
X025477Y004364D01*
X025477Y004519D01*
X025418Y004661D01*
X025309Y004770D01*
X025166Y004829D01*
X025012Y004829D01*
X024870Y004770D01*
X024761Y004661D01*
X024702Y004519D01*
X024702Y004364D01*
X024716Y004330D02*
X022608Y004330D01*
X022608Y004232D02*
X024757Y004232D01*
X024849Y004133D02*
X022608Y004133D01*
X022608Y004035D02*
X024996Y004035D01*
X025012Y004042D02*
X025166Y004042D01*
X025309Y003983D01*
X025418Y003874D01*
X025477Y003731D01*
X025477Y003577D01*
X025418Y003435D01*
X025309Y003326D01*
X025166Y003267D01*
X025012Y003267D01*
X024870Y003326D01*
X024761Y003435D01*
X024702Y003577D01*
X024702Y003731D01*
X024761Y003874D01*
X024870Y003983D01*
X025012Y004042D01*
X025183Y004035D02*
X025783Y004035D01*
X025637Y004133D02*
X025329Y004133D01*
X025422Y004232D02*
X025544Y004232D01*
X025503Y004330D02*
X025463Y004330D01*
X025477Y004429D02*
X025489Y004429D01*
X025493Y004527D02*
X025473Y004527D01*
X025432Y004626D02*
X025534Y004626D01*
X025612Y004724D02*
X025354Y004724D01*
X025309Y004900D02*
X025166Y004841D01*
X025012Y004841D01*
X024870Y004900D01*
X024761Y005009D01*
X024702Y005152D01*
X024702Y005306D01*
X024761Y005448D01*
X024870Y005557D01*
X025012Y005616D01*
X025166Y005616D01*
X025309Y005557D01*
X025418Y005448D01*
X025477Y005306D01*
X025477Y005152D01*
X025418Y005009D01*
X025309Y004900D01*
X025330Y004922D02*
X025636Y004922D01*
X025544Y005020D02*
X025422Y005020D01*
X025463Y005119D02*
X025503Y005119D01*
X025489Y005217D02*
X025477Y005217D01*
X025473Y005316D02*
X025493Y005316D01*
X025534Y005414D02*
X025432Y005414D01*
X025353Y005513D02*
X025613Y005513D01*
X025788Y005611D02*
X025178Y005611D01*
X025000Y005611D02*
X022608Y005611D01*
X022608Y005513D02*
X024825Y005513D01*
X024747Y005414D02*
X022608Y005414D01*
X022608Y005316D02*
X024706Y005316D01*
X024702Y005217D02*
X022608Y005217D01*
X022608Y005119D02*
X024715Y005119D01*
X024756Y005020D02*
X022608Y005020D01*
X022608Y004922D02*
X024849Y004922D01*
X024998Y004823D02*
X022608Y004823D01*
X022608Y004724D02*
X024824Y004724D01*
X024746Y004626D02*
X022608Y004626D01*
X022608Y004527D02*
X024705Y004527D01*
X025181Y004823D02*
X025785Y004823D01*
X025968Y004823D02*
X026158Y004823D01*
X026158Y004724D02*
X026141Y004724D01*
X026158Y004922D02*
X026117Y004922D01*
X026141Y005513D02*
X026158Y005513D01*
X026158Y005611D02*
X025966Y005611D01*
X026158Y005710D02*
X022608Y005710D01*
X022608Y005808D02*
X025289Y005808D01*
X025209Y005842D02*
X025387Y005768D01*
X025579Y005768D01*
X025757Y005842D01*
X025893Y005978D01*
X025967Y006156D01*
X025967Y006349D01*
X025893Y006527D01*
X025757Y006663D01*
X025579Y006737D01*
X025387Y006737D01*
X025209Y006663D01*
X025072Y006527D01*
X024999Y006349D01*
X024999Y006156D01*
X025072Y005978D01*
X025209Y005842D01*
X025143Y005907D02*
X022608Y005907D01*
X022608Y006006D02*
X025061Y006006D01*
X025020Y006104D02*
X022608Y006104D01*
X022608Y006203D02*
X024999Y006203D01*
X024999Y006301D02*
X022608Y006301D01*
X022608Y006400D02*
X025020Y006400D01*
X025060Y006498D02*
X022608Y006498D01*
X022608Y006597D02*
X025142Y006597D01*
X025286Y006695D02*
X018620Y006695D01*
X018658Y006633D02*
X018716Y006691D01*
X018799Y006691D01*
X022466Y006691D01*
X022549Y006691D01*
X022608Y006633D01*
X022608Y002833D01*
X022608Y002750D01*
X022549Y002691D01*
X018799Y002691D01*
X018716Y002691D01*
X018658Y002750D01*
X018658Y004041D01*
X018474Y004117D01*
X018284Y004308D01*
X018180Y004557D01*
X018180Y004826D01*
X018284Y005075D01*
X018474Y005266D01*
X018658Y005342D01*
X018658Y006633D01*
X018658Y006597D02*
X018532Y006597D01*
X018444Y006498D02*
X018658Y006498D01*
X018658Y006400D02*
X018438Y006400D01*
X018438Y006491D02*
X018438Y006255D01*
X018245Y006061D01*
X017971Y006061D01*
X017778Y006255D01*
X017778Y006378D01*
X017681Y006285D01*
X017838Y006128D01*
X017838Y005855D01*
X017645Y005661D01*
X017371Y005661D01*
X017178Y005855D01*
X017178Y006128D01*
X017225Y006176D01*
X017212Y006190D01*
X017213Y006225D01*
X017199Y006258D01*
X017215Y006297D01*
X017216Y006339D01*
X017241Y006363D01*
X017255Y006396D01*
X017293Y006413D01*
X018878Y007925D01*
X018878Y008128D01*
X019071Y008321D01*
X019345Y008321D01*
X019538Y008128D01*
X019538Y007855D01*
X019345Y007661D01*
X019123Y007661D01*
X018786Y007340D01*
X018787Y007340D01*
X018858Y007344D01*
X018861Y007341D01*
X020617Y007367D01*
X020771Y007521D01*
X021045Y007521D01*
X021238Y007328D01*
X021238Y007055D01*
X021045Y006861D01*
X020771Y006861D01*
X020625Y007007D01*
X018875Y006981D01*
X018438Y006491D01*
X018108Y006391D02*
X018794Y007160D01*
X020908Y007191D01*
X021238Y007188D02*
X026158Y007188D01*
X026158Y007090D02*
X021238Y007090D01*
X021174Y006991D02*
X026158Y006991D01*
X026158Y006892D02*
X021076Y006892D01*
X020740Y006892D02*
X018796Y006892D01*
X018708Y006794D02*
X026158Y006794D01*
X026158Y006695D02*
X025679Y006695D01*
X025824Y006597D02*
X026158Y006597D01*
X026158Y006498D02*
X025905Y006498D01*
X025946Y006400D02*
X026158Y006400D01*
X026158Y006301D02*
X025967Y006301D01*
X025967Y006203D02*
X026158Y006203D01*
X026158Y006104D02*
X025946Y006104D01*
X025905Y006006D02*
X026158Y006006D01*
X026158Y005907D02*
X025822Y005907D01*
X025676Y005808D02*
X026158Y005808D01*
X026158Y007287D02*
X021238Y007287D01*
X021181Y007385D02*
X026158Y007385D01*
X026158Y007484D02*
X021082Y007484D01*
X020733Y007484D02*
X018937Y007484D01*
X019040Y007582D02*
X026158Y007582D01*
X026158Y007681D02*
X022664Y007681D01*
X022645Y007661D02*
X022371Y007661D01*
X022178Y007855D01*
X022178Y008128D01*
X022371Y008321D01*
X022583Y008321D01*
X022778Y008516D01*
X022778Y008728D01*
X022971Y008921D01*
X023245Y008921D01*
X023438Y008728D01*
X023438Y008455D01*
X023245Y008261D01*
X023032Y008261D01*
X022838Y008067D01*
X022838Y007855D01*
X022645Y007661D01*
X022762Y007779D02*
X026158Y007779D01*
X026158Y007878D02*
X022838Y007878D01*
X022838Y007976D02*
X026158Y007976D01*
X026158Y008075D02*
X022846Y008075D01*
X022944Y008174D02*
X026158Y008174D01*
X026158Y008272D02*
X023255Y008272D01*
X023354Y008371D02*
X026158Y008371D01*
X026158Y008469D02*
X023438Y008469D01*
X023438Y008568D02*
X026158Y008568D01*
X026158Y008666D02*
X023438Y008666D01*
X023401Y008765D02*
X026158Y008765D01*
X026158Y008863D02*
X023303Y008863D01*
X022913Y008863D02*
X017637Y008863D01*
X017671Y008878D02*
X017487Y008801D01*
X017288Y008801D01*
X017105Y008878D01*
X016964Y009018D01*
X016888Y009202D01*
X016888Y009401D01*
X016964Y009585D01*
X017105Y009725D01*
X017288Y009801D01*
X017487Y009801D01*
X017671Y009725D01*
X017812Y009585D01*
X017888Y009401D01*
X017888Y009202D01*
X017812Y009018D01*
X017671Y008878D01*
X017755Y008962D02*
X026158Y008962D01*
X026158Y009060D02*
X017829Y009060D01*
X017870Y009159D02*
X026158Y009159D01*
X026158Y009257D02*
X017888Y009257D01*
X017888Y009356D02*
X026158Y009356D01*
X026158Y009455D02*
X017866Y009455D01*
X017825Y009553D02*
X026158Y009553D01*
X026158Y009652D02*
X017745Y009652D01*
X017611Y009750D02*
X026158Y009750D01*
X026158Y010637D02*
X017622Y010637D01*
X017749Y010736D02*
X026158Y010736D01*
X026071Y010834D02*
X017827Y010834D01*
X017867Y010933D02*
X025888Y010933D01*
X026048Y010840D02*
X026048Y010840D01*
X025718Y011031D02*
X017888Y011031D01*
X017888Y011130D02*
X025619Y011130D01*
X025521Y011228D02*
X017868Y011228D01*
X017827Y011327D02*
X025433Y011327D01*
X025448Y011301D02*
X025448Y011301D01*
X025376Y011425D02*
X017751Y011425D01*
X017626Y011524D02*
X025319Y011524D01*
X025262Y011623D02*
X001454Y011623D01*
X001483Y011721D02*
X025233Y011721D01*
X025257Y011632D02*
X025257Y011632D01*
X022815Y008765D02*
X014001Y008765D01*
X014038Y008666D02*
X022778Y008666D01*
X022778Y008568D02*
X014038Y008568D01*
X014038Y008469D02*
X022731Y008469D01*
X022632Y008371D02*
X013954Y008371D01*
X013868Y008272D02*
X019022Y008272D01*
X018923Y008174D02*
X016793Y008174D01*
X016745Y008221D02*
X016938Y008028D01*
X016938Y007755D01*
X016788Y007605D01*
X016788Y006078D01*
X016938Y005928D01*
X016938Y005655D01*
X016745Y005461D01*
X016471Y005461D01*
X016278Y005655D01*
X016278Y005928D01*
X016428Y006078D01*
X016428Y007605D01*
X016278Y007755D01*
X016278Y008028D01*
X016471Y008221D01*
X016745Y008221D01*
X016891Y008075D02*
X018878Y008075D01*
X018878Y007976D02*
X016938Y007976D01*
X016938Y007878D02*
X018828Y007878D01*
X018725Y007779D02*
X016938Y007779D01*
X016864Y007681D02*
X018622Y007681D01*
X018518Y007582D02*
X016788Y007582D01*
X016788Y007484D02*
X018415Y007484D01*
X018312Y007385D02*
X016788Y007385D01*
X016788Y007287D02*
X018209Y007287D01*
X018105Y007188D02*
X016788Y007188D01*
X016788Y007090D02*
X018002Y007090D01*
X017899Y006991D02*
X016788Y006991D01*
X016788Y006892D02*
X017796Y006892D01*
X017692Y006794D02*
X016788Y006794D01*
X016788Y006695D02*
X017589Y006695D01*
X017486Y006597D02*
X016788Y006597D01*
X016788Y006498D02*
X017383Y006498D01*
X017262Y006400D02*
X016788Y006400D01*
X016788Y006301D02*
X017215Y006301D01*
X017212Y006203D02*
X016788Y006203D01*
X016788Y006104D02*
X017178Y006104D01*
X017178Y006006D02*
X016860Y006006D01*
X016938Y005907D02*
X017178Y005907D01*
X017224Y005808D02*
X016938Y005808D01*
X016938Y005710D02*
X017323Y005710D01*
X017145Y005581D02*
X017820Y005581D01*
X017964Y005522D01*
X018074Y005412D01*
X018133Y005269D01*
X018133Y005114D01*
X018074Y004971D01*
X017964Y004861D01*
X017820Y004801D01*
X017145Y004801D01*
X017002Y004861D01*
X016892Y004971D01*
X016833Y005114D01*
X016833Y005269D01*
X016892Y005412D01*
X017002Y005522D01*
X017145Y005581D01*
X016993Y005513D02*
X016796Y005513D01*
X016894Y005611D02*
X018658Y005611D01*
X018658Y005513D02*
X017973Y005513D01*
X018072Y005414D02*
X018658Y005414D01*
X018595Y005316D02*
X018114Y005316D01*
X018133Y005217D02*
X018425Y005217D01*
X018327Y005119D02*
X018133Y005119D01*
X018094Y005020D02*
X018261Y005020D01*
X018220Y004922D02*
X018025Y004922D01*
X017872Y004823D02*
X018180Y004823D01*
X018180Y004724D02*
X014884Y004724D01*
X014982Y004626D02*
X018180Y004626D01*
X018193Y004527D02*
X017951Y004527D01*
X017964Y004522D02*
X018074Y004412D01*
X018133Y004269D01*
X018133Y004114D01*
X018074Y003971D01*
X017964Y003861D01*
X017820Y003801D01*
X017145Y003801D01*
X017002Y003861D01*
X016892Y003971D01*
X016833Y004114D01*
X016833Y004269D01*
X016892Y004412D01*
X017002Y004522D01*
X017145Y004581D01*
X017820Y004581D01*
X017964Y004522D01*
X018057Y004429D02*
X018233Y004429D01*
X018274Y004330D02*
X018107Y004330D01*
X018133Y004232D02*
X018359Y004232D01*
X018458Y004133D02*
X018133Y004133D01*
X018100Y004035D02*
X018658Y004035D01*
X018658Y003936D02*
X018039Y003936D01*
X017908Y003838D02*
X018658Y003838D01*
X018658Y003739D02*
X015869Y003739D01*
X015771Y003838D02*
X017058Y003838D01*
X016927Y003936D02*
X015672Y003936D01*
X015574Y004035D02*
X016866Y004035D01*
X016833Y004133D02*
X015475Y004133D01*
X015376Y004232D02*
X016833Y004232D01*
X016858Y004330D02*
X015278Y004330D01*
X015179Y004429D02*
X016909Y004429D01*
X017015Y004527D02*
X015081Y004527D01*
X014769Y004330D02*
X012978Y004330D01*
X013076Y004232D02*
X014867Y004232D01*
X014966Y004133D02*
X013175Y004133D01*
X013274Y004035D02*
X015065Y004035D01*
X015163Y003936D02*
X013372Y003936D01*
X013471Y003838D02*
X015262Y003838D01*
X015360Y003739D02*
X013569Y003739D01*
X013668Y003641D02*
X015459Y003641D01*
X015557Y003542D02*
X013766Y003542D01*
X013865Y003443D02*
X015656Y003443D01*
X015754Y003345D02*
X013963Y003345D01*
X014062Y003246D02*
X015853Y003246D01*
X015951Y003148D02*
X014160Y003148D01*
X014259Y003049D02*
X016049Y003049D01*
X016194Y003160D02*
X017483Y003191D01*
X018042Y003443D02*
X018658Y003443D01*
X018658Y003345D02*
X018101Y003345D01*
X018133Y003246D02*
X018658Y003246D01*
X018658Y003148D02*
X018133Y003148D01*
X018106Y003049D02*
X018658Y003049D01*
X018658Y002951D02*
X018054Y002951D01*
X017943Y002852D02*
X018658Y002852D01*
X018658Y002754D02*
X014555Y002754D01*
X014653Y002655D02*
X024999Y002655D01*
X025010Y002754D02*
X022608Y002754D01*
X022608Y002852D02*
X025051Y002852D01*
X025118Y002951D02*
X022608Y002951D01*
X022608Y003049D02*
X025228Y003049D01*
X025328Y003345D02*
X025638Y003345D01*
X025544Y003443D02*
X025421Y003443D01*
X025462Y003542D02*
X025504Y003542D01*
X025489Y003641D02*
X025477Y003641D01*
X025473Y003739D02*
X025492Y003739D01*
X025533Y003838D02*
X025433Y003838D01*
X025355Y003936D02*
X025611Y003936D01*
X025970Y004035D02*
X026158Y004035D01*
X026158Y004133D02*
X026116Y004133D01*
X026142Y003936D02*
X026158Y003936D01*
X026158Y003345D02*
X026115Y003345D01*
X026158Y003246D02*
X022608Y003246D01*
X022608Y003148D02*
X026158Y003148D01*
X026158Y003049D02*
X025737Y003049D01*
X025848Y002951D02*
X026158Y002951D01*
X026158Y002852D02*
X025915Y002852D01*
X025956Y002754D02*
X026158Y002754D01*
X026158Y002655D02*
X025967Y002655D01*
X025967Y002557D02*
X026158Y002557D01*
X026158Y002458D02*
X025936Y002458D01*
X025895Y002359D02*
X026158Y002359D01*
X026158Y002261D02*
X025798Y002261D01*
X024850Y003345D02*
X022608Y003345D01*
X022608Y003443D02*
X024757Y003443D01*
X024716Y003542D02*
X022608Y003542D01*
X022608Y003641D02*
X024702Y003641D01*
X024705Y003739D02*
X022608Y003739D01*
X022608Y003838D02*
X024746Y003838D01*
X024823Y003936D02*
X022608Y003936D01*
X021573Y004035D02*
X021100Y004035D01*
X021133Y004133D02*
X021358Y004133D01*
X021259Y004232D02*
X021133Y004232D01*
X021107Y004330D02*
X021174Y004330D01*
X021133Y004429D02*
X021057Y004429D01*
X021093Y004527D02*
X020951Y004527D01*
X021080Y004626D02*
X019535Y004626D01*
X019535Y004724D02*
X021080Y004724D01*
X021080Y004823D02*
X020872Y004823D01*
X021025Y004922D02*
X021120Y004922D01*
X021094Y005020D02*
X021161Y005020D01*
X021133Y005119D02*
X021227Y005119D01*
X021133Y005217D02*
X021325Y005217D01*
X021495Y005316D02*
X021114Y005316D01*
X021072Y005414D02*
X022408Y005414D01*
X022408Y005316D02*
X022021Y005316D01*
X022190Y005217D02*
X022408Y005217D01*
X022408Y005119D02*
X022289Y005119D01*
X022355Y005020D02*
X022408Y005020D01*
X022408Y004922D02*
X022396Y004922D01*
X022408Y005513D02*
X020973Y005513D01*
X020859Y005611D02*
X022408Y005611D01*
X022408Y005710D02*
X020872Y005710D01*
X020886Y005808D02*
X022408Y005808D01*
X022408Y005907D02*
X020899Y005907D01*
X020989Y006006D02*
X022408Y006006D01*
X022408Y006104D02*
X021038Y006104D01*
X021038Y006203D02*
X022408Y006203D01*
X022408Y006301D02*
X021038Y006301D01*
X020966Y006400D02*
X022408Y006400D01*
X020642Y006991D02*
X019531Y006991D01*
X018833Y007385D02*
X020635Y007385D01*
X019538Y007878D02*
X022178Y007878D01*
X022178Y007976D02*
X019538Y007976D01*
X019538Y008075D02*
X022178Y008075D01*
X022223Y008174D02*
X019493Y008174D01*
X019394Y008272D02*
X022322Y008272D01*
X022508Y007991D02*
X023108Y008591D01*
X022253Y007779D02*
X019462Y007779D01*
X019364Y007681D02*
X022352Y007681D01*
X020449Y006400D02*
X018858Y006400D01*
X018858Y006301D02*
X020378Y006301D01*
X020378Y006203D02*
X018858Y006203D01*
X018858Y006104D02*
X020378Y006104D01*
X020427Y006006D02*
X018858Y006006D01*
X018858Y005907D02*
X020438Y005907D01*
X020425Y005808D02*
X018858Y005808D01*
X018858Y005710D02*
X020411Y005710D01*
X020398Y005611D02*
X018858Y005611D01*
X018858Y005513D02*
X019993Y005513D01*
X019894Y005414D02*
X018858Y005414D01*
X019121Y005316D02*
X019852Y005316D01*
X019833Y005217D02*
X019290Y005217D01*
X019389Y005119D02*
X019833Y005119D01*
X019872Y005020D02*
X019455Y005020D01*
X019496Y004922D02*
X019941Y004922D01*
X020093Y004823D02*
X019535Y004823D01*
X019523Y004527D02*
X020015Y004527D01*
X019909Y004429D02*
X019482Y004429D01*
X019442Y004330D02*
X019858Y004330D01*
X019833Y004232D02*
X019356Y004232D01*
X019258Y004133D02*
X019833Y004133D01*
X019866Y004035D02*
X019043Y004035D01*
X018858Y003936D02*
X019927Y003936D01*
X020058Y003838D02*
X018858Y003838D01*
X018658Y003641D02*
X015968Y003641D01*
X016066Y003542D02*
X017050Y003542D01*
X016923Y003443D02*
X016165Y003443D01*
X016263Y003345D02*
X016394Y003345D01*
X016194Y003160D02*
X013194Y006160D01*
X013194Y006360D01*
X013594Y006760D01*
X013708Y008591D01*
X013462Y008371D02*
X013127Y008371D01*
X013226Y008469D02*
X013378Y008469D01*
X013378Y008568D02*
X013324Y008568D01*
X012777Y008666D02*
X012554Y008666D01*
X012527Y008639D02*
X012638Y008528D01*
X012638Y008527D01*
X013089Y008978D01*
X013123Y009109D01*
X013078Y009155D01*
X013078Y009290D01*
X013074Y009285D01*
X013074Y009185D01*
X012968Y009080D01*
X012527Y008639D01*
X012598Y008568D02*
X012678Y008568D01*
X012653Y008765D02*
X012875Y008765D01*
X012974Y008863D02*
X012752Y008863D01*
X012850Y008962D02*
X013073Y008962D01*
X013110Y009060D02*
X012949Y009060D01*
X013047Y009159D02*
X013078Y009159D01*
X013078Y009257D02*
X013074Y009257D01*
X013643Y009060D02*
X014387Y009060D01*
X014346Y009159D02*
X013738Y009159D01*
X013738Y009257D02*
X014328Y009257D01*
X014460Y008962D02*
X013557Y008962D01*
X013903Y008863D02*
X014579Y008863D01*
X015077Y008863D02*
X017139Y008863D01*
X017020Y008962D02*
X015195Y008962D01*
X015269Y009060D02*
X016947Y009060D01*
X016906Y009159D02*
X015310Y009159D01*
X015328Y009257D02*
X016888Y009257D01*
X016888Y009356D02*
X015328Y009356D01*
X015306Y009455D02*
X016910Y009455D01*
X016951Y009553D02*
X015265Y009553D01*
X015185Y009652D02*
X017031Y009652D01*
X017165Y009750D02*
X015051Y009750D01*
X013508Y008272D02*
X013029Y008272D01*
X012930Y008174D02*
X013501Y008174D01*
X013495Y008075D02*
X012832Y008075D01*
X012738Y007976D02*
X013489Y007976D01*
X013483Y007878D02*
X012738Y007878D01*
X012738Y007779D02*
X013477Y007779D01*
X013471Y007681D02*
X012733Y007681D01*
X012737Y007582D02*
X013465Y007582D01*
X013459Y007484D02*
X012741Y007484D01*
X012745Y007385D02*
X013452Y007385D01*
X013446Y007287D02*
X012749Y007287D01*
X012753Y007188D02*
X013440Y007188D01*
X013434Y007090D02*
X012757Y007090D01*
X012761Y006991D02*
X013428Y006991D01*
X013422Y006892D02*
X012765Y006892D01*
X012769Y006794D02*
X013373Y006794D01*
X013275Y006695D02*
X012773Y006695D01*
X012777Y006597D02*
X013176Y006597D01*
X013077Y006498D02*
X012780Y006498D01*
X012784Y006400D02*
X013014Y006400D01*
X013014Y006301D02*
X012788Y006301D01*
X012792Y006203D02*
X013014Y006203D01*
X013014Y006104D02*
X012796Y006104D01*
X012800Y006006D02*
X013094Y006006D01*
X013192Y005907D02*
X012804Y005907D01*
X012808Y005808D02*
X013291Y005808D01*
X013389Y005710D02*
X012812Y005710D01*
X012816Y005611D02*
X013488Y005611D01*
X013586Y005513D02*
X012820Y005513D01*
X012824Y005414D02*
X013685Y005414D01*
X013783Y005316D02*
X012850Y005316D01*
X012938Y005217D02*
X013882Y005217D01*
X013981Y005119D02*
X012938Y005119D01*
X012938Y005020D02*
X014079Y005020D01*
X014178Y004922D02*
X012905Y004922D01*
X012806Y004823D02*
X014276Y004823D01*
X014375Y004724D02*
X012584Y004724D01*
X012682Y004626D02*
X014473Y004626D01*
X014572Y004527D02*
X012781Y004527D01*
X012879Y004429D02*
X014670Y004429D01*
X014785Y004823D02*
X017093Y004823D01*
X016941Y004922D02*
X014687Y004922D01*
X014588Y005020D02*
X015713Y005020D01*
X015771Y004961D02*
X016045Y004961D01*
X016238Y005155D01*
X016238Y005428D01*
X016088Y005578D01*
X016088Y007305D01*
X016238Y007455D01*
X016238Y007728D01*
X016045Y007921D01*
X015771Y007921D01*
X015578Y007728D01*
X015578Y007455D01*
X015728Y007305D01*
X015728Y005578D01*
X015578Y005428D01*
X015578Y005155D01*
X015771Y004961D01*
X016103Y005020D02*
X016872Y005020D01*
X016833Y005119D02*
X016202Y005119D01*
X016238Y005217D02*
X016833Y005217D01*
X016852Y005316D02*
X016238Y005316D01*
X016238Y005414D02*
X016894Y005414D01*
X016420Y005513D02*
X016153Y005513D01*
X016088Y005611D02*
X016321Y005611D01*
X016278Y005710D02*
X016088Y005710D01*
X016088Y005808D02*
X016278Y005808D01*
X016278Y005907D02*
X016088Y005907D01*
X016088Y006006D02*
X016355Y006006D01*
X016428Y006104D02*
X016088Y006104D01*
X016088Y006203D02*
X016428Y006203D01*
X016428Y006301D02*
X016088Y006301D01*
X016088Y006400D02*
X016428Y006400D01*
X016428Y006498D02*
X016088Y006498D01*
X016088Y006597D02*
X016428Y006597D01*
X016428Y006695D02*
X016088Y006695D01*
X016088Y006794D02*
X016428Y006794D01*
X016428Y006892D02*
X016088Y006892D01*
X016088Y006991D02*
X016428Y006991D01*
X016428Y007090D02*
X016088Y007090D01*
X016088Y007188D02*
X016428Y007188D01*
X016428Y007287D02*
X016088Y007287D01*
X016168Y007385D02*
X016428Y007385D01*
X016428Y007484D02*
X016238Y007484D01*
X016238Y007582D02*
X016428Y007582D01*
X016352Y007681D02*
X016238Y007681D01*
X016278Y007779D02*
X016187Y007779D01*
X016278Y007878D02*
X016088Y007878D01*
X016278Y007976D02*
X013850Y007976D01*
X013844Y007878D02*
X015728Y007878D01*
X015629Y007779D02*
X014787Y007779D01*
X014885Y007681D02*
X015578Y007681D01*
X015578Y007582D02*
X014938Y007582D01*
X014938Y007484D02*
X015578Y007484D01*
X015648Y007385D02*
X014938Y007385D01*
X014870Y007287D02*
X015728Y007287D01*
X015728Y007188D02*
X014771Y007188D01*
X014673Y007090D02*
X015728Y007090D01*
X015728Y006991D02*
X014584Y006991D01*
X014494Y006892D02*
X015728Y006892D01*
X015728Y006794D02*
X014405Y006794D01*
X014316Y006695D02*
X015728Y006695D01*
X015728Y006597D02*
X014227Y006597D01*
X014138Y006498D02*
X015728Y006498D01*
X015728Y006400D02*
X014049Y006400D01*
X014038Y006301D02*
X015728Y006301D01*
X015728Y006203D02*
X014038Y006203D01*
X013987Y006104D02*
X015728Y006104D01*
X015728Y006006D02*
X013889Y006006D01*
X013701Y005907D02*
X015728Y005907D01*
X015728Y005808D02*
X013800Y005808D01*
X013898Y005710D02*
X015728Y005710D01*
X015728Y005611D02*
X013997Y005611D01*
X014095Y005513D02*
X015663Y005513D01*
X015578Y005414D02*
X014194Y005414D01*
X014292Y005316D02*
X015578Y005316D01*
X015578Y005217D02*
X014391Y005217D01*
X014490Y005119D02*
X015614Y005119D01*
X015908Y005291D02*
X015908Y007591D01*
X016608Y007891D02*
X016608Y005791D01*
X017394Y006260D02*
X017508Y005991D01*
X017838Y006006D02*
X018658Y006006D01*
X018658Y006104D02*
X018287Y006104D01*
X018386Y006203D02*
X018658Y006203D01*
X018658Y006301D02*
X018438Y006301D01*
X017929Y006104D02*
X017838Y006104D01*
X017830Y006203D02*
X017763Y006203D01*
X017778Y006301D02*
X017698Y006301D01*
X017394Y006260D02*
X019208Y007991D01*
X018295Y006871D02*
X018138Y006721D01*
X018161Y006721D01*
X018295Y006871D01*
X018226Y006794D02*
X018214Y006794D01*
X017838Y005907D02*
X018658Y005907D01*
X018658Y005808D02*
X017792Y005808D01*
X017693Y005710D02*
X018658Y005710D01*
X014494Y007160D02*
X013708Y006291D01*
X013378Y006290D02*
X013378Y006230D01*
X013374Y006235D01*
X013374Y006285D01*
X013378Y006290D01*
X013774Y006695D02*
X013831Y006695D01*
X013776Y006794D02*
X013920Y006794D01*
X014009Y006892D02*
X013782Y006892D01*
X013788Y006991D02*
X014098Y006991D01*
X014187Y007090D02*
X013795Y007090D01*
X013801Y007188D02*
X014276Y007188D01*
X014346Y007287D02*
X013807Y007287D01*
X013813Y007385D02*
X014278Y007385D01*
X014278Y007484D02*
X013819Y007484D01*
X013825Y007582D02*
X014278Y007582D01*
X014331Y007681D02*
X013831Y007681D01*
X013838Y007779D02*
X014429Y007779D01*
X014608Y007491D02*
X014494Y007160D01*
X013856Y008075D02*
X016325Y008075D01*
X016423Y008174D02*
X013862Y008174D01*
X011794Y008460D02*
X011794Y005260D01*
X010923Y005021D02*
X010783Y005161D01*
X010606Y005161D01*
X010782Y005021D01*
X010923Y005021D01*
X010826Y005119D02*
X010660Y005119D01*
X010434Y005299D02*
X010378Y005355D01*
X010378Y005580D01*
X010374Y005576D01*
X010374Y005347D01*
X010434Y005299D01*
X010417Y005316D02*
X010413Y005316D01*
X010378Y005414D02*
X010374Y005414D01*
X010378Y005513D02*
X010374Y005513D01*
X010708Y005491D02*
X010994Y005860D01*
X010708Y005491D02*
X012408Y003791D01*
X012078Y003838D02*
X011228Y003838D01*
X011238Y003739D02*
X012078Y003739D01*
X012092Y003641D02*
X011238Y003641D01*
X011225Y003542D02*
X012191Y003542D01*
X012009Y003936D02*
X011130Y003936D01*
X010908Y003691D02*
X010908Y002891D01*
X011138Y002655D02*
X012605Y002655D01*
X012506Y002557D02*
X000558Y002557D01*
X000558Y002458D02*
X012478Y002458D01*
X012478Y002359D02*
X000558Y002359D01*
X000558Y002261D02*
X012423Y002261D01*
X012324Y002162D02*
X004054Y002162D01*
X003970Y002246D02*
X004163Y002053D01*
X004163Y001780D01*
X003970Y001586D01*
X003696Y001586D01*
X003583Y001700D01*
X003470Y001586D01*
X003196Y001586D01*
X003003Y001780D01*
X003003Y002053D01*
X003196Y002246D01*
X003470Y002246D01*
X003583Y002133D01*
X003696Y002246D01*
X003970Y002246D01*
X003612Y002162D02*
X003554Y002162D01*
X003112Y002162D02*
X000558Y002162D01*
X000558Y002064D02*
X003014Y002064D01*
X003003Y001965D02*
X000558Y001965D01*
X000558Y001867D02*
X003003Y001867D01*
X003015Y001768D02*
X000558Y001768D01*
X000558Y001670D02*
X003113Y001670D01*
X003553Y001670D02*
X003613Y001670D01*
X004053Y001670D02*
X011778Y001670D01*
X011778Y001768D02*
X004151Y001768D01*
X004163Y001867D02*
X011816Y001867D01*
X011915Y001965D02*
X004163Y001965D01*
X004152Y002064D02*
X012226Y002064D01*
X012108Y001691D02*
X012808Y002391D01*
X014357Y002951D02*
X016912Y002951D01*
X017023Y002852D02*
X014456Y002852D01*
X014752Y002557D02*
X017085Y002557D01*
X016938Y002458D02*
X014850Y002458D01*
X014949Y002359D02*
X016494Y002359D01*
X017881Y002557D02*
X020085Y002557D01*
X019912Y002951D02*
X018858Y002951D01*
X018858Y003049D02*
X019860Y003049D01*
X019833Y003148D02*
X018858Y003148D01*
X018858Y003246D02*
X019833Y003246D01*
X019864Y003345D02*
X018858Y003345D01*
X018858Y003443D02*
X019923Y003443D01*
X020050Y003542D02*
X018858Y003542D01*
X018658Y003542D02*
X017916Y003542D01*
X011959Y001374D02*
X000960Y001374D01*
X000998Y001352D02*
X000998Y001352D01*
X000789Y001473D02*
X011860Y001473D01*
X011778Y001571D02*
X000561Y001571D01*
X000668Y001543D02*
X000668Y001543D01*
X001308Y002951D02*
X004858Y002951D01*
X004858Y003049D02*
X001308Y003049D01*
X001308Y003148D02*
X004858Y003148D01*
X004858Y003246D02*
X001308Y003246D01*
X001308Y003345D02*
X004858Y003345D01*
X004858Y003443D02*
X001308Y003443D01*
X001320Y004922D02*
X001308Y004922D01*
X001308Y005020D02*
X001361Y005020D01*
X001308Y005119D02*
X001427Y005119D01*
X001525Y005217D02*
X001308Y005217D01*
X007978Y004330D02*
X011615Y004330D01*
X011713Y004232D02*
X008076Y004232D01*
X008175Y004133D02*
X011812Y004133D01*
X011910Y004035D02*
X008274Y004035D01*
X008372Y003936D02*
X010686Y003936D01*
X011112Y004429D02*
X011516Y004429D01*
X011417Y004527D02*
X011210Y004527D01*
X011238Y004626D02*
X011319Y004626D01*
X008808Y005191D02*
X008808Y005991D01*
X011608Y009191D02*
X011494Y009360D01*
X010474Y011524D02*
X001397Y011524D01*
X002131Y011327D02*
X002585Y011327D01*
X002614Y011356D02*
X002772Y011421D01*
X002943Y011421D01*
X003101Y011356D01*
X003222Y011235D01*
X003288Y011077D01*
X003288Y010306D01*
X003222Y010148D01*
X003101Y010027D01*
X002943Y009961D01*
X002772Y009961D01*
X002614Y010027D01*
X002493Y010148D01*
X002428Y010306D01*
X002428Y011077D01*
X002493Y011235D01*
X002614Y011356D01*
X002491Y011228D02*
X002225Y011228D01*
X002266Y011130D02*
X002450Y011130D01*
X002428Y011031D02*
X002288Y011031D01*
X002288Y010933D02*
X002428Y010933D01*
X002428Y010834D02*
X002288Y010834D01*
X002288Y010736D02*
X002428Y010736D01*
X002428Y010637D02*
X002288Y010637D01*
X002288Y010539D02*
X002428Y010539D01*
X002428Y010440D02*
X002288Y010440D01*
X002288Y010341D02*
X002428Y010341D01*
X002454Y010243D02*
X002262Y010243D01*
X002219Y010144D02*
X002497Y010144D01*
X002595Y010046D02*
X002120Y010046D01*
X003120Y010046D02*
X003595Y010046D01*
X003614Y010027D02*
X003493Y010148D01*
X003428Y010306D01*
X003428Y011077D01*
X003493Y011235D01*
X003614Y011356D01*
X003772Y011421D01*
X003943Y011421D01*
X004101Y011356D01*
X004222Y011235D01*
X004288Y011077D01*
X004288Y010306D01*
X004222Y010148D01*
X004101Y010027D01*
X003943Y009961D01*
X003772Y009961D01*
X003614Y010027D01*
X003497Y010144D02*
X003219Y010144D01*
X003262Y010243D02*
X003454Y010243D01*
X003428Y010341D02*
X003288Y010341D01*
X003288Y010440D02*
X003428Y010440D01*
X003428Y010539D02*
X003288Y010539D01*
X003288Y010637D02*
X003428Y010637D01*
X003428Y010736D02*
X003288Y010736D01*
X003288Y010834D02*
X003428Y010834D01*
X003428Y010933D02*
X003288Y010933D01*
X003288Y011031D02*
X003428Y011031D01*
X003450Y011130D02*
X003266Y011130D01*
X003225Y011228D02*
X003491Y011228D01*
X003585Y011327D02*
X003131Y011327D01*
X004131Y011327D02*
X004585Y011327D01*
X004614Y011356D02*
X004772Y011421D01*
X004943Y011421D01*
X005101Y011356D01*
X005222Y011235D01*
X005288Y011077D01*
X005288Y010306D01*
X005222Y010148D01*
X005101Y010027D01*
X004943Y009961D01*
X004772Y009961D01*
X004614Y010027D01*
X004493Y010148D01*
X004428Y010306D01*
X004428Y011077D01*
X004493Y011235D01*
X004614Y011356D01*
X004491Y011228D02*
X004225Y011228D01*
X004266Y011130D02*
X004450Y011130D01*
X004428Y011031D02*
X004288Y011031D01*
X004288Y010933D02*
X004428Y010933D01*
X004428Y010834D02*
X004288Y010834D01*
X004288Y010736D02*
X004428Y010736D01*
X004428Y010637D02*
X004288Y010637D01*
X004288Y010539D02*
X004428Y010539D01*
X004428Y010440D02*
X004288Y010440D01*
X004288Y010341D02*
X004428Y010341D01*
X004454Y010243D02*
X004262Y010243D01*
X004219Y010144D02*
X004497Y010144D01*
X004595Y010046D02*
X004120Y010046D01*
X005120Y010046D02*
X005565Y010046D01*
X005497Y010144D02*
X005219Y010144D01*
X005262Y010243D02*
X005454Y010243D01*
X005428Y010341D02*
X005288Y010341D01*
X005288Y010440D02*
X005428Y010440D01*
X005428Y010539D02*
X005288Y010539D01*
X005288Y010637D02*
X005428Y010637D01*
X005428Y010736D02*
X005288Y010736D01*
X005288Y010834D02*
X005428Y010834D01*
X005428Y010933D02*
X005288Y010933D01*
X005288Y011031D02*
X005428Y011031D01*
X005450Y011130D02*
X005266Y011130D01*
X005225Y011228D02*
X005491Y011228D01*
X005585Y011327D02*
X005131Y011327D01*
D18*
X010708Y011291D03*
X011108Y010391D03*
X012308Y009991D03*
X011908Y009591D03*
X011608Y009191D03*
X012008Y008791D03*
X012308Y008391D03*
X012408Y007891D03*
X013708Y008591D03*
X013408Y009291D03*
X013808Y009591D03*
X014308Y010091D03*
X013708Y010691D03*
X009408Y008091D03*
X006608Y006591D03*
X008808Y005991D03*
X007908Y005291D03*
X008808Y005191D03*
X010708Y005491D03*
X010708Y006091D03*
X012608Y005091D03*
X010908Y004691D03*
X012408Y003791D03*
X010908Y003691D03*
X010908Y002891D03*
X012808Y002391D03*
X012108Y001691D03*
X015908Y005291D03*
X016608Y005791D03*
X017508Y005991D03*
X018108Y006391D03*
X015908Y007591D03*
X016608Y007891D03*
X014608Y007491D03*
X013708Y006291D03*
X019208Y007991D03*
X020908Y007191D03*
X022508Y007991D03*
X023108Y008591D03*
X020708Y006191D03*
X003833Y001916D03*
X003333Y001916D03*
D19*
X007908Y005291D02*
X006608Y006591D01*
X005794Y007260D01*
X005794Y010660D01*
X005858Y010691D01*
X012444Y008010D02*
X012408Y007891D01*
X012494Y007960D02*
X012444Y008010D01*
X013294Y008860D01*
X013408Y009291D01*
X012494Y007960D02*
X012608Y005091D01*
X020394Y005160D02*
X020483Y005191D01*
X020394Y005160D02*
X020594Y005360D01*
X020708Y006191D01*
M02*
