G75*
G70*
%OFA0B0*%
%FSLAX24Y24*%
%IPPOS*%
%LPD*%
%AMOC8*
5,1,8,0,0,1.08239X$1,22.5*
%
%ADD10R,0.0552X0.0198*%
%ADD11R,0.0277X0.0552*%
%ADD12R,0.0592X0.0710*%
%ADD13R,0.0592X0.0671*%
%ADD14R,0.0316X0.0946*%
%ADD15R,0.0580X0.0659*%
%ADD16R,0.0867X0.0631*%
%ADD17R,0.0867X0.0474*%
%ADD18C,0.0710*%
%ADD19C,0.0820*%
%ADD20R,0.0552X0.0297*%
%ADD21R,0.0926X0.2245*%
%ADD22R,0.0631X0.0710*%
%ADD23R,0.0552X0.1064*%
%ADD24C,0.0595*%
%ADD25C,0.0789*%
%ADD26C,0.1175*%
%ADD27C,0.0600*%
%ADD28R,0.0552X0.0631*%
%ADD29C,0.0680*%
%ADD30OC8,0.0480*%
D10*
X015497Y008424D03*
X015497Y008680D03*
X015497Y008936D03*
X015497Y009191D03*
X015497Y009447D03*
X015497Y009703D03*
X015497Y009959D03*
X017781Y009959D03*
X017781Y009703D03*
X017781Y009447D03*
X017781Y009191D03*
X017781Y008936D03*
X017781Y008680D03*
X017781Y008424D03*
D11*
X014264Y008524D03*
X013764Y008524D03*
X013264Y008524D03*
X012764Y008524D03*
X012264Y008524D03*
X011764Y008524D03*
X011264Y008524D03*
X011264Y006359D03*
X011764Y006359D03*
X012264Y006359D03*
X012764Y006359D03*
X013264Y006359D03*
X013764Y006359D03*
X014264Y006359D03*
D12*
X014390Y005566D03*
X015138Y005566D03*
X015013Y004441D03*
X014265Y004441D03*
X013138Y004441D03*
X012390Y004441D03*
X016140Y004441D03*
X016888Y004441D03*
X018015Y004441D03*
X018763Y004441D03*
X016888Y002691D03*
X016140Y002691D03*
X015013Y002691D03*
X014265Y002691D03*
X013138Y002691D03*
X012390Y002691D03*
X009138Y009691D03*
X008390Y009691D03*
X008390Y010691D03*
X009138Y010691D03*
D13*
X016429Y005566D03*
X017098Y005566D03*
X020929Y005941D03*
X021598Y005941D03*
X021723Y007191D03*
X021054Y007191D03*
X018723Y002691D03*
X018054Y002691D03*
D14*
X020014Y002418D03*
X020514Y002418D03*
X021014Y002418D03*
X021514Y002418D03*
X021514Y004465D03*
X021014Y004465D03*
X020514Y004465D03*
X020014Y004465D03*
D15*
X019860Y006566D03*
X018167Y006566D03*
X006735Y005816D03*
X005042Y005816D03*
D16*
X008148Y006983D03*
X009880Y006983D03*
X009880Y008400D03*
X008148Y008400D03*
D17*
X008148Y007691D03*
X009880Y007691D03*
D18*
X024476Y007316D03*
X024476Y008316D03*
D19*
X021544Y009176D03*
X018984Y009176D03*
X018984Y010956D03*
X021544Y010956D03*
X013544Y011081D03*
X010984Y011081D03*
X010984Y009301D03*
X013544Y009301D03*
D20*
X006401Y003441D03*
X005377Y003441D03*
X005377Y003066D03*
X005377Y002692D03*
X006401Y002692D03*
D21*
X004520Y009691D03*
X003008Y009691D03*
D22*
X006088Y008691D03*
X007190Y008691D03*
D23*
X006538Y007316D03*
X005239Y007316D03*
D24*
X003282Y005229D03*
X002495Y005229D03*
X002495Y004441D03*
X003282Y004441D03*
X003282Y003654D03*
X002495Y003654D03*
D25*
X002889Y002630D03*
X002889Y006253D03*
D26*
X006614Y004691D03*
X009514Y004691D03*
X023514Y004691D03*
X026414Y004691D03*
D27*
X011149Y004191D02*
X010629Y004191D01*
X010629Y003191D02*
X011149Y003191D01*
X011149Y002191D02*
X010629Y002191D01*
X008149Y002191D02*
X007629Y002191D01*
X007629Y003191D02*
X008149Y003191D01*
X008149Y004191D02*
X007629Y004191D01*
X007629Y005191D02*
X008149Y005191D01*
X010629Y005191D02*
X011149Y005191D01*
D28*
X006854Y009691D03*
X005673Y009691D03*
X005673Y010691D03*
X006854Y010691D03*
D29*
X022514Y010991D02*
X022514Y010391D01*
X023514Y010391D02*
X023514Y010991D01*
X024514Y010991D02*
X024514Y010391D01*
X025514Y010391D02*
X025514Y010991D01*
X026514Y010991D02*
X026514Y010391D01*
D30*
X018964Y008091D03*
X016764Y009191D03*
X016464Y009591D03*
X016064Y009991D03*
X017264Y010391D03*
X017664Y011291D03*
X014664Y010691D03*
X014064Y010091D03*
X014564Y009591D03*
X014964Y009291D03*
X016364Y008791D03*
X016064Y008391D03*
X015964Y007891D03*
X014664Y008591D03*
X013764Y007491D03*
X012464Y007591D03*
X011764Y007891D03*
X009164Y007991D03*
X007464Y007191D03*
X005864Y007991D03*
X005264Y008591D03*
X010264Y006391D03*
X010864Y005991D03*
X011764Y005791D03*
X012464Y005291D03*
X014664Y006291D03*
X015764Y005091D03*
X017464Y004691D03*
X017664Y005491D03*
X017664Y006091D03*
X019564Y005991D03*
X020464Y005291D03*
X019564Y005191D03*
X021764Y006591D03*
X015964Y003791D03*
X017464Y003691D03*
X017464Y002891D03*
X015564Y002391D03*
X016264Y001691D03*
X024539Y001916D03*
X025039Y001916D03*
X007664Y006191D03*
M02*
