G75*
G70*
%OFA0B0*%
%FSLAX24Y24*%
%IPPOS*%
%LPD*%
%AMOC8*
5,1,8,0,0,1.08239X$1,22.5*
%
%ADD10R,0.0472X0.0118*%
%ADD11R,0.0197X0.0472*%
%ADD12R,0.0512X0.0630*%
%ADD13R,0.0512X0.0591*%
%ADD14R,0.0236X0.0866*%
%ADD15R,0.0500X0.0579*%
%ADD16R,0.0787X0.0551*%
%ADD17R,0.0787X0.0394*%
%ADD18C,0.0630*%
%ADD19C,0.0740*%
%ADD20R,0.0630X0.0709*%
%ADD21R,0.0217X0.0472*%
%ADD22R,0.0846X0.2165*%
%ADD23R,0.0551X0.0630*%
%ADD24R,0.0472X0.0984*%
%ADD25C,0.0515*%
%ADD26C,0.0709*%
%ADD27C,0.1095*%
%ADD28C,0.0520*%
%ADD29R,0.0236X0.0354*%
%ADD30OC8,0.0560*%
%ADD31C,0.0600*%
%ADD32C,0.0100*%
%ADD33OC8,0.0400*%
D10*
X015244Y006871D03*
X015244Y007127D03*
X015244Y007383D03*
X015244Y007639D03*
X015244Y007895D03*
X015244Y008151D03*
X015244Y008407D03*
X017527Y008407D03*
X017527Y008151D03*
X017527Y007895D03*
X017527Y007639D03*
X017527Y007383D03*
X017527Y007127D03*
X017527Y006871D03*
D11*
X013885Y006556D03*
X013385Y006556D03*
X012885Y006556D03*
X012385Y006556D03*
X011885Y006556D03*
X011385Y006556D03*
X010885Y006556D03*
X010885Y008722D03*
X011385Y008722D03*
X011885Y008722D03*
X012385Y008722D03*
X012885Y008722D03*
X013385Y008722D03*
X013885Y008722D03*
D12*
X015511Y005639D03*
X016259Y005639D03*
X016011Y004139D03*
X016759Y004139D03*
X018011Y004139D03*
X018759Y004139D03*
X014759Y004139D03*
X014011Y004139D03*
X012759Y004139D03*
X012011Y004139D03*
X012011Y002139D03*
X012759Y002139D03*
X014011Y002139D03*
X014759Y002139D03*
X016011Y002139D03*
X016759Y002139D03*
D13*
X018051Y002139D03*
X018720Y002139D03*
X021551Y004639D03*
X022220Y004639D03*
X018220Y005639D03*
X017551Y005639D03*
D14*
X020135Y003663D03*
X020635Y003663D03*
X021135Y003663D03*
X021635Y003663D03*
X021635Y001615D03*
X021135Y001615D03*
X020635Y001615D03*
X020135Y001615D03*
D15*
X019539Y005639D03*
X021232Y005639D03*
X006232Y004639D03*
X004539Y004639D03*
D16*
X008019Y005930D03*
X009751Y005930D03*
X009751Y007348D03*
X008019Y007348D03*
D17*
X008019Y006639D03*
X009751Y006639D03*
D18*
X023098Y007139D03*
X023098Y008139D03*
D19*
X021165Y008529D03*
X018605Y008529D03*
X018605Y006749D03*
X021165Y006749D03*
D20*
X023834Y004639D03*
X024937Y004639D03*
D21*
X004759Y002651D03*
X004011Y002651D03*
X004011Y001627D03*
X004385Y001627D03*
X004759Y001627D03*
D22*
X004141Y008139D03*
X002629Y008139D03*
D23*
X005834Y007639D03*
X006937Y007639D03*
D24*
X006535Y006139D03*
X005236Y006139D03*
D25*
X003279Y005426D03*
X002492Y005426D03*
X002492Y004639D03*
X003279Y004639D03*
X003279Y003851D03*
X002492Y003851D03*
D26*
X002885Y002828D03*
X002885Y006450D03*
D27*
X005985Y003139D03*
X008885Y003139D03*
X022885Y003139D03*
X025785Y003139D03*
D28*
X010645Y002639D02*
X010125Y002639D01*
X010125Y003639D02*
X010645Y003639D01*
X010645Y004639D02*
X010125Y004639D01*
X007645Y004639D02*
X007125Y004639D01*
X007125Y003639D02*
X007645Y003639D01*
X007645Y002639D02*
X007125Y002639D01*
X007125Y001639D02*
X007645Y001639D01*
X010125Y001639D02*
X010645Y001639D01*
D29*
X007695Y008639D03*
X007075Y008639D03*
X006195Y008639D03*
X005575Y008639D03*
X005575Y009139D03*
X006195Y009139D03*
X007075Y009139D03*
X007695Y009139D03*
D30*
X008885Y009139D03*
X009885Y009139D03*
X009885Y008139D03*
X008885Y008139D03*
D31*
X026335Y007764D02*
X026935Y007764D01*
X026935Y008764D02*
X026335Y008764D01*
X026335Y009764D02*
X026935Y009764D01*
X026935Y006764D02*
X026335Y006764D01*
X026335Y005764D02*
X026935Y005764D01*
D32*
X023285Y000639D02*
X003685Y000639D01*
X003685Y002739D01*
X003085Y003339D01*
X002885Y003339D01*
X002885Y004039D01*
X002585Y004339D01*
X002585Y004639D01*
X002492Y004639D01*
X004085Y004639D02*
X004085Y008139D01*
X004141Y008139D01*
X003385Y008139D02*
X002685Y008139D01*
X002629Y008139D01*
X002685Y008139D02*
X002685Y008439D01*
X003685Y009439D01*
X004785Y009439D01*
X004785Y008639D01*
X005785Y007639D01*
X005834Y007639D01*
X006285Y007639D02*
X006585Y007639D01*
X006585Y006839D01*
X004985Y006839D01*
X004785Y006639D01*
X004785Y005139D01*
X005185Y004739D01*
X005185Y003139D01*
X005985Y003139D01*
X006685Y002839D02*
X006685Y004239D01*
X009185Y004239D01*
X009185Y006239D01*
X009285Y006339D01*
X009385Y006339D01*
X009685Y006639D01*
X009751Y006639D01*
X009785Y006639D01*
X009785Y007339D01*
X009751Y007348D01*
X009685Y007339D01*
X008085Y007339D01*
X008019Y007348D01*
X006937Y007639D02*
X006585Y007639D01*
X006285Y007639D02*
X006285Y008639D01*
X006195Y008639D01*
X006185Y008639D01*
X006185Y009139D01*
X006195Y009139D01*
X005985Y009539D02*
X005585Y009139D01*
X005575Y009139D01*
X005285Y008839D02*
X005285Y009739D01*
X006985Y009739D01*
X007385Y009339D01*
X007385Y008639D01*
X007075Y008639D01*
X007695Y008639D02*
X007785Y008639D01*
X008285Y008139D01*
X008885Y008139D01*
X009885Y008139D02*
X009885Y008439D01*
X010785Y009339D01*
X026085Y009339D01*
X026585Y008839D01*
X026635Y008764D01*
X024785Y007639D02*
X017527Y007639D01*
X017527Y007383D02*
X017585Y007339D01*
X020585Y007339D01*
X021085Y006839D01*
X021165Y006749D01*
X021185Y006739D01*
X021285Y006639D01*
X026485Y006639D01*
X026585Y006739D01*
X026635Y006764D01*
X025385Y006139D02*
X020085Y006139D01*
X019585Y005639D01*
X019539Y005639D01*
X018220Y005639D01*
X018085Y005639D01*
X018085Y006239D01*
X015485Y006239D01*
X015185Y006839D02*
X014685Y006839D01*
X013385Y008139D01*
X013385Y008722D01*
X013885Y008722D02*
X013885Y008739D01*
X013985Y008839D01*
X016785Y008839D01*
X016785Y007339D01*
X017285Y006839D01*
X017485Y006839D01*
X017527Y006871D01*
X017785Y007139D02*
X018085Y006839D01*
X018085Y006239D01*
X017551Y005639D02*
X016985Y005639D01*
X016259Y005639D01*
X015511Y005639D02*
X014885Y005639D01*
X014285Y006239D01*
X013885Y006139D02*
X013885Y006556D01*
X013885Y007139D01*
X013385Y007139D02*
X012285Y007139D01*
X011885Y007539D01*
X011385Y007539D01*
X011385Y008722D01*
X010885Y008722D02*
X010885Y009139D01*
X016785Y009139D01*
X017485Y008439D01*
X017527Y008407D01*
X017585Y008439D01*
X018185Y009039D01*
X020585Y009039D01*
X021085Y008539D01*
X021165Y008529D01*
X017785Y007139D02*
X017585Y007139D01*
X017527Y007127D01*
X016385Y007639D02*
X015244Y007639D01*
X015244Y007895D02*
X015185Y007939D01*
X014085Y007939D01*
X015244Y008151D02*
X015285Y008139D01*
X015785Y008139D01*
X015244Y008407D02*
X015185Y008439D01*
X014585Y008439D01*
X012385Y008722D02*
X012385Y007539D01*
X011885Y007939D02*
X011885Y008722D01*
X008885Y009139D02*
X007695Y009139D01*
X007075Y009139D02*
X006985Y009139D01*
X006585Y009539D01*
X005985Y009539D01*
X005285Y008839D02*
X005485Y008639D01*
X005575Y008639D01*
X003385Y008139D02*
X003385Y006239D01*
X002585Y005439D01*
X002492Y005426D01*
X004085Y004639D02*
X004539Y004639D01*
X004085Y004639D02*
X004085Y002739D01*
X004011Y002651D01*
X004759Y002651D02*
X004785Y002739D01*
X005185Y003139D01*
X006085Y002239D02*
X006685Y002839D01*
X006085Y002239D02*
X004385Y002239D01*
X004385Y001639D01*
X004385Y001627D01*
X004385Y001639D02*
X004085Y001639D01*
X004011Y001627D01*
X007385Y001639D02*
X007885Y002139D01*
X011985Y002139D01*
X012011Y002139D01*
X012085Y002139D01*
X012085Y003039D01*
X012785Y003039D01*
X013085Y003339D01*
X018285Y003339D01*
X018285Y003539D01*
X018285Y003339D02*
X018685Y003339D01*
X018685Y004139D01*
X018759Y004139D01*
X018085Y004139D02*
X018011Y004139D01*
X018085Y004139D02*
X017485Y003539D01*
X012785Y003539D01*
X012685Y003439D01*
X012285Y003639D02*
X012785Y004139D01*
X012759Y004139D01*
X012785Y004139D02*
X013285Y004639D01*
X014685Y004639D01*
X014685Y004139D01*
X014759Y004139D01*
X014011Y004139D02*
X013385Y004139D01*
X012285Y003639D02*
X012085Y003639D01*
X012085Y003039D01*
X012785Y002139D02*
X013785Y003139D01*
X018185Y003139D01*
X018985Y002339D01*
X018785Y002139D01*
X018720Y002139D01*
X018985Y002339D02*
X019085Y002439D01*
X020685Y002439D01*
X021085Y002039D01*
X021085Y001639D01*
X021135Y001615D01*
X021585Y001539D02*
X021635Y001615D01*
X021685Y001639D01*
X021685Y002239D01*
X022185Y002739D01*
X022185Y004639D01*
X022220Y004639D01*
X023834Y004639D01*
X024285Y005139D02*
X024485Y004939D01*
X024485Y004139D01*
X025385Y004139D01*
X025385Y006139D01*
X024885Y005339D02*
X021685Y005339D01*
X021485Y005139D01*
X021285Y005139D01*
X020885Y004739D01*
X015985Y004739D01*
X015985Y004139D01*
X016011Y004139D01*
X016759Y004139D02*
X017185Y004139D01*
X017385Y003939D01*
X015985Y004739D02*
X015985Y005139D01*
X014885Y005139D01*
X014285Y005739D01*
X011485Y005739D01*
X010385Y004639D01*
X009985Y004239D01*
X009185Y004239D01*
X006685Y004239D02*
X006685Y004639D01*
X006232Y004639D01*
X006185Y004639D01*
X005285Y005539D01*
X005285Y006139D01*
X005236Y006139D01*
X006535Y006139D02*
X006585Y006139D01*
X006585Y006839D01*
X008019Y006639D02*
X008685Y006639D01*
X008785Y006739D01*
X008785Y006239D02*
X008485Y005939D01*
X008085Y005939D01*
X008019Y005930D01*
X009751Y005930D02*
X009785Y005939D01*
X011885Y005939D01*
X011885Y006556D01*
X011385Y006556D02*
X011385Y007139D01*
X010885Y006639D02*
X010785Y006739D01*
X010485Y006739D01*
X010885Y006639D02*
X010885Y006556D01*
X013885Y006139D02*
X014285Y005739D01*
X011885Y004739D02*
X011885Y004139D01*
X012011Y004139D01*
X014785Y002139D02*
X015285Y002639D01*
X016285Y002639D01*
X016785Y002139D01*
X016759Y002139D01*
X016785Y002139D02*
X017285Y001639D01*
X018985Y001639D01*
X019585Y002239D01*
X020585Y002239D01*
X020585Y001639D01*
X020635Y001615D01*
X020135Y001615D02*
X020085Y001539D01*
X019985Y001439D01*
X020385Y001039D01*
X021385Y001039D01*
X021385Y002239D01*
X021585Y002439D01*
X021585Y003639D01*
X021635Y003663D01*
X021135Y003663D02*
X021085Y003739D01*
X021085Y004239D01*
X021485Y004639D01*
X021551Y004639D01*
X021585Y004639D01*
X021585Y004939D01*
X021685Y004939D01*
X021885Y005139D01*
X024285Y005139D01*
X024885Y005339D02*
X024885Y004639D01*
X024937Y004639D01*
X021232Y005639D02*
X021185Y005639D01*
X020685Y005139D01*
X020885Y004739D02*
X020185Y004039D01*
X020185Y003739D01*
X020135Y003663D01*
X020635Y003663D02*
X020685Y003639D01*
X020685Y002939D01*
X017985Y002739D02*
X017985Y002139D01*
X018051Y002139D01*
X016085Y002139D02*
X016085Y001439D01*
X019985Y001439D01*
X021585Y001539D02*
X021585Y000839D01*
X015285Y000839D01*
X013985Y002139D01*
X014011Y002139D01*
X013985Y002139D02*
X013485Y001639D01*
X012485Y001639D01*
X011985Y002139D01*
X012759Y002139D02*
X012785Y002139D01*
X014759Y002139D02*
X014785Y002139D01*
X016011Y002139D02*
X016085Y002139D01*
X023285Y000639D02*
X025785Y003139D01*
X015785Y007139D02*
X015585Y007339D01*
X015285Y007339D01*
X015244Y007383D01*
X015185Y007139D02*
X014885Y007139D01*
X014685Y007339D01*
X015185Y007139D02*
X015244Y007127D01*
X015244Y006871D02*
X015185Y006839D01*
D33*
X015785Y007139D03*
X014685Y007339D03*
X013885Y007139D03*
X013385Y007139D03*
X012385Y007539D03*
X011885Y007939D03*
X011385Y007139D03*
X010485Y006739D03*
X008785Y006739D03*
X008785Y006239D03*
X011885Y004739D03*
X013385Y004139D03*
X012685Y003439D03*
X017385Y003939D03*
X018285Y003539D03*
X017985Y002739D03*
X020685Y002939D03*
X020685Y005139D03*
X016985Y005639D03*
X015485Y006239D03*
X014285Y006239D03*
X016385Y007639D03*
X015785Y008139D03*
X014585Y008439D03*
X014085Y007939D03*
X024785Y007639D03*
M02*
