G75*
G70*
%OFA0B0*%
%FSLAX24Y24*%
%IPPOS*%
%LPD*%
%AMOC8*
5,1,8,0,0,1.08239X$1,22.5*
%
%ADD10C,0.0000*%
%ADD11R,0.0472X0.0118*%
%ADD12R,0.0197X0.0472*%
%ADD13R,0.0512X0.0630*%
%ADD14R,0.0512X0.0591*%
%ADD15R,0.0236X0.0866*%
%ADD16R,0.0500X0.0579*%
%ADD17R,0.0787X0.0551*%
%ADD18R,0.0787X0.0394*%
%ADD19C,0.0630*%
%ADD20C,0.0740*%
%ADD21R,0.0630X0.0709*%
%ADD22R,0.0217X0.0472*%
%ADD23R,0.0846X0.2165*%
%ADD24R,0.0551X0.0630*%
%ADD25R,0.0472X0.0984*%
%ADD26C,0.0515*%
%ADD27C,0.0709*%
%ADD28C,0.1095*%
%ADD29C,0.0520*%
%ADD30R,0.0236X0.0354*%
%ADD31OC8,0.0560*%
%ADD32C,0.0100*%
%ADD33OC8,0.0400*%
D10*
X000888Y000199D02*
X000888Y010695D01*
X027258Y010695D01*
X027258Y000199D01*
X000888Y000199D01*
D11*
X015246Y006932D03*
X015246Y007188D03*
X015246Y007443D03*
X015246Y007699D03*
X015246Y007955D03*
X015246Y008211D03*
X015246Y008467D03*
X017529Y008467D03*
X017529Y008211D03*
X017529Y007955D03*
X017529Y007699D03*
X017529Y007443D03*
X017529Y007188D03*
X017529Y006932D03*
D12*
X013888Y006617D03*
X013388Y006617D03*
X012888Y006617D03*
X012388Y006617D03*
X011888Y006617D03*
X011388Y006617D03*
X010888Y006617D03*
X010888Y008782D03*
X011388Y008782D03*
X011888Y008782D03*
X012388Y008782D03*
X012888Y008782D03*
X013388Y008782D03*
X013888Y008782D03*
D13*
X015514Y005699D03*
X016262Y005699D03*
X016014Y004199D03*
X016762Y004199D03*
X018014Y004199D03*
X018762Y004199D03*
X014762Y004199D03*
X014014Y004199D03*
X012762Y004199D03*
X012014Y004199D03*
X012014Y002199D03*
X012762Y002199D03*
X014014Y002199D03*
X014762Y002199D03*
X016014Y002199D03*
X016762Y002199D03*
D14*
X018053Y002199D03*
X018722Y002199D03*
X021553Y004699D03*
X022222Y004699D03*
X018222Y005699D03*
X017553Y005699D03*
D15*
X020138Y003723D03*
X020638Y003723D03*
X021138Y003723D03*
X021638Y003723D03*
X021638Y001676D03*
X021138Y001676D03*
X020638Y001676D03*
X020138Y001676D03*
D16*
X019541Y005699D03*
X021234Y005699D03*
X006234Y004699D03*
X004541Y004699D03*
D17*
X008021Y005991D03*
X009754Y005991D03*
X009754Y007408D03*
X008021Y007408D03*
D18*
X008021Y006699D03*
X009754Y006699D03*
D19*
X023100Y007199D03*
X023100Y008199D03*
D20*
X021168Y008589D03*
X018608Y008589D03*
X018608Y006809D03*
X021168Y006809D03*
D21*
X023836Y004699D03*
X024939Y004699D03*
D22*
X004762Y002711D03*
X004014Y002711D03*
X004014Y001688D03*
X004388Y001688D03*
X004762Y001688D03*
D23*
X004143Y008199D03*
X002632Y008199D03*
D24*
X005836Y007699D03*
X006939Y007699D03*
D25*
X006537Y006199D03*
X005238Y006199D03*
D26*
X003281Y005487D03*
X002494Y005487D03*
X002494Y004699D03*
X003281Y004699D03*
X003281Y003912D03*
X002494Y003912D03*
D27*
X002888Y002888D03*
X002888Y006510D03*
D28*
X005988Y003199D03*
X008888Y003199D03*
X022888Y003199D03*
X025788Y003199D03*
D29*
X010648Y002699D02*
X010128Y002699D01*
X010128Y001699D02*
X010648Y001699D01*
X007648Y001699D02*
X007128Y001699D01*
X007128Y002699D02*
X007648Y002699D01*
X007648Y003699D02*
X007128Y003699D01*
X007128Y004699D02*
X007648Y004699D01*
X010128Y004699D02*
X010648Y004699D01*
X010648Y003699D02*
X010128Y003699D01*
D30*
X007698Y008699D03*
X007078Y008699D03*
X006198Y008699D03*
X005578Y008699D03*
X005578Y009199D03*
X006198Y009199D03*
X007078Y009199D03*
X007698Y009199D03*
D31*
X008888Y009199D03*
X009888Y009199D03*
X009888Y008199D03*
X008888Y008199D03*
D32*
X008288Y008199D01*
X007788Y008699D01*
X007698Y008699D01*
X007388Y008699D02*
X007078Y008699D01*
X007388Y008699D02*
X007388Y009399D01*
X006988Y009799D01*
X005288Y009799D01*
X005288Y008899D01*
X005488Y008699D01*
X005578Y008699D01*
X006188Y008699D02*
X006198Y008699D01*
X006288Y008699D01*
X006288Y007699D01*
X006588Y007699D01*
X006588Y006199D01*
X006537Y006199D01*
X007188Y005899D02*
X008388Y004699D01*
X010388Y004699D01*
X011988Y004199D02*
X012014Y004199D01*
X011988Y004199D02*
X013688Y005899D01*
X014188Y005899D01*
X014188Y006899D01*
X012988Y008099D01*
X012488Y008099D01*
X011888Y008699D01*
X011888Y008782D01*
X012388Y008782D02*
X012388Y009299D01*
X015188Y009299D01*
X016188Y008899D02*
X013988Y008899D01*
X013888Y008799D01*
X013888Y008782D01*
X013388Y008782D02*
X013388Y008199D01*
X014688Y006899D01*
X015188Y006899D01*
X015246Y006932D01*
X015246Y007188D02*
X015288Y007199D01*
X015488Y007199D01*
X015688Y006999D01*
X015688Y006199D01*
X014788Y006199D01*
X014088Y005499D01*
X013888Y005099D02*
X012888Y004099D01*
X012762Y004199D01*
X012788Y004199D01*
X011888Y003299D01*
X009688Y003299D01*
X009688Y002099D01*
X011888Y002099D01*
X011988Y002199D01*
X012014Y002199D01*
X012088Y002199D01*
X012088Y001699D01*
X013488Y001699D01*
X013988Y002199D01*
X014014Y002199D01*
X014762Y002199D02*
X014788Y002199D01*
X015288Y001699D01*
X016288Y001699D01*
X019188Y001699D01*
X019188Y001999D01*
X019588Y002399D01*
X020588Y002399D01*
X020588Y001699D01*
X020638Y001676D01*
X021088Y001699D02*
X021138Y001676D01*
X021088Y001699D02*
X021088Y002199D01*
X020688Y002599D01*
X019188Y002599D01*
X018888Y002299D01*
X018722Y002199D01*
X018788Y002199D01*
X018888Y002299D01*
X018488Y002699D01*
X013288Y002699D01*
X012788Y002199D01*
X012762Y002199D01*
X012288Y002699D02*
X010388Y002699D01*
X009688Y002099D02*
X006988Y002099D01*
X007388Y001699D01*
X006988Y002099D02*
X005888Y003199D01*
X005988Y003199D01*
X005888Y003199D02*
X005188Y003199D01*
X004788Y002799D01*
X004762Y002711D01*
X004088Y002799D02*
X004014Y002711D01*
X004088Y002799D02*
X004088Y004699D01*
X004088Y008199D01*
X004143Y008199D01*
X003388Y008199D02*
X002688Y008199D01*
X002632Y008199D01*
X002688Y008199D02*
X002688Y008499D01*
X003688Y009499D01*
X004788Y009499D01*
X004788Y008699D01*
X005788Y007699D01*
X005836Y007699D01*
X006588Y007699D02*
X006939Y007699D01*
X006988Y007699D01*
X007188Y007899D01*
X008588Y007899D01*
X008788Y007699D01*
X008988Y007699D01*
X009388Y008099D01*
X009388Y008699D01*
X010888Y008699D01*
X010888Y008782D01*
X010888Y009699D01*
X016288Y009699D01*
X017488Y008499D01*
X017529Y008467D01*
X017588Y008499D01*
X017888Y008799D01*
X020788Y008799D01*
X021088Y008499D01*
X021168Y008589D01*
X021188Y008399D01*
X021888Y008399D01*
X023088Y007199D01*
X023100Y007199D01*
X023188Y007199D01*
X025188Y005199D01*
X025388Y005199D01*
X025388Y004199D01*
X024388Y004199D01*
X023888Y004699D01*
X023836Y004699D01*
X022222Y004699D01*
X022188Y004699D01*
X022188Y003299D01*
X021688Y002799D01*
X021688Y002599D01*
X020988Y002599D01*
X020488Y003099D01*
X019288Y003099D01*
X018688Y003699D01*
X014288Y003699D01*
X014788Y004199D01*
X014762Y004199D01*
X014088Y004199D02*
X014014Y004199D01*
X014088Y004199D02*
X014088Y004899D01*
X017588Y004899D01*
X018388Y005699D01*
X018222Y005699D01*
X018288Y005699D01*
X018222Y005699D02*
X018088Y005699D01*
X018088Y006899D01*
X017788Y007199D01*
X017588Y007199D01*
X017529Y007188D01*
X017588Y007399D02*
X017529Y007443D01*
X017588Y007399D02*
X020688Y007399D01*
X021088Y006999D01*
X021168Y006809D01*
X019988Y006199D02*
X023388Y006199D01*
X024888Y004699D01*
X024939Y004699D01*
X025788Y005199D02*
X025788Y003199D01*
X021688Y002599D02*
X021688Y001699D01*
X021638Y001676D01*
X020138Y001676D02*
X020088Y001699D01*
X019988Y001699D01*
X019688Y001999D01*
X018053Y002199D02*
X017488Y002199D01*
X016788Y002199D02*
X016762Y002199D01*
X016788Y002199D02*
X016288Y001699D01*
X016014Y002199D02*
X015388Y002199D01*
X012388Y002799D02*
X012288Y002699D01*
X013288Y003699D02*
X014288Y003699D01*
X013288Y003699D02*
X012888Y004099D01*
X012788Y004199D01*
X013888Y005099D02*
X016188Y005099D01*
X016188Y005699D01*
X016262Y005699D01*
X017553Y005699D01*
X018388Y005699D02*
X019541Y005699D01*
X019588Y005699D01*
X020288Y004999D01*
X020788Y004999D01*
X021288Y004499D01*
X021488Y004699D01*
X021553Y004699D01*
X021288Y004499D02*
X021088Y004299D01*
X021088Y003799D01*
X021138Y003723D01*
X021588Y003699D02*
X021638Y003723D01*
X021588Y003699D02*
X021588Y002999D01*
X021088Y002999D01*
X020638Y003723D02*
X020688Y003799D01*
X020688Y004499D01*
X020088Y003799D02*
X019488Y004399D01*
X019388Y004399D01*
X018762Y004199D02*
X018688Y004199D01*
X018688Y003699D01*
X018014Y004199D02*
X017488Y004199D01*
X017388Y004299D01*
X017288Y004699D02*
X016788Y004199D01*
X016762Y004199D01*
X016014Y004199D02*
X015988Y004199D01*
X015688Y004499D01*
X015388Y004499D01*
X017288Y004699D02*
X019188Y004699D01*
X019288Y004799D01*
X019688Y004799D01*
X020688Y005399D02*
X020888Y005399D01*
X021188Y005699D01*
X021234Y005699D01*
X017529Y006932D02*
X017488Y006899D01*
X017288Y006899D01*
X016188Y007999D01*
X016188Y008899D01*
X015246Y008467D02*
X015188Y008499D01*
X014288Y008499D01*
X015246Y008211D02*
X015288Y008199D01*
X015788Y008199D01*
X015246Y007955D02*
X015188Y007999D01*
X014088Y007999D01*
X012788Y007699D02*
X011388Y007699D01*
X011388Y008782D01*
X008888Y009199D02*
X007698Y009199D01*
X007078Y009199D02*
X006988Y009199D01*
X006588Y009599D01*
X005988Y009599D01*
X005588Y009199D01*
X005578Y009199D01*
X006188Y009199D02*
X006198Y009199D01*
X006188Y009199D02*
X006188Y008699D01*
X003388Y008199D02*
X003388Y006299D01*
X002588Y005499D01*
X002494Y005487D01*
X001988Y005199D02*
X001988Y009999D01*
X020588Y009999D01*
X022888Y007699D01*
X023288Y007699D01*
X025788Y005199D01*
X020138Y003723D02*
X020088Y003799D01*
X015514Y005699D02*
X014788Y005699D01*
X013888Y006617D02*
X013888Y006699D01*
X013288Y007299D01*
X009888Y007299D01*
X009788Y007399D01*
X009754Y007408D01*
X009688Y007399D01*
X008088Y007399D01*
X008021Y007408D01*
X007988Y007399D01*
X007488Y007399D01*
X007488Y006199D01*
X007188Y005899D01*
X006088Y004799D01*
X006234Y004699D01*
X006188Y004699D01*
X006088Y004799D01*
X005788Y005099D01*
X004888Y004199D01*
X004388Y004199D01*
X004388Y001699D01*
X004388Y001688D01*
X004388Y001699D02*
X004088Y001699D01*
X004014Y001688D01*
X004088Y004699D02*
X004541Y004699D01*
X005288Y005599D02*
X005788Y005099D01*
X005288Y005599D02*
X005288Y006199D01*
X005238Y006199D01*
X008021Y005991D02*
X008088Y005999D01*
X008588Y005999D01*
X008788Y006199D01*
X009754Y005991D02*
X009788Y005899D01*
X009888Y005799D01*
X011888Y005799D01*
X011888Y006617D01*
X011388Y006617D02*
X011388Y006199D01*
X010488Y006199D01*
X010888Y006617D02*
X010888Y006699D01*
X010488Y006699D01*
X009788Y006699D02*
X009754Y006699D01*
X009788Y006699D02*
X009788Y007399D01*
X008788Y006699D02*
X008021Y006699D01*
X002494Y004699D02*
X002488Y004699D01*
X001988Y005199D01*
X014688Y007399D02*
X015188Y007399D01*
X015246Y007443D01*
D33*
X014688Y007399D03*
X014088Y007999D03*
X014288Y008499D03*
X015788Y008199D03*
X015188Y009299D03*
X012788Y007699D03*
X010488Y006699D03*
X010488Y006199D03*
X008788Y006199D03*
X008788Y006699D03*
X014088Y005499D03*
X014788Y005699D03*
X015388Y004499D03*
X017388Y004299D03*
X019388Y004399D03*
X019688Y004799D03*
X020688Y004499D03*
X020688Y005399D03*
X019988Y006199D03*
X021088Y002999D03*
X019688Y001999D03*
X017488Y002199D03*
X015388Y002199D03*
X012388Y002799D03*
M02*
